SplineFontDB: 3.2
FontName: CASS_BITMAP
FullName: CASS_BITMAP
FamilyName: CASS_BITMAP
Weight: Regular
Copyright: Copyright (c) 2025, cassette
UComments: "2025-12-1: Created with FontForge (http://fontforge.org)"
Version: 001.000
ItalicAngle: 0
UnderlinePosition: -51.2
UnderlineWidth: 25.6
Ascent: 410
Descent: 102
InvalidEm: 0
LayerCount: 2
Layer: 0 0 "Back" 1
Layer: 1 0 "Fore" 0
XUID: [1021 534 994966976 1862]
StyleMap: 0x0000
FSType: 0
OS2Version: 0
OS2_WeightWidthSlopeOnly: 0
OS2_UseTypoMetrics: 1
CreationTime: 1764623173
ModificationTime: 1764624547
OS2TypoAscent: 0
OS2TypoAOffset: 1
OS2TypoDescent: 0
OS2TypoDOffset: 1
OS2TypoLinegap: 46
OS2WinAscent: 0
OS2WinAOffset: 1
OS2WinDescent: 0
OS2WinDOffset: 1
HheadAscent: 0
HheadAOffset: 1
HheadDescent: 0
HheadDOffset: 1
MarkAttachClasses: 1
DEI: 91125
Encoding: ISO8859-1
UnicodeInterp: none
NameList: AGL For New Fonts
DisplaySize: -48
AntiAlias: 1
FitToEm: 0
WinInfo: 0 45 17
BeginPrivate: 0
EndPrivate
BeginChars: 256 256

StartChar: exclam
Encoding: 33 33 0
Width: 262
Flags: W
VStem: 85 114
LayerCount: 2
Fore
SplineSet
85 324 m 1
 114 324 l 1
 114 353 l 1
 85 353 l 1
 85 324 l 1
114 324 m 1
 142 324 l 1
 142 353 l 1
 114 353 l 1
 114 324 l 1
142 324 m 1
 171 324 l 1
 171 353 l 1
 142 353 l 1
 142 324 l 1
171 324 m 1
 199 324 l 1
 199 353 l 1
 171 353 l 1
 171 324 l 1
85 296 m 1
 114 296 l 1
 114 324 l 1
 85 324 l 1
 85 296 l 1
114 296 m 1
 142 296 l 1
 142 324 l 1
 114 324 l 1
 114 296 l 1
142 296 m 1
 171 296 l 1
 171 324 l 1
 142 324 l 1
 142 296 l 1
171 296 m 1
 199 296 l 1
 199 324 l 1
 171 324 l 1
 171 296 l 1
85 267 m 1
 114 267 l 1
 114 296 l 1
 85 296 l 1
 85 267 l 1
114 267 m 1
 142 267 l 1
 142 296 l 1
 114 296 l 1
 114 267 l 1
142 267 m 1
 171 267 l 1
 171 296 l 1
 142 296 l 1
 142 267 l 1
171 267 m 1
 199 267 l 1
 199 296 l 1
 171 296 l 1
 171 267 l 1
85 239 m 1
 114 239 l 1
 114 267 l 1
 85 267 l 1
 85 239 l 1
114 239 m 1
 142 239 l 1
 142 267 l 1
 114 267 l 1
 114 239 l 1
142 239 m 1
 171 239 l 1
 171 267 l 1
 142 267 l 1
 142 239 l 1
171 239 m 1
 199 239 l 1
 199 267 l 1
 171 267 l 1
 171 239 l 1
85 210 m 1
 114 210 l 1
 114 239 l 1
 85 239 l 1
 85 210 l 1
114 210 m 1
 142 210 l 1
 142 239 l 1
 114 239 l 1
 114 210 l 1
142 210 m 1
 171 210 l 1
 171 239 l 1
 142 239 l 1
 142 210 l 1
171 210 m 1
 199 210 l 1
 199 239 l 1
 171 239 l 1
 171 210 l 1
114 182 m 1
 142 182 l 1
 142 210 l 1
 114 210 l 1
 114 182 l 1
142 182 m 1
 171 182 l 1
 171 210 l 1
 142 210 l 1
 142 182 l 1
114 154 m 1
 142 154 l 1
 142 182 l 1
 114 182 l 1
 114 154 l 1
142 154 m 1
 171 154 l 1
 171 182 l 1
 142 182 l 1
 142 154 l 1
114 125 m 1
 142 125 l 1
 142 154 l 1
 114 154 l 1
 114 125 l 1
142 125 m 1
 171 125 l 1
 171 154 l 1
 142 154 l 1
 142 125 l 1
114 97 m 1
 142 97 l 1
 142 125 l 1
 114 125 l 1
 114 97 l 1
142 97 m 1
 171 97 l 1
 171 125 l 1
 142 125 l 1
 142 97 l 1
114 40 m 1
 142 40 l 1
 142 68 l 1
 114 68 l 1
 114 40 l 1
142 40 m 1
 171 40 l 1
 171 68 l 1
 142 68 l 1
 142 40 l 1
114 11 m 1
 142 11 l 1
 142 40 l 1
 114 40 l 1
 114 11 l 1
142 11 m 1
 171 11 l 1
 171 40 l 1
 142 40 l 1
 142 11 l 1
EndSplineSet
Validated: 5
EndChar

StartChar: quotedbl
Encoding: 34 34 1
Width: 262
Flags: HW
LayerCount: 2
Fore
SplineSet
85 324 m 1
 114 324 l 1
 114 353 l 1
 85 353 l 1
 85 324 l 1
114 324 m 1
 142 324 l 1
 142 353 l 1
 114 353 l 1
 114 324 l 1
171 324 m 1
 199 324 l 1
 199 353 l 1
 171 353 l 1
 171 324 l 1
199 324 m 1
 228 324 l 1
 228 353 l 1
 199 353 l 1
 199 324 l 1
85 296 m 1
 114 296 l 1
 114 324 l 1
 85 324 l 1
 85 296 l 1
114 296 m 1
 142 296 l 1
 142 324 l 1
 114 324 l 1
 114 296 l 1
171 296 m 1
 199 296 l 1
 199 324 l 1
 171 324 l 1
 171 296 l 1
199 296 m 1
 228 296 l 1
 228 324 l 1
 199 324 l 1
 199 296 l 1
85 267 m 1
 114 267 l 1
 114 296 l 1
 85 296 l 1
 85 267 l 1
171 267 m 1
 199 267 l 1
 199 296 l 1
 171 296 l 1
 171 267 l 1
85 239 m 1
 114 239 l 1
 114 267 l 1
 85 267 l 1
 85 239 l 1
171 239 m 1
 199 239 l 1
 199 267 l 1
 171 267 l 1
 171 239 l 1
EndSplineSet
Validated: 5
EndChar

StartChar: numbersign
Encoding: 35 35 2
Width: 262
Flags: HW
LayerCount: 2
Fore
SplineSet
114 267 m 1
 142 267 l 1
 142 296 l 1
 114 296 l 1
 114 267 l 1
228 267 m 1
 256 267 l 1
 256 296 l 1
 228 296 l 1
 228 267 l 1
114 239 m 1
 142 239 l 1
 142 267 l 1
 114 267 l 1
 114 239 l 1
228 239 m 1
 256 239 l 1
 256 267 l 1
 228 267 l 1
 228 239 l 1
85 210 m 1
 114 210 l 1
 114 239 l 1
 85 239 l 1
 85 210 l 1
199 210 m 1
 228 210 l 1
 228 239 l 1
 199 239 l 1
 199 210 l 1
28 182 m 1
 57 182 l 1
 57 210 l 1
 28 210 l 1
 28 182 l 1
57 182 m 1
 85 182 l 1
 85 210 l 1
 57 210 l 1
 57 182 l 1
85 182 m 1
 114 182 l 1
 114 210 l 1
 85 210 l 1
 85 182 l 1
114 182 m 1
 142 182 l 1
 142 210 l 1
 114 210 l 1
 114 182 l 1
142 182 m 1
 171 182 l 1
 171 210 l 1
 142 210 l 1
 142 182 l 1
171 182 m 1
 199 182 l 1
 199 210 l 1
 171 210 l 1
 171 182 l 1
199 182 m 1
 228 182 l 1
 228 210 l 1
 199 210 l 1
 199 182 l 1
228 182 m 1
 256 182 l 1
 256 210 l 1
 228 210 l 1
 228 182 l 1
85 154 m 1
 114 154 l 1
 114 182 l 1
 85 182 l 1
 85 154 l 1
199 154 m 1
 228 154 l 1
 228 182 l 1
 199 182 l 1
 199 154 l 1
57 125 m 1
 85 125 l 1
 85 154 l 1
 57 154 l 1
 57 125 l 1
171 125 m 1
 199 125 l 1
 199 154 l 1
 171 154 l 1
 171 125 l 1
28 97 m 1
 57 97 l 1
 57 125 l 1
 28 125 l 1
 28 97 l 1
57 97 m 1
 85 97 l 1
 85 125 l 1
 57 125 l 1
 57 97 l 1
85 97 m 1
 114 97 l 1
 114 125 l 1
 85 125 l 1
 85 97 l 1
114 97 m 1
 142 97 l 1
 142 125 l 1
 114 125 l 1
 114 97 l 1
142 97 m 1
 171 97 l 1
 171 125 l 1
 142 125 l 1
 142 97 l 1
171 97 m 1
 199 97 l 1
 199 125 l 1
 171 125 l 1
 171 97 l 1
199 97 m 1
 228 97 l 1
 228 125 l 1
 199 125 l 1
 199 97 l 1
228 97 m 1
 256 97 l 1
 256 125 l 1
 228 125 l 1
 228 97 l 1
57 68 m 1
 85 68 l 1
 85 97 l 1
 57 97 l 1
 57 68 l 1
171 68 m 1
 199 68 l 1
 199 97 l 1
 171 97 l 1
 171 68 l 1
28 40 m 1
 57 40 l 1
 57 68 l 1
 28 68 l 1
 28 40 l 1
142 40 m 1
 171 40 l 1
 171 68 l 1
 142 68 l 1
 142 40 l 1
28 11 m 1
 57 11 l 1
 57 40 l 1
 28 40 l 1
 28 11 l 1
142 11 m 1
 171 11 l 1
 171 40 l 1
 142 40 l 1
 142 11 l 1
EndSplineSet
Validated: 5
EndChar

StartChar: dollar
Encoding: 36 36 3
Width: 262
Flags: HW
LayerCount: 2
Fore
SplineSet
142 324 m 1
 171 324 l 1
 171 353 l 1
 142 353 l 1
 142 324 l 1
142 296 m 1
 171 296 l 1
 171 324 l 1
 142 324 l 1
 142 296 l 1
57 267 m 1
 85 267 l 1
 85 296 l 1
 57 296 l 1
 57 267 l 1
85 267 m 1
 114 267 l 1
 114 296 l 1
 85 296 l 1
 85 267 l 1
114 267 m 1
 142 267 l 1
 142 296 l 1
 114 296 l 1
 114 267 l 1
142 267 m 1
 171 267 l 1
 171 296 l 1
 142 296 l 1
 142 267 l 1
171 267 m 1
 199 267 l 1
 199 296 l 1
 171 296 l 1
 171 267 l 1
199 267 m 1
 228 267 l 1
 228 296 l 1
 199 296 l 1
 199 267 l 1
28 239 m 1
 57 239 l 1
 57 267 l 1
 28 267 l 1
 28 239 l 1
57 239 m 1
 85 239 l 1
 85 267 l 1
 57 267 l 1
 57 239 l 1
142 239 m 1
 171 239 l 1
 171 267 l 1
 142 267 l 1
 142 239 l 1
171 239 m 1
 199 239 l 1
 199 267 l 1
 171 267 l 1
 171 239 l 1
199 239 m 1
 228 239 l 1
 228 267 l 1
 199 267 l 1
 199 239 l 1
228 239 m 1
 256 239 l 1
 256 267 l 1
 228 267 l 1
 228 239 l 1
28 210 m 1
 57 210 l 1
 57 239 l 1
 28 239 l 1
 28 210 l 1
57 210 m 1
 85 210 l 1
 85 239 l 1
 57 239 l 1
 57 210 l 1
85 210 m 1
 114 210 l 1
 114 239 l 1
 85 239 l 1
 85 210 l 1
199 210 m 1
 228 210 l 1
 228 239 l 1
 199 239 l 1
 199 210 l 1
228 210 m 1
 256 210 l 1
 256 239 l 1
 228 239 l 1
 228 210 l 1
256 210 m 1
 284 210 l 1
 284 239 l 1
 256 239 l 1
 256 210 l 1
28 182 m 1
 57 182 l 1
 57 210 l 1
 28 210 l 1
 28 182 l 1
57 182 m 1
 85 182 l 1
 85 210 l 1
 57 210 l 1
 57 182 l 1
85 182 m 1
 114 182 l 1
 114 210 l 1
 85 210 l 1
 85 182 l 1
114 182 m 1
 142 182 l 1
 142 210 l 1
 114 210 l 1
 114 182 l 1
228 182 m 1
 256 182 l 1
 256 210 l 1
 228 210 l 1
 228 182 l 1
57 154 m 1
 85 154 l 1
 85 182 l 1
 57 182 l 1
 57 154 l 1
85 154 m 1
 114 154 l 1
 114 182 l 1
 85 182 l 1
 85 154 l 1
114 154 m 1
 142 154 l 1
 142 182 l 1
 114 182 l 1
 114 154 l 1
142 154 m 1
 171 154 l 1
 171 182 l 1
 142 182 l 1
 142 154 l 1
85 125 m 1
 114 125 l 1
 114 154 l 1
 85 154 l 1
 85 125 l 1
114 125 m 1
 142 125 l 1
 142 154 l 1
 114 154 l 1
 114 125 l 1
142 125 m 1
 171 125 l 1
 171 154 l 1
 142 154 l 1
 142 125 l 1
171 125 m 1
 199 125 l 1
 199 154 l 1
 171 154 l 1
 171 125 l 1
114 97 m 1
 142 97 l 1
 142 125 l 1
 114 125 l 1
 114 97 l 1
142 97 m 1
 171 97 l 1
 171 125 l 1
 142 125 l 1
 142 97 l 1
171 97 m 1
 199 97 l 1
 199 125 l 1
 171 125 l 1
 171 97 l 1
199 97 m 1
 228 97 l 1
 228 125 l 1
 199 125 l 1
 199 97 l 1
28 68 m 1
 57 68 l 1
 57 97 l 1
 28 97 l 1
 28 68 l 1
142 68 m 1
 171 68 l 1
 171 97 l 1
 142 97 l 1
 142 68 l 1
171 68 m 1
 199 68 l 1
 199 97 l 1
 171 97 l 1
 171 68 l 1
199 68 m 1
 228 68 l 1
 228 97 l 1
 199 97 l 1
 199 68 l 1
228 68 m 1
 256 68 l 1
 256 97 l 1
 228 97 l 1
 228 68 l 1
28 40 m 1
 57 40 l 1
 57 68 l 1
 28 68 l 1
 28 40 l 1
57 40 m 1
 85 40 l 1
 85 68 l 1
 57 68 l 1
 57 40 l 1
199 40 m 1
 228 40 l 1
 228 68 l 1
 199 68 l 1
 199 40 l 1
228 40 m 1
 256 40 l 1
 256 68 l 1
 228 68 l 1
 228 40 l 1
28 11 m 1
 57 11 l 1
 57 40 l 1
 28 40 l 1
 28 11 l 1
57 11 m 1
 85 11 l 1
 85 40 l 1
 57 40 l 1
 57 11 l 1
85 11 m 1
 114 11 l 1
 114 40 l 1
 85 40 l 1
 85 11 l 1
114 11 m 1
 142 11 l 1
 142 40 l 1
 114 40 l 1
 114 11 l 1
199 11 m 1
 228 11 l 1
 228 40 l 1
 199 40 l 1
 199 11 l 1
228 11 m 1
 256 11 l 1
 256 40 l 1
 228 40 l 1
 228 11 l 1
57 -17 m 1
 85 -17 l 1
 85 11 l 1
 57 11 l 1
 57 -17 l 1
85 -17 m 1
 114 -17 l 1
 114 11 l 1
 85 11 l 1
 85 -17 l 1
114 -17 m 1
 142 -17 l 1
 142 11 l 1
 114 11 l 1
 114 -17 l 1
142 -17 m 1
 171 -17 l 1
 171 11 l 1
 142 11 l 1
 142 -17 l 1
171 -17 m 1
 199 -17 l 1
 199 11 l 1
 171 11 l 1
 171 -17 l 1
199 -17 m 1
 228 -17 l 1
 228 11 l 1
 199 11 l 1
 199 -17 l 1
142 -46 m 1
 171 -46 l 1
 171 -17 l 1
 142 -17 l 1
 142 -46 l 1
142 -74 m 1
 171 -74 l 1
 171 -46 l 1
 142 -46 l 1
 142 -74 l 1
EndSplineSet
Validated: 5
EndChar

StartChar: percent
Encoding: 37 37 4
Width: 262
Flags: HW
LayerCount: 2
Fore
SplineSet
57 296 m 1
 85 296 l 1
 85 324 l 1
 57 324 l 1
 57 296 l 1
85 296 m 1
 114 296 l 1
 114 324 l 1
 85 324 l 1
 85 296 l 1
228 296 m 1
 256 296 l 1
 256 324 l 1
 228 324 l 1
 228 296 l 1
28 267 m 1
 57 267 l 1
 57 296 l 1
 28 296 l 1
 28 267 l 1
114 267 m 1
 142 267 l 1
 142 296 l 1
 114 296 l 1
 114 267 l 1
199 267 m 1
 228 267 l 1
 228 296 l 1
 199 296 l 1
 199 267 l 1
228 267 m 1
 256 267 l 1
 256 296 l 1
 228 296 l 1
 228 267 l 1
28 239 m 1
 57 239 l 1
 57 267 l 1
 28 267 l 1
 28 239 l 1
114 239 m 1
 142 239 l 1
 142 267 l 1
 114 267 l 1
 114 239 l 1
171 239 m 1
 199 239 l 1
 199 267 l 1
 171 267 l 1
 171 239 l 1
199 239 m 1
 228 239 l 1
 228 267 l 1
 199 267 l 1
 199 239 l 1
57 210 m 1
 85 210 l 1
 85 239 l 1
 57 239 l 1
 57 210 l 1
85 210 m 1
 114 210 l 1
 114 239 l 1
 85 239 l 1
 85 210 l 1
171 210 m 1
 199 210 l 1
 199 239 l 1
 171 239 l 1
 171 210 l 1
199 210 m 1
 228 210 l 1
 228 239 l 1
 199 239 l 1
 199 210 l 1
142 182 m 1
 171 182 l 1
 171 210 l 1
 142 210 l 1
 142 182 l 1
171 182 m 1
 199 182 l 1
 199 210 l 1
 171 210 l 1
 171 182 l 1
114 154 m 1
 142 154 l 1
 142 182 l 1
 114 182 l 1
 114 154 l 1
142 154 m 1
 171 154 l 1
 171 182 l 1
 142 182 l 1
 142 154 l 1
85 125 m 1
 114 125 l 1
 114 154 l 1
 85 154 l 1
 85 125 l 1
114 125 m 1
 142 125 l 1
 142 154 l 1
 114 154 l 1
 114 125 l 1
57 97 m 1
 85 97 l 1
 85 125 l 1
 57 125 l 1
 57 97 l 1
85 97 m 1
 114 97 l 1
 114 125 l 1
 85 125 l 1
 85 97 l 1
171 97 m 1
 199 97 l 1
 199 125 l 1
 171 125 l 1
 171 97 l 1
199 97 m 1
 228 97 l 1
 228 125 l 1
 199 125 l 1
 199 97 l 1
57 68 m 1
 85 68 l 1
 85 97 l 1
 57 97 l 1
 57 68 l 1
85 68 m 1
 114 68 l 1
 114 97 l 1
 85 97 l 1
 85 68 l 1
142 68 m 1
 171 68 l 1
 171 97 l 1
 142 97 l 1
 142 68 l 1
228 68 m 1
 256 68 l 1
 256 97 l 1
 228 97 l 1
 228 68 l 1
28 40 m 1
 57 40 l 1
 57 68 l 1
 28 68 l 1
 28 40 l 1
57 40 m 1
 85 40 l 1
 85 68 l 1
 57 68 l 1
 57 40 l 1
142 40 m 1
 171 40 l 1
 171 68 l 1
 142 68 l 1
 142 40 l 1
228 40 m 1
 256 40 l 1
 256 68 l 1
 228 68 l 1
 228 40 l 1
28 11 m 1
 57 11 l 1
 57 40 l 1
 28 40 l 1
 28 11 l 1
171 11 m 1
 199 11 l 1
 199 40 l 1
 171 40 l 1
 171 11 l 1
199 11 m 1
 228 11 l 1
 228 40 l 1
 199 40 l 1
 199 11 l 1
EndSplineSet
Validated: 5
EndChar

StartChar: quotesingle
Encoding: 39 39 6
Width: 262
Flags: HWO
LayerCount: 2
Fore
SplineSet
114 324 m 1
 142 324 l 1
 142 353 l 1
 114 353 l 1
 114 324 l 1
142 324 m 1
 171 324 l 1
 171 353 l 1
 142 353 l 1
 142 324 l 1
114 296 m 1
 142 296 l 1
 142 324 l 1
 114 324 l 1
 114 296 l 1
142 296 m 1
 171 296 l 1
 171 324 l 1
 142 324 l 1
 142 296 l 1
114 267 m 1
 142 267 l 1
 142 296 l 1
 114 296 l 1
 114 267 l 1
114 239 m 1
 142 239 l 1
 142 267 l 1
 114 267 l 1
 114 239 l 1
EndSplineSet
EndChar

StartChar: parenleft
Encoding: 40 40 7
Width: 262
Flags: HW
LayerCount: 2
Fore
SplineSet
171 353 m 1
 199 353 l 1
 199 381 l 1
 171 381 l 1
 171 353 l 1
199 353 m 1
 228 353 l 1
 228 381 l 1
 199 381 l 1
 199 353 l 1
142 324 m 1
 171 324 l 1
 171 353 l 1
 142 353 l 1
 142 324 l 1
171 324 m 1
 199 324 l 1
 199 353 l 1
 171 353 l 1
 171 324 l 1
114 296 m 1
 142 296 l 1
 142 324 l 1
 114 324 l 1
 114 296 l 1
142 296 m 1
 171 296 l 1
 171 324 l 1
 142 324 l 1
 142 296 l 1
114 267 m 1
 142 267 l 1
 142 296 l 1
 114 296 l 1
 114 267 l 1
142 267 m 1
 171 267 l 1
 171 296 l 1
 142 296 l 1
 142 267 l 1
85 239 m 1
 114 239 l 1
 114 267 l 1
 85 267 l 1
 85 239 l 1
114 239 m 1
 142 239 l 1
 142 267 l 1
 114 267 l 1
 114 239 l 1
142 239 m 1
 171 239 l 1
 171 267 l 1
 142 267 l 1
 142 239 l 1
85 210 m 1
 114 210 l 1
 114 239 l 1
 85 239 l 1
 85 210 l 1
114 210 m 1
 142 210 l 1
 142 239 l 1
 114 239 l 1
 114 210 l 1
57 182 m 1
 85 182 l 1
 85 210 l 1
 57 210 l 1
 57 182 l 1
85 182 m 1
 114 182 l 1
 114 210 l 1
 85 210 l 1
 85 182 l 1
114 182 m 1
 142 182 l 1
 142 210 l 1
 114 210 l 1
 114 182 l 1
57 154 m 1
 85 154 l 1
 85 182 l 1
 57 182 l 1
 57 154 l 1
85 154 m 1
 114 154 l 1
 114 182 l 1
 85 182 l 1
 85 154 l 1
114 154 m 1
 142 154 l 1
 142 182 l 1
 114 182 l 1
 114 154 l 1
57 125 m 1
 85 125 l 1
 85 154 l 1
 57 154 l 1
 57 125 l 1
85 125 m 1
 114 125 l 1
 114 154 l 1
 85 154 l 1
 85 125 l 1
114 125 m 1
 142 125 l 1
 142 154 l 1
 114 154 l 1
 114 125 l 1
57 97 m 1
 85 97 l 1
 85 125 l 1
 57 125 l 1
 57 97 l 1
85 97 m 1
 114 97 l 1
 114 125 l 1
 85 125 l 1
 85 97 l 1
114 97 m 1
 142 97 l 1
 142 125 l 1
 114 125 l 1
 114 97 l 1
85 68 m 1
 114 68 l 1
 114 97 l 1
 85 97 l 1
 85 68 l 1
114 68 m 1
 142 68 l 1
 142 97 l 1
 114 97 l 1
 114 68 l 1
85 40 m 1
 114 40 l 1
 114 68 l 1
 85 68 l 1
 85 40 l 1
114 40 m 1
 142 40 l 1
 142 68 l 1
 114 68 l 1
 114 40 l 1
142 40 m 1
 171 40 l 1
 171 68 l 1
 142 68 l 1
 142 40 l 1
114 11 m 1
 142 11 l 1
 142 40 l 1
 114 40 l 1
 114 11 l 1
142 11 m 1
 171 11 l 1
 171 40 l 1
 142 40 l 1
 142 11 l 1
114 -17 m 1
 142 -17 l 1
 142 11 l 1
 114 11 l 1
 114 -17 l 1
142 -17 m 1
 171 -17 l 1
 171 11 l 1
 142 11 l 1
 142 -17 l 1
142 -46 m 1
 171 -46 l 1
 171 -17 l 1
 142 -17 l 1
 142 -46 l 1
171 -46 m 1
 199 -46 l 1
 199 -17 l 1
 171 -17 l 1
 171 -46 l 1
171 -74 m 1
 199 -74 l 1
 199 -46 l 1
 171 -46 l 1
 171 -74 l 1
199 -74 m 1
 228 -74 l 1
 228 -46 l 1
 199 -46 l 1
 199 -74 l 1
EndSplineSet
Validated: 5
EndChar

StartChar: parenright
Encoding: 41 41 8
Width: 262
Flags: HW
LayerCount: 2
Fore
SplineSet
57 353 m 1
 85 353 l 1
 85 381 l 1
 57 381 l 1
 57 353 l 1
85 353 m 1
 114 353 l 1
 114 381 l 1
 85 381 l 1
 85 353 l 1
85 324 m 1
 114 324 l 1
 114 353 l 1
 85 353 l 1
 85 324 l 1
114 324 m 1
 142 324 l 1
 142 353 l 1
 114 353 l 1
 114 324 l 1
114 296 m 1
 142 296 l 1
 142 324 l 1
 114 324 l 1
 114 296 l 1
142 296 m 1
 171 296 l 1
 171 324 l 1
 142 324 l 1
 142 296 l 1
114 267 m 1
 142 267 l 1
 142 296 l 1
 114 296 l 1
 114 267 l 1
142 267 m 1
 171 267 l 1
 171 296 l 1
 142 296 l 1
 142 267 l 1
114 239 m 1
 142 239 l 1
 142 267 l 1
 114 267 l 1
 114 239 l 1
142 239 m 1
 171 239 l 1
 171 267 l 1
 142 267 l 1
 142 239 l 1
171 239 m 1
 199 239 l 1
 199 267 l 1
 171 267 l 1
 171 239 l 1
142 210 m 1
 171 210 l 1
 171 239 l 1
 142 239 l 1
 142 210 l 1
171 210 m 1
 199 210 l 1
 199 239 l 1
 171 239 l 1
 171 210 l 1
142 182 m 1
 171 182 l 1
 171 210 l 1
 142 210 l 1
 142 182 l 1
171 182 m 1
 199 182 l 1
 199 210 l 1
 171 210 l 1
 171 182 l 1
199 182 m 1
 228 182 l 1
 228 210 l 1
 199 210 l 1
 199 182 l 1
142 154 m 1
 171 154 l 1
 171 182 l 1
 142 182 l 1
 142 154 l 1
171 154 m 1
 199 154 l 1
 199 182 l 1
 171 182 l 1
 171 154 l 1
199 154 m 1
 228 154 l 1
 228 182 l 1
 199 182 l 1
 199 154 l 1
142 125 m 1
 171 125 l 1
 171 154 l 1
 142 154 l 1
 142 125 l 1
171 125 m 1
 199 125 l 1
 199 154 l 1
 171 154 l 1
 171 125 l 1
199 125 m 1
 228 125 l 1
 228 154 l 1
 199 154 l 1
 199 125 l 1
142 97 m 1
 171 97 l 1
 171 125 l 1
 142 125 l 1
 142 97 l 1
171 97 m 1
 199 97 l 1
 199 125 l 1
 171 125 l 1
 171 97 l 1
199 97 m 1
 228 97 l 1
 228 125 l 1
 199 125 l 1
 199 97 l 1
142 68 m 1
 171 68 l 1
 171 97 l 1
 142 97 l 1
 142 68 l 1
171 68 m 1
 199 68 l 1
 199 97 l 1
 171 97 l 1
 171 68 l 1
142 40 m 1
 171 40 l 1
 171 68 l 1
 142 68 l 1
 142 40 l 1
171 40 m 1
 199 40 l 1
 199 68 l 1
 171 68 l 1
 171 40 l 1
114 11 m 1
 142 11 l 1
 142 40 l 1
 114 40 l 1
 114 11 l 1
142 11 m 1
 171 11 l 1
 171 40 l 1
 142 40 l 1
 142 11 l 1
171 11 m 1
 199 11 l 1
 199 40 l 1
 171 40 l 1
 171 11 l 1
114 -17 m 1
 142 -17 l 1
 142 11 l 1
 114 11 l 1
 114 -17 l 1
142 -17 m 1
 171 -17 l 1
 171 11 l 1
 142 11 l 1
 142 -17 l 1
114 -46 m 1
 142 -46 l 1
 142 -17 l 1
 114 -17 l 1
 114 -46 l 1
142 -46 m 1
 171 -46 l 1
 171 -17 l 1
 142 -17 l 1
 142 -46 l 1
85 -74 m 1
 114 -74 l 1
 114 -46 l 1
 85 -46 l 1
 85 -74 l 1
114 -74 m 1
 142 -74 l 1
 142 -46 l 1
 114 -46 l 1
 114 -74 l 1
EndSplineSet
Validated: 5
EndChar

StartChar: A
Encoding: 65 65 9
Width: 262
Flags: W
LayerCount: 2
Fore
SplineSet
114 324 m 1
 142 324 l 1
 142 353 l 1
 114 353 l 1
 114 324 l 1
142 324 m 1
 171 324 l 1
 171 353 l 1
 142 353 l 1
 142 324 l 1
114 296 m 1
 142 296 l 1
 142 324 l 1
 114 324 l 1
 114 296 l 1
142 296 m 1
 171 296 l 1
 171 324 l 1
 142 324 l 1
 142 296 l 1
85 267 m 1
 114 267 l 1
 114 296 l 1
 85 296 l 1
 85 267 l 1
114 267 m 1
 142 267 l 1
 142 296 l 1
 114 296 l 1
 114 267 l 1
142 267 m 1
 171 267 l 1
 171 296 l 1
 142 296 l 1
 142 267 l 1
171 267 m 1
 199 267 l 1
 199 296 l 1
 171 296 l 1
 171 267 l 1
85 239 m 1
 114 239 l 1
 114 267 l 1
 85 267 l 1
 85 239 l 1
114 239 m 1
 142 239 l 1
 142 267 l 1
 114 267 l 1
 114 239 l 1
142 239 m 1
 171 239 l 1
 171 267 l 1
 142 267 l 1
 142 239 l 1
171 239 m 1
 199 239 l 1
 199 267 l 1
 171 267 l 1
 171 239 l 1
85 210 m 1
 114 210 l 1
 114 239 l 1
 85 239 l 1
 85 210 l 1
142 210 m 1
 171 210 l 1
 171 239 l 1
 142 239 l 1
 142 210 l 1
171 210 m 1
 199 210 l 1
 199 239 l 1
 171 239 l 1
 171 210 l 1
85 182 m 1
 114 182 l 1
 114 210 l 1
 85 210 l 1
 85 182 l 1
142 182 m 1
 171 182 l 1
 171 210 l 1
 142 210 l 1
 142 182 l 1
171 182 m 1
 199 182 l 1
 199 210 l 1
 171 210 l 1
 171 182 l 1
199 182 m 1
 228 182 l 1
 228 210 l 1
 199 210 l 1
 199 182 l 1
57 154 m 1
 85 154 l 1
 85 182 l 1
 57 182 l 1
 57 154 l 1
85 154 m 1
 114 154 l 1
 114 182 l 1
 85 182 l 1
 85 154 l 1
171 154 m 1
 199 154 l 1
 199 182 l 1
 171 182 l 1
 171 154 l 1
199 154 m 1
 228 154 l 1
 228 182 l 1
 199 182 l 1
 199 154 l 1
57 125 m 1
 85 125 l 1
 85 154 l 1
 57 154 l 1
 57 125 l 1
171 125 m 1
 199 125 l 1
 199 154 l 1
 171 154 l 1
 171 125 l 1
199 125 m 1
 228 125 l 1
 228 154 l 1
 199 154 l 1
 199 125 l 1
57 97 m 1
 85 97 l 1
 85 125 l 1
 57 125 l 1
 57 97 l 1
85 97 m 1
 114 97 l 1
 114 125 l 1
 85 125 l 1
 85 97 l 1
114 97 m 1
 142 97 l 1
 142 125 l 1
 114 125 l 1
 114 97 l 1
142 97 m 1
 171 97 l 1
 171 125 l 1
 142 125 l 1
 142 97 l 1
171 97 m 1
 199 97 l 1
 199 125 l 1
 171 125 l 1
 171 97 l 1
199 97 m 1
 228 97 l 1
 228 125 l 1
 199 125 l 1
 199 97 l 1
228 97 m 1
 256 97 l 1
 256 125 l 1
 228 125 l 1
 228 97 l 1
57 68 m 1
 85 68 l 1
 85 97 l 1
 57 97 l 1
 57 68 l 1
199 68 m 1
 228 68 l 1
 228 97 l 1
 199 97 l 1
 199 68 l 1
228 68 m 1
 256 68 l 1
 256 97 l 1
 228 97 l 1
 228 68 l 1
28 40 m 1
 57 40 l 1
 57 68 l 1
 28 68 l 1
 28 40 l 1
57 40 m 1
 85 40 l 1
 85 68 l 1
 57 68 l 1
 57 40 l 1
199 40 m 1
 228 40 l 1
 228 68 l 1
 199 68 l 1
 199 40 l 1
228 40 m 1
 256 40 l 1
 256 68 l 1
 228 68 l 1
 228 40 l 1
28 11 m 1
 57 11 l 1
 57 40 l 1
 28 40 l 1
 28 11 l 1
57 11 m 1
 85 11 l 1
 85 40 l 1
 57 40 l 1
 57 11 l 1
85 11 m 1
 114 11 l 1
 114 40 l 1
 85 40 l 1
 85 11 l 1
171 11 m 1
 199 11 l 1
 199 40 l 1
 171 40 l 1
 171 11 l 1
199 11 m 1
 228 11 l 1
 228 40 l 1
 199 40 l 1
 199 11 l 1
228 11 m 1
 256 11 l 1
 256 40 l 1
 228 40 l 1
 228 11 l 1
EndSplineSet
Validated: 5
EndChar

StartChar: B
Encoding: 66 66 10
Width: 262
Flags: W
LayerCount: 2
Fore
SplineSet
28 324 m 1
 57 324 l 1
 57 353 l 1
 28 353 l 1
 28 324 l 1
57 324 m 1
 85 324 l 1
 85 353 l 1
 57 353 l 1
 57 324 l 1
85 324 m 1
 114 324 l 1
 114 353 l 1
 85 353 l 1
 85 324 l 1
114 324 m 1
 142 324 l 1
 142 353 l 1
 114 353 l 1
 114 324 l 1
142 324 m 1
 171 324 l 1
 171 353 l 1
 142 353 l 1
 142 324 l 1
171 324 m 1
 199 324 l 1
 199 353 l 1
 171 353 l 1
 171 324 l 1
57 296 m 1
 85 296 l 1
 85 324 l 1
 57 324 l 1
 57 296 l 1
85 296 m 1
 114 296 l 1
 114 324 l 1
 85 324 l 1
 85 296 l 1
171 296 m 1
 199 296 l 1
 199 324 l 1
 171 324 l 1
 171 296 l 1
199 296 m 1
 228 296 l 1
 228 324 l 1
 199 324 l 1
 199 296 l 1
57 267 m 1
 85 267 l 1
 85 296 l 1
 57 296 l 1
 57 267 l 1
85 267 m 1
 114 267 l 1
 114 296 l 1
 85 296 l 1
 85 267 l 1
199 267 m 1
 228 267 l 1
 228 296 l 1
 199 296 l 1
 199 267 l 1
228 267 m 1
 256 267 l 1
 256 296 l 1
 228 296 l 1
 228 267 l 1
57 239 m 1
 85 239 l 1
 85 267 l 1
 57 267 l 1
 57 239 l 1
85 239 m 1
 114 239 l 1
 114 267 l 1
 85 267 l 1
 85 239 l 1
199 239 m 1
 228 239 l 1
 228 267 l 1
 199 267 l 1
 199 239 l 1
228 239 m 1
 256 239 l 1
 256 267 l 1
 228 267 l 1
 228 239 l 1
57 210 m 1
 85 210 l 1
 85 239 l 1
 57 239 l 1
 57 210 l 1
85 210 m 1
 114 210 l 1
 114 239 l 1
 85 239 l 1
 85 210 l 1
171 210 m 1
 199 210 l 1
 199 239 l 1
 171 239 l 1
 171 210 l 1
199 210 m 1
 228 210 l 1
 228 239 l 1
 199 239 l 1
 199 210 l 1
57 182 m 1
 85 182 l 1
 85 210 l 1
 57 210 l 1
 57 182 l 1
85 182 m 1
 114 182 l 1
 114 210 l 1
 85 210 l 1
 85 182 l 1
114 182 m 1
 142 182 l 1
 142 210 l 1
 114 210 l 1
 114 182 l 1
142 182 m 1
 171 182 l 1
 171 210 l 1
 142 210 l 1
 142 182 l 1
171 182 m 1
 199 182 l 1
 199 210 l 1
 171 210 l 1
 171 182 l 1
57 154 m 1
 85 154 l 1
 85 182 l 1
 57 182 l 1
 57 154 l 1
85 154 m 1
 114 154 l 1
 114 182 l 1
 85 182 l 1
 85 154 l 1
171 154 m 1
 199 154 l 1
 199 182 l 1
 171 182 l 1
 171 154 l 1
199 154 m 1
 228 154 l 1
 228 182 l 1
 199 182 l 1
 199 154 l 1
57 125 m 1
 85 125 l 1
 85 154 l 1
 57 154 l 1
 57 125 l 1
85 125 m 1
 114 125 l 1
 114 154 l 1
 85 154 l 1
 85 125 l 1
199 125 m 1
 228 125 l 1
 228 154 l 1
 199 154 l 1
 199 125 l 1
228 125 m 1
 256 125 l 1
 256 154 l 1
 228 154 l 1
 228 125 l 1
57 97 m 1
 85 97 l 1
 85 125 l 1
 57 125 l 1
 57 97 l 1
85 97 m 1
 114 97 l 1
 114 125 l 1
 85 125 l 1
 85 97 l 1
199 97 m 1
 228 97 l 1
 228 125 l 1
 199 125 l 1
 199 97 l 1
228 97 m 1
 256 97 l 1
 256 125 l 1
 228 125 l 1
 228 97 l 1
57 68 m 1
 85 68 l 1
 85 97 l 1
 57 97 l 1
 57 68 l 1
85 68 m 1
 114 68 l 1
 114 97 l 1
 85 97 l 1
 85 68 l 1
199 68 m 1
 228 68 l 1
 228 97 l 1
 199 97 l 1
 199 68 l 1
228 68 m 1
 256 68 l 1
 256 97 l 1
 228 97 l 1
 228 68 l 1
57 40 m 1
 85 40 l 1
 85 68 l 1
 57 68 l 1
 57 40 l 1
85 40 m 1
 114 40 l 1
 114 68 l 1
 85 68 l 1
 85 40 l 1
114 40 m 1
 142 40 l 1
 142 68 l 1
 114 68 l 1
 114 40 l 1
171 40 m 1
 199 40 l 1
 199 68 l 1
 171 68 l 1
 171 40 l 1
199 40 m 1
 228 40 l 1
 228 68 l 1
 199 68 l 1
 199 40 l 1
228 40 m 1
 256 40 l 1
 256 68 l 1
 228 68 l 1
 228 40 l 1
28 11 m 1
 57 11 l 1
 57 40 l 1
 28 40 l 1
 28 11 l 1
57 11 m 1
 85 11 l 1
 85 40 l 1
 57 40 l 1
 57 11 l 1
85 11 m 1
 114 11 l 1
 114 40 l 1
 85 40 l 1
 85 11 l 1
114 11 m 1
 142 11 l 1
 142 40 l 1
 114 40 l 1
 114 11 l 1
142 11 m 1
 171 11 l 1
 171 40 l 1
 142 40 l 1
 142 11 l 1
171 11 m 1
 199 11 l 1
 199 40 l 1
 171 40 l 1
 171 11 l 1
199 11 m 1
 228 11 l 1
 228 40 l 1
 199 40 l 1
 199 11 l 1
EndSplineSet
Validated: 5
EndChar

StartChar: T
Encoding: 84 84 11
Width: 262
Flags: HW
LayerCount: 2
Fore
SplineSet
28 324 m 1
 57 324 l 1
 57 353 l 1
 28 353 l 1
 28 324 l 1
57 324 m 1
 85 324 l 1
 85 353 l 1
 57 353 l 1
 57 324 l 1
85 324 m 1
 114 324 l 1
 114 353 l 1
 85 353 l 1
 85 324 l 1
114 324 m 1
 142 324 l 1
 142 353 l 1
 114 353 l 1
 114 324 l 1
142 324 m 1
 171 324 l 1
 171 353 l 1
 142 353 l 1
 142 324 l 1
171 324 m 1
 199 324 l 1
 199 353 l 1
 171 353 l 1
 171 324 l 1
199 324 m 1
 228 324 l 1
 228 353 l 1
 199 353 l 1
 199 324 l 1
228 324 m 1
 256 324 l 1
 256 353 l 1
 228 353 l 1
 228 324 l 1
28 296 m 1
 57 296 l 1
 57 324 l 1
 28 324 l 1
 28 296 l 1
57 296 m 1
 85 296 l 1
 85 324 l 1
 57 324 l 1
 57 296 l 1
114 296 m 1
 142 296 l 1
 142 324 l 1
 114 324 l 1
 114 296 l 1
142 296 m 1
 171 296 l 1
 171 324 l 1
 142 324 l 1
 142 296 l 1
199 296 m 1
 228 296 l 1
 228 324 l 1
 199 324 l 1
 199 296 l 1
228 296 m 1
 256 296 l 1
 256 324 l 1
 228 324 l 1
 228 296 l 1
28 267 m 1
 57 267 l 1
 57 296 l 1
 28 296 l 1
 28 267 l 1
114 267 m 1
 142 267 l 1
 142 296 l 1
 114 296 l 1
 114 267 l 1
142 267 m 1
 171 267 l 1
 171 296 l 1
 142 296 l 1
 142 267 l 1
228 267 m 1
 256 267 l 1
 256 296 l 1
 228 296 l 1
 228 267 l 1
114 239 m 1
 142 239 l 1
 142 267 l 1
 114 267 l 1
 114 239 l 1
142 239 m 1
 171 239 l 1
 171 267 l 1
 142 267 l 1
 142 239 l 1
114 210 m 1
 142 210 l 1
 142 239 l 1
 114 239 l 1
 114 210 l 1
142 210 m 1
 171 210 l 1
 171 239 l 1
 142 239 l 1
 142 210 l 1
114 182 m 1
 142 182 l 1
 142 210 l 1
 114 210 l 1
 114 182 l 1
142 182 m 1
 171 182 l 1
 171 210 l 1
 142 210 l 1
 142 182 l 1
114 154 m 1
 142 154 l 1
 142 182 l 1
 114 182 l 1
 114 154 l 1
142 154 m 1
 171 154 l 1
 171 182 l 1
 142 182 l 1
 142 154 l 1
114 125 m 1
 142 125 l 1
 142 154 l 1
 114 154 l 1
 114 125 l 1
142 125 m 1
 171 125 l 1
 171 154 l 1
 142 154 l 1
 142 125 l 1
114 97 m 1
 142 97 l 1
 142 125 l 1
 114 125 l 1
 114 97 l 1
142 97 m 1
 171 97 l 1
 171 125 l 1
 142 125 l 1
 142 97 l 1
114 68 m 1
 142 68 l 1
 142 97 l 1
 114 97 l 1
 114 68 l 1
142 68 m 1
 171 68 l 1
 171 97 l 1
 142 97 l 1
 142 68 l 1
114 40 m 1
 142 40 l 1
 142 68 l 1
 114 68 l 1
 114 40 l 1
142 40 m 1
 171 40 l 1
 171 68 l 1
 142 68 l 1
 142 40 l 1
85 11 m 1
 114 11 l 1
 114 40 l 1
 85 40 l 1
 85 11 l 1
114 11 m 1
 142 11 l 1
 142 40 l 1
 114 40 l 1
 114 11 l 1
142 11 m 1
 171 11 l 1
 171 40 l 1
 142 40 l 1
 142 11 l 1
171 11 m 1
 199 11 l 1
 199 40 l 1
 171 40 l 1
 171 11 l 1
EndSplineSet
Validated: 5
EndChar

StartChar: h
Encoding: 104 104 12
Width: 262
Flags: HW
LayerCount: 2
Fore
SplineSet
28 324 m 1
 57 324 l 1
 57 353 l 1
 28 353 l 1
 28 324 l 1
57 324 m 1
 85 324 l 1
 85 353 l 1
 57 353 l 1
 57 324 l 1
85 324 m 1
 114 324 l 1
 114 353 l 1
 85 353 l 1
 85 324 l 1
57 296 m 1
 85 296 l 1
 85 324 l 1
 57 324 l 1
 57 296 l 1
85 296 m 1
 114 296 l 1
 114 324 l 1
 85 324 l 1
 85 296 l 1
57 267 m 1
 85 267 l 1
 85 296 l 1
 57 296 l 1
 57 267 l 1
85 267 m 1
 114 267 l 1
 114 296 l 1
 85 296 l 1
 85 267 l 1
57 239 m 1
 85 239 l 1
 85 267 l 1
 57 267 l 1
 57 239 l 1
85 239 m 1
 114 239 l 1
 114 267 l 1
 85 267 l 1
 85 239 l 1
57 210 m 1
 85 210 l 1
 85 239 l 1
 57 239 l 1
 57 210 l 1
85 210 m 1
 114 210 l 1
 114 239 l 1
 85 239 l 1
 85 210 l 1
142 210 m 1
 171 210 l 1
 171 239 l 1
 142 239 l 1
 142 210 l 1
171 210 m 1
 199 210 l 1
 199 239 l 1
 171 239 l 1
 171 210 l 1
199 210 m 1
 228 210 l 1
 228 239 l 1
 199 239 l 1
 199 210 l 1
57 182 m 1
 85 182 l 1
 85 210 l 1
 57 210 l 1
 57 182 l 1
85 182 m 1
 114 182 l 1
 114 210 l 1
 85 210 l 1
 85 182 l 1
142 182 m 1
 171 182 l 1
 171 210 l 1
 142 210 l 1
 142 182 l 1
171 182 m 1
 199 182 l 1
 199 210 l 1
 171 210 l 1
 171 182 l 1
199 182 m 1
 228 182 l 1
 228 210 l 1
 199 210 l 1
 199 182 l 1
228 182 m 1
 256 182 l 1
 256 210 l 1
 228 210 l 1
 228 182 l 1
57 154 m 1
 85 154 l 1
 85 182 l 1
 57 182 l 1
 57 154 l 1
85 154 m 1
 114 154 l 1
 114 182 l 1
 85 182 l 1
 85 154 l 1
114 154 m 1
 142 154 l 1
 142 182 l 1
 114 182 l 1
 114 154 l 1
199 154 m 1
 228 154 l 1
 228 182 l 1
 199 182 l 1
 199 154 l 1
228 154 m 1
 256 154 l 1
 256 182 l 1
 228 182 l 1
 228 154 l 1
57 125 m 1
 85 125 l 1
 85 154 l 1
 57 154 l 1
 57 125 l 1
85 125 m 1
 114 125 l 1
 114 154 l 1
 85 154 l 1
 85 125 l 1
199 125 m 1
 228 125 l 1
 228 154 l 1
 199 154 l 1
 199 125 l 1
228 125 m 1
 256 125 l 1
 256 154 l 1
 228 154 l 1
 228 125 l 1
57 97 m 1
 85 97 l 1
 85 125 l 1
 57 125 l 1
 57 97 l 1
85 97 m 1
 114 97 l 1
 114 125 l 1
 85 125 l 1
 85 97 l 1
199 97 m 1
 228 97 l 1
 228 125 l 1
 199 125 l 1
 199 97 l 1
228 97 m 1
 256 97 l 1
 256 125 l 1
 228 125 l 1
 228 97 l 1
57 68 m 1
 85 68 l 1
 85 97 l 1
 57 97 l 1
 57 68 l 1
85 68 m 1
 114 68 l 1
 114 97 l 1
 85 97 l 1
 85 68 l 1
199 68 m 1
 228 68 l 1
 228 97 l 1
 199 97 l 1
 199 68 l 1
228 68 m 1
 256 68 l 1
 256 97 l 1
 228 97 l 1
 228 68 l 1
57 40 m 1
 85 40 l 1
 85 68 l 1
 57 68 l 1
 57 40 l 1
85 40 m 1
 114 40 l 1
 114 68 l 1
 85 68 l 1
 85 40 l 1
199 40 m 1
 228 40 l 1
 228 68 l 1
 199 68 l 1
 199 40 l 1
228 40 m 1
 256 40 l 1
 256 68 l 1
 228 68 l 1
 228 40 l 1
28 11 m 1
 57 11 l 1
 57 40 l 1
 28 40 l 1
 28 11 l 1
57 11 m 1
 85 11 l 1
 85 40 l 1
 57 40 l 1
 57 11 l 1
85 11 m 1
 114 11 l 1
 114 40 l 1
 85 40 l 1
 85 11 l 1
171 11 m 1
 199 11 l 1
 199 40 l 1
 171 40 l 1
 171 11 l 1
199 11 m 1
 228 11 l 1
 228 40 l 1
 199 40 l 1
 199 11 l 1
228 11 m 1
 256 11 l 1
 256 40 l 1
 228 40 l 1
 228 11 l 1
EndSplineSet
Validated: 5
EndChar

StartChar: e
Encoding: 101 101 13
Width: 262
Flags: HW
LayerCount: 2
Fore
SplineSet
85 239 m 1
 114 239 l 1
 114 267 l 1
 85 267 l 1
 85 239 l 1
114 239 m 1
 142 239 l 1
 142 267 l 1
 114 267 l 1
 114 239 l 1
142 239 m 1
 171 239 l 1
 171 267 l 1
 142 267 l 1
 142 239 l 1
171 239 m 1
 199 239 l 1
 199 267 l 1
 171 267 l 1
 171 239 l 1
199 239 m 1
 228 239 l 1
 228 267 l 1
 199 267 l 1
 199 239 l 1
57 210 m 1
 85 210 l 1
 85 239 l 1
 57 239 l 1
 57 210 l 1
85 210 m 1
 114 210 l 1
 114 239 l 1
 85 239 l 1
 85 210 l 1
114 210 m 1
 142 210 l 1
 142 239 l 1
 114 239 l 1
 114 210 l 1
171 210 m 1
 199 210 l 1
 199 239 l 1
 171 239 l 1
 171 210 l 1
199 210 m 1
 228 210 l 1
 228 239 l 1
 199 239 l 1
 199 210 l 1
228 210 m 1
 256 210 l 1
 256 239 l 1
 228 239 l 1
 228 210 l 1
28 182 m 1
 57 182 l 1
 57 210 l 1
 28 210 l 1
 28 182 l 1
57 182 m 1
 85 182 l 1
 85 210 l 1
 57 210 l 1
 57 182 l 1
85 182 m 1
 114 182 l 1
 114 210 l 1
 85 210 l 1
 85 182 l 1
199 182 m 1
 228 182 l 1
 228 210 l 1
 199 210 l 1
 199 182 l 1
228 182 m 1
 256 182 l 1
 256 210 l 1
 228 210 l 1
 228 182 l 1
28 154 m 1
 57 154 l 1
 57 182 l 1
 28 182 l 1
 28 154 l 1
57 154 m 1
 85 154 l 1
 85 182 l 1
 57 182 l 1
 57 154 l 1
85 154 m 1
 114 154 l 1
 114 182 l 1
 85 182 l 1
 85 154 l 1
199 154 m 1
 228 154 l 1
 228 182 l 1
 199 182 l 1
 199 154 l 1
228 154 m 1
 256 154 l 1
 256 182 l 1
 228 182 l 1
 228 154 l 1
28 125 m 1
 57 125 l 1
 57 154 l 1
 28 154 l 1
 28 125 l 1
57 125 m 1
 85 125 l 1
 85 154 l 1
 57 154 l 1
 57 125 l 1
85 125 m 1
 114 125 l 1
 114 154 l 1
 85 154 l 1
 85 125 l 1
114 125 m 1
 142 125 l 1
 142 154 l 1
 114 154 l 1
 114 125 l 1
142 125 m 1
 171 125 l 1
 171 154 l 1
 142 154 l 1
 142 125 l 1
171 125 m 1
 199 125 l 1
 199 154 l 1
 171 154 l 1
 171 125 l 1
199 125 m 1
 228 125 l 1
 228 154 l 1
 199 154 l 1
 199 125 l 1
228 125 m 1
 256 125 l 1
 256 154 l 1
 228 154 l 1
 228 125 l 1
28 97 m 1
 57 97 l 1
 57 125 l 1
 28 125 l 1
 28 97 l 1
57 97 m 1
 85 97 l 1
 85 125 l 1
 57 125 l 1
 57 97 l 1
85 97 m 1
 114 97 l 1
 114 125 l 1
 85 125 l 1
 85 97 l 1
28 68 m 1
 57 68 l 1
 57 97 l 1
 28 97 l 1
 28 68 l 1
57 68 m 1
 85 68 l 1
 85 97 l 1
 57 97 l 1
 57 68 l 1
85 68 m 1
 114 68 l 1
 114 97 l 1
 85 97 l 1
 85 68 l 1
114 68 m 1
 142 68 l 1
 142 97 l 1
 114 97 l 1
 114 68 l 1
57 40 m 1
 85 40 l 1
 85 68 l 1
 57 68 l 1
 57 40 l 1
85 40 m 1
 114 40 l 1
 114 68 l 1
 85 68 l 1
 85 40 l 1
114 40 m 1
 142 40 l 1
 142 68 l 1
 114 68 l 1
 114 40 l 1
142 40 m 1
 171 40 l 1
 171 68 l 1
 142 68 l 1
 142 40 l 1
228 40 m 1
 256 40 l 1
 256 68 l 1
 228 68 l 1
 228 40 l 1
85 11 m 1
 114 11 l 1
 114 40 l 1
 85 40 l 1
 85 11 l 1
114 11 m 1
 142 11 l 1
 142 40 l 1
 114 40 l 1
 114 11 l 1
142 11 m 1
 171 11 l 1
 171 40 l 1
 142 40 l 1
 142 11 l 1
171 11 m 1
 199 11 l 1
 199 40 l 1
 171 40 l 1
 171 11 l 1
199 11 m 1
 228 11 l 1
 228 40 l 1
 199 40 l 1
 199 11 l 1
EndSplineSet
Validated: 5
EndChar

StartChar: q
Encoding: 113 113 15
Width: 262
Flags: HW
LayerCount: 2
Fore
SplineSet
85 239 m 1
 114 239 l 1
 114 267 l 1
 85 267 l 1
 85 239 l 1
114 239 m 1
 142 239 l 1
 142 267 l 1
 114 267 l 1
 114 239 l 1
142 239 m 1
 171 239 l 1
 171 267 l 1
 142 267 l 1
 142 239 l 1
171 239 m 1
 199 239 l 1
 199 267 l 1
 171 267 l 1
 171 239 l 1
228 239 m 1
 256 239 l 1
 256 267 l 1
 228 267 l 1
 228 239 l 1
57 210 m 1
 85 210 l 1
 85 239 l 1
 57 239 l 1
 57 210 l 1
85 210 m 1
 114 210 l 1
 114 239 l 1
 85 239 l 1
 85 210 l 1
142 210 m 1
 171 210 l 1
 171 239 l 1
 142 239 l 1
 142 210 l 1
171 210 m 1
 199 210 l 1
 199 239 l 1
 171 239 l 1
 171 210 l 1
199 210 m 1
 228 210 l 1
 228 239 l 1
 199 239 l 1
 199 210 l 1
28 182 m 1
 57 182 l 1
 57 210 l 1
 28 210 l 1
 28 182 l 1
57 182 m 1
 85 182 l 1
 85 210 l 1
 57 210 l 1
 57 182 l 1
171 182 m 1
 199 182 l 1
 199 210 l 1
 171 210 l 1
 171 182 l 1
199 182 m 1
 228 182 l 1
 228 210 l 1
 199 210 l 1
 199 182 l 1
28 154 m 1
 57 154 l 1
 57 182 l 1
 28 182 l 1
 28 154 l 1
57 154 m 1
 85 154 l 1
 85 182 l 1
 57 182 l 1
 57 154 l 1
171 154 m 1
 199 154 l 1
 199 182 l 1
 171 182 l 1
 171 154 l 1
199 154 m 1
 228 154 l 1
 228 182 l 1
 199 182 l 1
 199 154 l 1
28 125 m 1
 57 125 l 1
 57 154 l 1
 28 154 l 1
 28 125 l 1
57 125 m 1
 85 125 l 1
 85 154 l 1
 57 154 l 1
 57 125 l 1
171 125 m 1
 199 125 l 1
 199 154 l 1
 171 154 l 1
 171 125 l 1
199 125 m 1
 228 125 l 1
 228 154 l 1
 199 154 l 1
 199 125 l 1
28 97 m 1
 57 97 l 1
 57 125 l 1
 28 125 l 1
 28 97 l 1
57 97 m 1
 85 97 l 1
 85 125 l 1
 57 125 l 1
 57 97 l 1
85 97 m 1
 114 97 l 1
 114 125 l 1
 85 125 l 1
 85 97 l 1
171 97 m 1
 199 97 l 1
 199 125 l 1
 171 125 l 1
 171 97 l 1
199 97 m 1
 228 97 l 1
 228 125 l 1
 199 125 l 1
 199 97 l 1
28 68 m 1
 57 68 l 1
 57 97 l 1
 28 97 l 1
 28 68 l 1
57 68 m 1
 85 68 l 1
 85 97 l 1
 57 97 l 1
 57 68 l 1
85 68 m 1
 114 68 l 1
 114 97 l 1
 85 97 l 1
 85 68 l 1
142 68 m 1
 171 68 l 1
 171 97 l 1
 142 97 l 1
 142 68 l 1
171 68 m 1
 199 68 l 1
 199 97 l 1
 171 97 l 1
 171 68 l 1
199 68 m 1
 228 68 l 1
 228 97 l 1
 199 97 l 1
 199 68 l 1
57 40 m 1
 85 40 l 1
 85 68 l 1
 57 68 l 1
 57 40 l 1
85 40 m 1
 114 40 l 1
 114 68 l 1
 85 68 l 1
 85 40 l 1
114 40 m 1
 142 40 l 1
 142 68 l 1
 114 68 l 1
 114 40 l 1
171 40 m 1
 199 40 l 1
 199 68 l 1
 171 68 l 1
 171 40 l 1
199 40 m 1
 228 40 l 1
 228 68 l 1
 199 68 l 1
 199 40 l 1
171 11 m 1
 199 11 l 1
 199 40 l 1
 171 40 l 1
 171 11 l 1
199 11 m 1
 228 11 l 1
 228 40 l 1
 199 40 l 1
 199 11 l 1
171 -17 m 1
 199 -17 l 1
 199 11 l 1
 171 11 l 1
 171 -17 l 1
199 -17 m 1
 228 -17 l 1
 228 11 l 1
 199 11 l 1
 199 -17 l 1
171 -46 m 1
 199 -46 l 1
 199 -17 l 1
 171 -17 l 1
 171 -46 l 1
199 -46 m 1
 228 -46 l 1
 228 -17 l 1
 199 -17 l 1
 199 -46 l 1
142 -74 m 1
 171 -74 l 1
 171 -46 l 1
 142 -46 l 1
 142 -74 l 1
171 -74 m 1
 199 -74 l 1
 199 -46 l 1
 171 -46 l 1
 171 -74 l 1
199 -74 m 1
 228 -74 l 1
 228 -46 l 1
 199 -46 l 1
 199 -74 l 1
228 -74 m 1
 256 -74 l 1
 256 -46 l 1
 228 -46 l 1
 228 -74 l 1
EndSplineSet
Validated: 5
EndChar

StartChar: u
Encoding: 117 117 16
Width: 262
Flags: HW
LayerCount: 2
Fore
SplineSet
85 239 m 1
 114 239 l 1
 114 267 l 1
 85 267 l 1
 85 239 l 1
199 239 m 1
 228 239 l 1
 228 267 l 1
 199 267 l 1
 199 239 l 1
28 210 m 1
 57 210 l 1
 57 239 l 1
 28 239 l 1
 28 210 l 1
57 210 m 1
 85 210 l 1
 85 239 l 1
 57 239 l 1
 57 210 l 1
85 210 m 1
 114 210 l 1
 114 239 l 1
 85 239 l 1
 85 210 l 1
142 210 m 1
 171 210 l 1
 171 239 l 1
 142 239 l 1
 142 210 l 1
171 210 m 1
 199 210 l 1
 199 239 l 1
 171 239 l 1
 171 210 l 1
199 210 m 1
 228 210 l 1
 228 239 l 1
 199 239 l 1
 199 210 l 1
57 182 m 1
 85 182 l 1
 85 210 l 1
 57 210 l 1
 57 182 l 1
85 182 m 1
 114 182 l 1
 114 210 l 1
 85 210 l 1
 85 182 l 1
171 182 m 1
 199 182 l 1
 199 210 l 1
 171 210 l 1
 171 182 l 1
199 182 m 1
 228 182 l 1
 228 210 l 1
 199 210 l 1
 199 182 l 1
57 154 m 1
 85 154 l 1
 85 182 l 1
 57 182 l 1
 57 154 l 1
85 154 m 1
 114 154 l 1
 114 182 l 1
 85 182 l 1
 85 154 l 1
171 154 m 1
 199 154 l 1
 199 182 l 1
 171 182 l 1
 171 154 l 1
199 154 m 1
 228 154 l 1
 228 182 l 1
 199 182 l 1
 199 154 l 1
57 125 m 1
 85 125 l 1
 85 154 l 1
 57 154 l 1
 57 125 l 1
85 125 m 1
 114 125 l 1
 114 154 l 1
 85 154 l 1
 85 125 l 1
171 125 m 1
 199 125 l 1
 199 154 l 1
 171 154 l 1
 171 125 l 1
199 125 m 1
 228 125 l 1
 228 154 l 1
 199 154 l 1
 199 125 l 1
57 97 m 1
 85 97 l 1
 85 125 l 1
 57 125 l 1
 57 97 l 1
85 97 m 1
 114 97 l 1
 114 125 l 1
 85 125 l 1
 85 97 l 1
171 97 m 1
 199 97 l 1
 199 125 l 1
 171 125 l 1
 171 97 l 1
199 97 m 1
 228 97 l 1
 228 125 l 1
 199 125 l 1
 199 97 l 1
57 68 m 1
 85 68 l 1
 85 97 l 1
 57 97 l 1
 57 68 l 1
85 68 m 1
 114 68 l 1
 114 97 l 1
 85 97 l 1
 85 68 l 1
171 68 m 1
 199 68 l 1
 199 97 l 1
 171 97 l 1
 171 68 l 1
199 68 m 1
 228 68 l 1
 228 97 l 1
 199 97 l 1
 199 68 l 1
57 40 m 1
 85 40 l 1
 85 68 l 1
 57 68 l 1
 57 40 l 1
85 40 m 1
 114 40 l 1
 114 68 l 1
 85 68 l 1
 85 40 l 1
114 40 m 1
 142 40 l 1
 142 68 l 1
 114 68 l 1
 114 40 l 1
171 40 m 1
 199 40 l 1
 199 68 l 1
 171 68 l 1
 171 40 l 1
199 40 m 1
 228 40 l 1
 228 68 l 1
 199 68 l 1
 199 40 l 1
85 11 m 1
 114 11 l 1
 114 40 l 1
 85 40 l 1
 85 11 l 1
114 11 m 1
 142 11 l 1
 142 40 l 1
 114 40 l 1
 114 11 l 1
142 11 m 1
 171 11 l 1
 171 40 l 1
 142 40 l 1
 142 11 l 1
171 11 m 1
 199 11 l 1
 199 40 l 1
 171 40 l 1
 171 11 l 1
228 11 m 1
 256 11 l 1
 256 40 l 1
 228 40 l 1
 228 11 l 1
EndSplineSet
Validated: 5
EndChar

StartChar: i
Encoding: 105 105 17
Width: 262
Flags: HW
LayerCount: 2
Fore
SplineSet
114 296 m 1
 142 296 l 1
 142 324 l 1
 114 324 l 1
 114 296 l 1
142 296 m 1
 171 296 l 1
 171 324 l 1
 142 324 l 1
 142 296 l 1
114 267 m 1
 142 267 l 1
 142 296 l 1
 114 296 l 1
 114 267 l 1
142 267 m 1
 171 267 l 1
 171 296 l 1
 142 296 l 1
 142 267 l 1
142 210 m 1
 171 210 l 1
 171 239 l 1
 142 239 l 1
 142 210 l 1
85 182 m 1
 114 182 l 1
 114 210 l 1
 85 210 l 1
 85 182 l 1
114 182 m 1
 142 182 l 1
 142 210 l 1
 114 210 l 1
 114 182 l 1
142 182 m 1
 171 182 l 1
 171 210 l 1
 142 210 l 1
 142 182 l 1
114 154 m 1
 142 154 l 1
 142 182 l 1
 114 182 l 1
 114 154 l 1
142 154 m 1
 171 154 l 1
 171 182 l 1
 142 182 l 1
 142 154 l 1
114 125 m 1
 142 125 l 1
 142 154 l 1
 114 154 l 1
 114 125 l 1
142 125 m 1
 171 125 l 1
 171 154 l 1
 142 154 l 1
 142 125 l 1
114 97 m 1
 142 97 l 1
 142 125 l 1
 114 125 l 1
 114 97 l 1
142 97 m 1
 171 97 l 1
 171 125 l 1
 142 125 l 1
 142 97 l 1
114 68 m 1
 142 68 l 1
 142 97 l 1
 114 97 l 1
 114 68 l 1
142 68 m 1
 171 68 l 1
 171 97 l 1
 142 97 l 1
 142 68 l 1
114 40 m 1
 142 40 l 1
 142 68 l 1
 114 68 l 1
 114 40 l 1
142 40 m 1
 171 40 l 1
 171 68 l 1
 142 68 l 1
 142 40 l 1
85 11 m 1
 114 11 l 1
 114 40 l 1
 85 40 l 1
 85 11 l 1
114 11 m 1
 142 11 l 1
 142 40 l 1
 114 40 l 1
 114 11 l 1
142 11 m 1
 171 11 l 1
 171 40 l 1
 142 40 l 1
 142 11 l 1
171 11 m 1
 199 11 l 1
 199 40 l 1
 171 40 l 1
 171 11 l 1
EndSplineSet
Validated: 5
EndChar

StartChar: c
Encoding: 99 99 18
Width: 262
Flags: HW
LayerCount: 2
Fore
SplineSet
85 239 m 1
 114 239 l 1
 114 267 l 1
 85 267 l 1
 85 239 l 1
114 239 m 1
 142 239 l 1
 142 267 l 1
 114 267 l 1
 114 239 l 1
142 239 m 1
 171 239 l 1
 171 267 l 1
 142 267 l 1
 142 239 l 1
171 239 m 1
 199 239 l 1
 199 267 l 1
 171 267 l 1
 171 239 l 1
199 239 m 1
 228 239 l 1
 228 267 l 1
 199 267 l 1
 199 239 l 1
57 210 m 1
 85 210 l 1
 85 239 l 1
 57 239 l 1
 57 210 l 1
85 210 m 1
 114 210 l 1
 114 239 l 1
 85 239 l 1
 85 210 l 1
114 210 m 1
 142 210 l 1
 142 239 l 1
 114 239 l 1
 114 210 l 1
199 210 m 1
 228 210 l 1
 228 239 l 1
 199 239 l 1
 199 210 l 1
228 210 m 1
 256 210 l 1
 256 239 l 1
 228 239 l 1
 228 210 l 1
28 182 m 1
 57 182 l 1
 57 210 l 1
 28 210 l 1
 28 182 l 1
57 182 m 1
 85 182 l 1
 85 210 l 1
 57 210 l 1
 57 182 l 1
85 182 m 1
 114 182 l 1
 114 210 l 1
 85 210 l 1
 85 182 l 1
228 182 m 1
 256 182 l 1
 256 210 l 1
 228 210 l 1
 228 182 l 1
28 154 m 1
 57 154 l 1
 57 182 l 1
 28 182 l 1
 28 154 l 1
57 154 m 1
 85 154 l 1
 85 182 l 1
 57 182 l 1
 57 154 l 1
85 154 m 1
 114 154 l 1
 114 182 l 1
 85 182 l 1
 85 154 l 1
28 125 m 1
 57 125 l 1
 57 154 l 1
 28 154 l 1
 28 125 l 1
57 125 m 1
 85 125 l 1
 85 154 l 1
 57 154 l 1
 57 125 l 1
85 125 m 1
 114 125 l 1
 114 154 l 1
 85 154 l 1
 85 125 l 1
28 97 m 1
 57 97 l 1
 57 125 l 1
 28 125 l 1
 28 97 l 1
57 97 m 1
 85 97 l 1
 85 125 l 1
 57 125 l 1
 57 97 l 1
85 97 m 1
 114 97 l 1
 114 125 l 1
 85 125 l 1
 85 97 l 1
28 68 m 1
 57 68 l 1
 57 97 l 1
 28 97 l 1
 28 68 l 1
57 68 m 1
 85 68 l 1
 85 97 l 1
 57 97 l 1
 57 68 l 1
85 68 m 1
 114 68 l 1
 114 97 l 1
 85 97 l 1
 85 68 l 1
114 68 m 1
 142 68 l 1
 142 97 l 1
 114 97 l 1
 114 68 l 1
57 40 m 1
 85 40 l 1
 85 68 l 1
 57 68 l 1
 57 40 l 1
85 40 m 1
 114 40 l 1
 114 68 l 1
 85 68 l 1
 85 40 l 1
114 40 m 1
 142 40 l 1
 142 68 l 1
 114 68 l 1
 114 40 l 1
142 40 m 1
 171 40 l 1
 171 68 l 1
 142 68 l 1
 142 40 l 1
228 40 m 1
 256 40 l 1
 256 68 l 1
 228 68 l 1
 228 40 l 1
85 11 m 1
 114 11 l 1
 114 40 l 1
 85 40 l 1
 85 11 l 1
114 11 m 1
 142 11 l 1
 142 40 l 1
 114 40 l 1
 114 11 l 1
142 11 m 1
 171 11 l 1
 171 40 l 1
 142 40 l 1
 142 11 l 1
171 11 m 1
 199 11 l 1
 199 40 l 1
 171 40 l 1
 171 11 l 1
199 11 m 1
 228 11 l 1
 228 40 l 1
 199 40 l 1
 199 11 l 1
EndSplineSet
Validated: 5
EndChar

StartChar: k
Encoding: 107 107 19
Width: 262
Flags: HW
LayerCount: 2
Fore
SplineSet
85 324 m 1
 114 324 l 1
 114 353 l 1
 85 353 l 1
 85 324 l 1
28 296 m 1
 57 296 l 1
 57 324 l 1
 28 324 l 1
 28 296 l 1
57 296 m 1
 85 296 l 1
 85 324 l 1
 57 324 l 1
 57 296 l 1
85 296 m 1
 114 296 l 1
 114 324 l 1
 85 324 l 1
 85 296 l 1
57 267 m 1
 85 267 l 1
 85 296 l 1
 57 296 l 1
 57 267 l 1
85 267 m 1
 114 267 l 1
 114 296 l 1
 85 296 l 1
 85 267 l 1
57 239 m 1
 85 239 l 1
 85 267 l 1
 57 267 l 1
 57 239 l 1
85 239 m 1
 114 239 l 1
 114 267 l 1
 85 267 l 1
 85 239 l 1
171 239 m 1
 199 239 l 1
 199 267 l 1
 171 267 l 1
 171 239 l 1
199 239 m 1
 228 239 l 1
 228 267 l 1
 199 267 l 1
 199 239 l 1
228 239 m 1
 256 239 l 1
 256 267 l 1
 228 267 l 1
 228 239 l 1
57 210 m 1
 85 210 l 1
 85 239 l 1
 57 239 l 1
 57 210 l 1
85 210 m 1
 114 210 l 1
 114 239 l 1
 85 239 l 1
 85 210 l 1
171 210 m 1
 199 210 l 1
 199 239 l 1
 171 239 l 1
 171 210 l 1
199 210 m 1
 228 210 l 1
 228 239 l 1
 199 239 l 1
 199 210 l 1
57 182 m 1
 85 182 l 1
 85 210 l 1
 57 210 l 1
 57 182 l 1
85 182 m 1
 114 182 l 1
 114 210 l 1
 85 210 l 1
 85 182 l 1
142 182 m 1
 171 182 l 1
 171 210 l 1
 142 210 l 1
 142 182 l 1
171 182 m 1
 199 182 l 1
 199 210 l 1
 171 210 l 1
 171 182 l 1
57 154 m 1
 85 154 l 1
 85 182 l 1
 57 182 l 1
 57 154 l 1
85 154 m 1
 114 154 l 1
 114 182 l 1
 85 182 l 1
 85 154 l 1
114 154 m 1
 142 154 l 1
 142 182 l 1
 114 182 l 1
 114 154 l 1
142 154 m 1
 171 154 l 1
 171 182 l 1
 142 182 l 1
 142 154 l 1
57 125 m 1
 85 125 l 1
 85 154 l 1
 57 154 l 1
 57 125 l 1
85 125 m 1
 114 125 l 1
 114 154 l 1
 85 154 l 1
 85 125 l 1
114 125 m 1
 142 125 l 1
 142 154 l 1
 114 154 l 1
 114 125 l 1
142 125 m 1
 171 125 l 1
 171 154 l 1
 142 154 l 1
 142 125 l 1
57 97 m 1
 85 97 l 1
 85 125 l 1
 57 125 l 1
 57 97 l 1
85 97 m 1
 114 97 l 1
 114 125 l 1
 85 125 l 1
 85 97 l 1
114 97 m 1
 142 97 l 1
 142 125 l 1
 114 125 l 1
 114 97 l 1
142 97 m 1
 171 97 l 1
 171 125 l 1
 142 125 l 1
 142 97 l 1
171 97 m 1
 199 97 l 1
 199 125 l 1
 171 125 l 1
 171 97 l 1
57 68 m 1
 85 68 l 1
 85 97 l 1
 57 97 l 1
 57 68 l 1
85 68 m 1
 114 68 l 1
 114 97 l 1
 85 97 l 1
 85 68 l 1
142 68 m 1
 171 68 l 1
 171 97 l 1
 142 97 l 1
 142 68 l 1
171 68 m 1
 199 68 l 1
 199 97 l 1
 171 97 l 1
 171 68 l 1
199 68 m 1
 228 68 l 1
 228 97 l 1
 199 97 l 1
 199 68 l 1
57 40 m 1
 85 40 l 1
 85 68 l 1
 57 68 l 1
 57 40 l 1
85 40 m 1
 114 40 l 1
 114 68 l 1
 85 68 l 1
 85 40 l 1
171 40 m 1
 199 40 l 1
 199 68 l 1
 171 68 l 1
 171 40 l 1
199 40 m 1
 228 40 l 1
 228 68 l 1
 199 68 l 1
 199 40 l 1
228 40 m 1
 256 40 l 1
 256 68 l 1
 228 68 l 1
 228 40 l 1
28 11 m 1
 57 11 l 1
 57 40 l 1
 28 40 l 1
 28 11 l 1
57 11 m 1
 85 11 l 1
 85 40 l 1
 57 40 l 1
 57 11 l 1
85 11 m 1
 114 11 l 1
 114 40 l 1
 85 40 l 1
 85 11 l 1
114 11 m 1
 142 11 l 1
 142 40 l 1
 114 40 l 1
 114 11 l 1
199 11 m 1
 228 11 l 1
 228 40 l 1
 199 40 l 1
 199 11 l 1
228 11 m 1
 256 11 l 1
 256 40 l 1
 228 40 l 1
 228 11 l 1
EndSplineSet
Validated: 5
EndChar

StartChar: b
Encoding: 98 98 20
Width: 262
Flags: HW
LayerCount: 2
Fore
SplineSet
28 324 m 1
 57 324 l 1
 57 353 l 1
 28 353 l 1
 28 324 l 1
57 324 m 1
 85 324 l 1
 85 353 l 1
 57 353 l 1
 57 324 l 1
85 324 m 1
 114 324 l 1
 114 353 l 1
 85 353 l 1
 85 324 l 1
57 296 m 1
 85 296 l 1
 85 324 l 1
 57 324 l 1
 57 296 l 1
85 296 m 1
 114 296 l 1
 114 324 l 1
 85 324 l 1
 85 296 l 1
57 267 m 1
 85 267 l 1
 85 296 l 1
 57 296 l 1
 57 267 l 1
85 267 m 1
 114 267 l 1
 114 296 l 1
 85 296 l 1
 85 267 l 1
57 239 m 1
 85 239 l 1
 85 267 l 1
 57 267 l 1
 57 239 l 1
85 239 m 1
 114 239 l 1
 114 267 l 1
 85 267 l 1
 85 239 l 1
142 239 m 1
 171 239 l 1
 171 267 l 1
 142 267 l 1
 142 239 l 1
171 239 m 1
 199 239 l 1
 199 267 l 1
 171 267 l 1
 171 239 l 1
199 239 m 1
 228 239 l 1
 228 267 l 1
 199 267 l 1
 199 239 l 1
57 210 m 1
 85 210 l 1
 85 239 l 1
 57 239 l 1
 57 210 l 1
85 210 m 1
 114 210 l 1
 114 239 l 1
 85 239 l 1
 85 210 l 1
114 210 m 1
 142 210 l 1
 142 239 l 1
 114 239 l 1
 114 210 l 1
142 210 m 1
 171 210 l 1
 171 239 l 1
 142 239 l 1
 142 210 l 1
171 210 m 1
 199 210 l 1
 199 239 l 1
 171 239 l 1
 171 210 l 1
199 210 m 1
 228 210 l 1
 228 239 l 1
 199 239 l 1
 199 210 l 1
228 210 m 1
 256 210 l 1
 256 239 l 1
 228 239 l 1
 228 210 l 1
57 182 m 1
 85 182 l 1
 85 210 l 1
 57 210 l 1
 57 182 l 1
85 182 m 1
 114 182 l 1
 114 210 l 1
 85 210 l 1
 85 182 l 1
171 182 m 1
 199 182 l 1
 199 210 l 1
 171 210 l 1
 171 182 l 1
199 182 m 1
 228 182 l 1
 228 210 l 1
 199 210 l 1
 199 182 l 1
228 182 m 1
 256 182 l 1
 256 210 l 1
 228 210 l 1
 228 182 l 1
57 154 m 1
 85 154 l 1
 85 182 l 1
 57 182 l 1
 57 154 l 1
85 154 m 1
 114 154 l 1
 114 182 l 1
 85 182 l 1
 85 154 l 1
199 154 m 1
 228 154 l 1
 228 182 l 1
 199 182 l 1
 199 154 l 1
228 154 m 1
 256 154 l 1
 256 182 l 1
 228 182 l 1
 228 154 l 1
57 125 m 1
 85 125 l 1
 85 154 l 1
 57 154 l 1
 57 125 l 1
85 125 m 1
 114 125 l 1
 114 154 l 1
 85 154 l 1
 85 125 l 1
199 125 m 1
 228 125 l 1
 228 154 l 1
 199 154 l 1
 199 125 l 1
228 125 m 1
 256 125 l 1
 256 154 l 1
 228 154 l 1
 228 125 l 1
57 97 m 1
 85 97 l 1
 85 125 l 1
 57 125 l 1
 57 97 l 1
85 97 m 1
 114 97 l 1
 114 125 l 1
 85 125 l 1
 85 97 l 1
199 97 m 1
 228 97 l 1
 228 125 l 1
 199 125 l 1
 199 97 l 1
228 97 m 1
 256 97 l 1
 256 125 l 1
 228 125 l 1
 228 97 l 1
57 68 m 1
 85 68 l 1
 85 97 l 1
 57 97 l 1
 57 68 l 1
85 68 m 1
 114 68 l 1
 114 97 l 1
 85 97 l 1
 85 68 l 1
199 68 m 1
 228 68 l 1
 228 97 l 1
 199 97 l 1
 199 68 l 1
228 68 m 1
 256 68 l 1
 256 97 l 1
 228 97 l 1
 228 68 l 1
57 40 m 1
 85 40 l 1
 85 68 l 1
 57 68 l 1
 57 40 l 1
85 40 m 1
 114 40 l 1
 114 68 l 1
 85 68 l 1
 85 40 l 1
114 40 m 1
 142 40 l 1
 142 68 l 1
 114 68 l 1
 114 40 l 1
171 40 m 1
 199 40 l 1
 199 68 l 1
 171 68 l 1
 171 40 l 1
199 40 m 1
 228 40 l 1
 228 68 l 1
 199 68 l 1
 199 40 l 1
57 11 m 1
 85 11 l 1
 85 40 l 1
 57 40 l 1
 57 11 l 1
85 11 m 1
 114 11 l 1
 114 40 l 1
 85 40 l 1
 85 11 l 1
114 11 m 1
 142 11 l 1
 142 40 l 1
 114 40 l 1
 114 11 l 1
142 11 m 1
 171 11 l 1
 171 40 l 1
 142 40 l 1
 142 11 l 1
171 11 m 1
 199 11 l 1
 199 40 l 1
 171 40 l 1
 171 11 l 1
EndSplineSet
Validated: 5
EndChar

StartChar: r
Encoding: 114 114 21
Width: 262
Flags: HW
LayerCount: 2
Fore
SplineSet
85 239 m 1
 114 239 l 1
 114 267 l 1
 85 267 l 1
 85 239 l 1
171 239 m 1
 199 239 l 1
 199 267 l 1
 171 267 l 1
 171 239 l 1
199 239 m 1
 228 239 l 1
 228 267 l 1
 199 267 l 1
 199 239 l 1
228 239 m 1
 256 239 l 1
 256 267 l 1
 228 267 l 1
 228 239 l 1
28 210 m 1
 57 210 l 1
 57 239 l 1
 28 239 l 1
 28 210 l 1
57 210 m 1
 85 210 l 1
 85 239 l 1
 57 239 l 1
 57 210 l 1
85 210 m 1
 114 210 l 1
 114 239 l 1
 85 239 l 1
 85 210 l 1
142 210 m 1
 171 210 l 1
 171 239 l 1
 142 239 l 1
 142 210 l 1
199 210 m 1
 228 210 l 1
 228 239 l 1
 199 239 l 1
 199 210 l 1
228 210 m 1
 256 210 l 1
 256 239 l 1
 228 239 l 1
 228 210 l 1
57 182 m 1
 85 182 l 1
 85 210 l 1
 57 210 l 1
 57 182 l 1
85 182 m 1
 114 182 l 1
 114 210 l 1
 85 210 l 1
 85 182 l 1
114 182 m 1
 142 182 l 1
 142 210 l 1
 114 210 l 1
 114 182 l 1
57 154 m 1
 85 154 l 1
 85 182 l 1
 57 182 l 1
 57 154 l 1
85 154 m 1
 114 154 l 1
 114 182 l 1
 85 182 l 1
 85 154 l 1
57 125 m 1
 85 125 l 1
 85 154 l 1
 57 154 l 1
 57 125 l 1
85 125 m 1
 114 125 l 1
 114 154 l 1
 85 154 l 1
 85 125 l 1
57 97 m 1
 85 97 l 1
 85 125 l 1
 57 125 l 1
 57 97 l 1
85 97 m 1
 114 97 l 1
 114 125 l 1
 85 125 l 1
 85 97 l 1
57 68 m 1
 85 68 l 1
 85 97 l 1
 57 97 l 1
 57 68 l 1
85 68 m 1
 114 68 l 1
 114 97 l 1
 85 97 l 1
 85 68 l 1
57 40 m 1
 85 40 l 1
 85 68 l 1
 57 68 l 1
 57 40 l 1
85 40 m 1
 114 40 l 1
 114 68 l 1
 85 68 l 1
 85 40 l 1
28 11 m 1
 57 11 l 1
 57 40 l 1
 28 40 l 1
 28 11 l 1
57 11 m 1
 85 11 l 1
 85 40 l 1
 57 40 l 1
 57 11 l 1
85 11 m 1
 114 11 l 1
 114 40 l 1
 85 40 l 1
 85 11 l 1
114 11 m 1
 142 11 l 1
 142 40 l 1
 114 40 l 1
 114 11 l 1
EndSplineSet
Validated: 5
EndChar

StartChar: o
Encoding: 111 111 22
Width: 262
Flags: W
LayerCount: 2
Fore
SplineSet
85 239 m 1
 114 239 l 1
 114 267 l 1
 85 267 l 1
 85 239 l 1
114 239 m 1
 142 239 l 1
 142 267 l 1
 114 267 l 1
 114 239 l 1
142 239 m 1
 171 239 l 1
 171 267 l 1
 142 267 l 1
 142 239 l 1
171 239 m 1
 199 239 l 1
 199 267 l 1
 171 267 l 1
 171 239 l 1
57 210 m 1
 85 210 l 1
 85 239 l 1
 57 239 l 1
 57 210 l 1
142 210 m 1
 171 210 l 1
 171 239 l 1
 142 239 l 1
 142 210 l 1
171 210 m 1
 199 210 l 1
 199 239 l 1
 171 239 l 1
 171 210 l 1
199 210 m 1
 228 210 l 1
 228 239 l 1
 199 239 l 1
 199 210 l 1
28 182 m 1
 57 182 l 1
 57 210 l 1
 28 210 l 1
 28 182 l 1
57 182 m 1
 85 182 l 1
 85 210 l 1
 57 210 l 1
 57 182 l 1
171 182 m 1
 199 182 l 1
 199 210 l 1
 171 210 l 1
 171 182 l 1
199 182 m 1
 228 182 l 1
 228 210 l 1
 199 210 l 1
 199 182 l 1
228 182 m 1
 256 182 l 1
 256 210 l 1
 228 210 l 1
 228 182 l 1
28 154 m 1
 57 154 l 1
 57 182 l 1
 28 182 l 1
 28 154 l 1
57 154 m 1
 85 154 l 1
 85 182 l 1
 57 182 l 1
 57 154 l 1
199 154 m 1
 228 154 l 1
 228 182 l 1
 199 182 l 1
 199 154 l 1
228 154 m 1
 256 154 l 1
 256 182 l 1
 228 182 l 1
 228 154 l 1
28 125 m 1
 57 125 l 1
 57 154 l 1
 28 154 l 1
 28 125 l 1
57 125 m 1
 85 125 l 1
 85 154 l 1
 57 154 l 1
 57 125 l 1
199 125 m 1
 228 125 l 1
 228 154 l 1
 199 154 l 1
 199 125 l 1
228 125 m 1
 256 125 l 1
 256 154 l 1
 228 154 l 1
 228 125 l 1
28 97 m 1
 57 97 l 1
 57 125 l 1
 28 125 l 1
 28 97 l 1
57 97 m 1
 85 97 l 1
 85 125 l 1
 57 125 l 1
 57 97 l 1
199 97 m 1
 228 97 l 1
 228 125 l 1
 199 125 l 1
 199 97 l 1
228 97 m 1
 256 97 l 1
 256 125 l 1
 228 125 l 1
 228 97 l 1
28 68 m 1
 57 68 l 1
 57 97 l 1
 28 97 l 1
 28 68 l 1
57 68 m 1
 85 68 l 1
 85 97 l 1
 57 97 l 1
 57 68 l 1
85 68 m 1
 114 68 l 1
 114 97 l 1
 85 97 l 1
 85 68 l 1
199 68 m 1
 228 68 l 1
 228 97 l 1
 199 97 l 1
 199 68 l 1
228 68 m 1
 256 68 l 1
 256 97 l 1
 228 97 l 1
 228 68 l 1
57 40 m 1
 85 40 l 1
 85 68 l 1
 57 68 l 1
 57 40 l 1
85 40 m 1
 114 40 l 1
 114 68 l 1
 85 68 l 1
 85 40 l 1
114 40 m 1
 142 40 l 1
 142 68 l 1
 114 68 l 1
 114 40 l 1
171 40 m 1
 199 40 l 1
 199 68 l 1
 171 68 l 1
 171 40 l 1
199 40 m 1
 228 40 l 1
 228 68 l 1
 199 68 l 1
 199 40 l 1
85 11 m 1
 114 11 l 1
 114 40 l 1
 85 40 l 1
 85 11 l 1
114 11 m 1
 142 11 l 1
 142 40 l 1
 114 40 l 1
 114 11 l 1
142 11 m 1
 171 11 l 1
 171 40 l 1
 142 40 l 1
 142 11 l 1
171 11 m 1
 199 11 l 1
 199 40 l 1
 171 40 l 1
 171 11 l 1
EndSplineSet
Validated: 5
EndChar

StartChar: w
Encoding: 119 119 23
Width: 262
Flags: HW
LayerCount: 2
Fore
SplineSet
28 210 m 1
 57 210 l 1
 57 239 l 1
 28 239 l 1
 28 210 l 1
57 210 m 1
 85 210 l 1
 85 239 l 1
 57 239 l 1
 57 210 l 1
85 210 m 1
 114 210 l 1
 114 239 l 1
 85 239 l 1
 85 210 l 1
171 210 m 1
 199 210 l 1
 199 239 l 1
 171 239 l 1
 171 210 l 1
199 210 m 1
 228 210 l 1
 228 239 l 1
 199 239 l 1
 199 210 l 1
228 210 m 1
 256 210 l 1
 256 239 l 1
 228 239 l 1
 228 210 l 1
28 182 m 1
 57 182 l 1
 57 210 l 1
 28 210 l 1
 28 182 l 1
57 182 m 1
 85 182 l 1
 85 210 l 1
 57 210 l 1
 57 182 l 1
199 182 m 1
 228 182 l 1
 228 210 l 1
 199 210 l 1
 199 182 l 1
228 182 m 1
 256 182 l 1
 256 210 l 1
 228 210 l 1
 228 182 l 1
28 154 m 1
 57 154 l 1
 57 182 l 1
 28 182 l 1
 28 154 l 1
57 154 m 1
 85 154 l 1
 85 182 l 1
 57 182 l 1
 57 154 l 1
114 154 m 1
 142 154 l 1
 142 182 l 1
 114 182 l 1
 114 154 l 1
199 154 m 1
 228 154 l 1
 228 182 l 1
 199 182 l 1
 199 154 l 1
228 154 m 1
 256 154 l 1
 256 182 l 1
 228 182 l 1
 228 154 l 1
28 125 m 1
 57 125 l 1
 57 154 l 1
 28 154 l 1
 28 125 l 1
57 125 m 1
 85 125 l 1
 85 154 l 1
 57 154 l 1
 57 125 l 1
85 125 m 1
 114 125 l 1
 114 154 l 1
 85 154 l 1
 85 125 l 1
114 125 m 1
 142 125 l 1
 142 154 l 1
 114 154 l 1
 114 125 l 1
142 125 m 1
 171 125 l 1
 171 154 l 1
 142 154 l 1
 142 125 l 1
199 125 m 1
 228 125 l 1
 228 154 l 1
 199 154 l 1
 199 125 l 1
57 97 m 1
 85 97 l 1
 85 125 l 1
 57 125 l 1
 57 97 l 1
85 97 m 1
 114 97 l 1
 114 125 l 1
 85 125 l 1
 85 97 l 1
114 97 m 1
 142 97 l 1
 142 125 l 1
 114 125 l 1
 114 97 l 1
142 97 m 1
 171 97 l 1
 171 125 l 1
 142 125 l 1
 142 97 l 1
171 97 m 1
 199 97 l 1
 199 125 l 1
 171 125 l 1
 171 97 l 1
199 97 m 1
 228 97 l 1
 228 125 l 1
 199 125 l 1
 199 97 l 1
57 68 m 1
 85 68 l 1
 85 97 l 1
 57 97 l 1
 57 68 l 1
85 68 m 1
 114 68 l 1
 114 97 l 1
 85 97 l 1
 85 68 l 1
142 68 m 1
 171 68 l 1
 171 97 l 1
 142 97 l 1
 142 68 l 1
171 68 m 1
 199 68 l 1
 199 97 l 1
 171 97 l 1
 171 68 l 1
85 40 m 1
 114 40 l 1
 114 68 l 1
 85 68 l 1
 85 40 l 1
171 40 m 1
 199 40 l 1
 199 68 l 1
 171 68 l 1
 171 40 l 1
85 11 m 1
 114 11 l 1
 114 40 l 1
 85 40 l 1
 85 11 l 1
171 11 m 1
 199 11 l 1
 199 40 l 1
 171 40 l 1
 171 11 l 1
EndSplineSet
Validated: 5
EndChar

StartChar: n
Encoding: 110 110 24
Width: 262
Flags: HW
LayerCount: 2
Fore
SplineSet
85 239 m 1
 114 239 l 1
 114 267 l 1
 85 267 l 1
 85 239 l 1
142 239 m 1
 171 239 l 1
 171 267 l 1
 142 267 l 1
 142 239 l 1
171 239 m 1
 199 239 l 1
 199 267 l 1
 171 267 l 1
 171 239 l 1
28 210 m 1
 57 210 l 1
 57 239 l 1
 28 239 l 1
 28 210 l 1
57 210 m 1
 85 210 l 1
 85 239 l 1
 57 239 l 1
 57 210 l 1
85 210 m 1
 114 210 l 1
 114 239 l 1
 85 239 l 1
 85 210 l 1
114 210 m 1
 142 210 l 1
 142 239 l 1
 114 239 l 1
 114 210 l 1
171 210 m 1
 199 210 l 1
 199 239 l 1
 171 239 l 1
 171 210 l 1
199 210 m 1
 228 210 l 1
 228 239 l 1
 199 239 l 1
 199 210 l 1
57 182 m 1
 85 182 l 1
 85 210 l 1
 57 210 l 1
 57 182 l 1
85 182 m 1
 114 182 l 1
 114 210 l 1
 85 210 l 1
 85 182 l 1
171 182 m 1
 199 182 l 1
 199 210 l 1
 171 210 l 1
 171 182 l 1
199 182 m 1
 228 182 l 1
 228 210 l 1
 199 210 l 1
 199 182 l 1
57 154 m 1
 85 154 l 1
 85 182 l 1
 57 182 l 1
 57 154 l 1
85 154 m 1
 114 154 l 1
 114 182 l 1
 85 182 l 1
 85 154 l 1
171 154 m 1
 199 154 l 1
 199 182 l 1
 171 182 l 1
 171 154 l 1
199 154 m 1
 228 154 l 1
 228 182 l 1
 199 182 l 1
 199 154 l 1
57 125 m 1
 85 125 l 1
 85 154 l 1
 57 154 l 1
 57 125 l 1
85 125 m 1
 114 125 l 1
 114 154 l 1
 85 154 l 1
 85 125 l 1
171 125 m 1
 199 125 l 1
 199 154 l 1
 171 154 l 1
 171 125 l 1
199 125 m 1
 228 125 l 1
 228 154 l 1
 199 154 l 1
 199 125 l 1
57 97 m 1
 85 97 l 1
 85 125 l 1
 57 125 l 1
 57 97 l 1
85 97 m 1
 114 97 l 1
 114 125 l 1
 85 125 l 1
 85 97 l 1
171 97 m 1
 199 97 l 1
 199 125 l 1
 171 125 l 1
 171 97 l 1
199 97 m 1
 228 97 l 1
 228 125 l 1
 199 125 l 1
 199 97 l 1
57 68 m 1
 85 68 l 1
 85 97 l 1
 57 97 l 1
 57 68 l 1
85 68 m 1
 114 68 l 1
 114 97 l 1
 85 97 l 1
 85 68 l 1
171 68 m 1
 199 68 l 1
 199 97 l 1
 171 97 l 1
 171 68 l 1
199 68 m 1
 228 68 l 1
 228 97 l 1
 199 97 l 1
 199 68 l 1
57 40 m 1
 85 40 l 1
 85 68 l 1
 57 68 l 1
 57 40 l 1
85 40 m 1
 114 40 l 1
 114 68 l 1
 85 68 l 1
 85 40 l 1
171 40 m 1
 199 40 l 1
 199 68 l 1
 171 68 l 1
 171 40 l 1
199 40 m 1
 228 40 l 1
 228 68 l 1
 199 68 l 1
 199 40 l 1
28 11 m 1
 57 11 l 1
 57 40 l 1
 28 40 l 1
 28 11 l 1
57 11 m 1
 85 11 l 1
 85 40 l 1
 57 40 l 1
 57 11 l 1
85 11 m 1
 114 11 l 1
 114 40 l 1
 85 40 l 1
 85 11 l 1
142 11 m 1
 171 11 l 1
 171 40 l 1
 142 40 l 1
 142 11 l 1
171 11 m 1
 199 11 l 1
 199 40 l 1
 171 40 l 1
 171 11 l 1
199 11 m 1
 228 11 l 1
 228 40 l 1
 199 40 l 1
 199 11 l 1
228 11 m 1
 256 11 l 1
 256 40 l 1
 228 40 l 1
 228 11 l 1
EndSplineSet
Validated: 5
EndChar

StartChar: f
Encoding: 102 102 25
Width: 262
Flags: HW
LayerCount: 2
Fore
SplineSet
114 324 m 1
 142 324 l 1
 142 353 l 1
 114 353 l 1
 114 324 l 1
142 324 m 1
 171 324 l 1
 171 353 l 1
 142 353 l 1
 142 324 l 1
171 324 m 1
 199 324 l 1
 199 353 l 1
 171 353 l 1
 171 324 l 1
199 324 m 1
 228 324 l 1
 228 353 l 1
 199 353 l 1
 199 324 l 1
85 296 m 1
 114 296 l 1
 114 324 l 1
 85 324 l 1
 85 296 l 1
114 296 m 1
 142 296 l 1
 142 324 l 1
 114 324 l 1
 114 296 l 1
142 296 m 1
 171 296 l 1
 171 324 l 1
 142 324 l 1
 142 296 l 1
171 296 m 1
 199 296 l 1
 199 324 l 1
 171 324 l 1
 171 296 l 1
199 296 m 1
 228 296 l 1
 228 324 l 1
 199 324 l 1
 199 296 l 1
228 296 m 1
 256 296 l 1
 256 324 l 1
 228 324 l 1
 228 296 l 1
57 267 m 1
 85 267 l 1
 85 296 l 1
 57 296 l 1
 57 267 l 1
85 267 m 1
 114 267 l 1
 114 296 l 1
 85 296 l 1
 85 267 l 1
114 267 m 1
 142 267 l 1
 142 296 l 1
 114 296 l 1
 114 267 l 1
199 267 m 1
 228 267 l 1
 228 296 l 1
 199 296 l 1
 199 267 l 1
57 239 m 1
 85 239 l 1
 85 267 l 1
 57 267 l 1
 57 239 l 1
85 239 m 1
 114 239 l 1
 114 267 l 1
 85 267 l 1
 85 239 l 1
57 210 m 1
 85 210 l 1
 85 239 l 1
 57 239 l 1
 57 210 l 1
85 210 m 1
 114 210 l 1
 114 239 l 1
 85 239 l 1
 85 210 l 1
28 182 m 1
 57 182 l 1
 57 210 l 1
 28 210 l 1
 28 182 l 1
57 182 m 1
 85 182 l 1
 85 210 l 1
 57 210 l 1
 57 182 l 1
85 182 m 1
 114 182 l 1
 114 210 l 1
 85 210 l 1
 85 182 l 1
114 182 m 1
 142 182 l 1
 142 210 l 1
 114 210 l 1
 114 182 l 1
142 182 m 1
 171 182 l 1
 171 210 l 1
 142 210 l 1
 142 182 l 1
57 154 m 1
 85 154 l 1
 85 182 l 1
 57 182 l 1
 57 154 l 1
85 154 m 1
 114 154 l 1
 114 182 l 1
 85 182 l 1
 85 154 l 1
57 125 m 1
 85 125 l 1
 85 154 l 1
 57 154 l 1
 57 125 l 1
85 125 m 1
 114 125 l 1
 114 154 l 1
 85 154 l 1
 85 125 l 1
57 97 m 1
 85 97 l 1
 85 125 l 1
 57 125 l 1
 57 97 l 1
85 97 m 1
 114 97 l 1
 114 125 l 1
 85 125 l 1
 85 97 l 1
57 68 m 1
 85 68 l 1
 85 97 l 1
 57 97 l 1
 57 68 l 1
85 68 m 1
 114 68 l 1
 114 97 l 1
 85 97 l 1
 85 68 l 1
57 40 m 1
 85 40 l 1
 85 68 l 1
 57 68 l 1
 57 40 l 1
85 40 m 1
 114 40 l 1
 114 68 l 1
 85 68 l 1
 85 40 l 1
28 11 m 1
 57 11 l 1
 57 40 l 1
 28 40 l 1
 28 11 l 1
57 11 m 1
 85 11 l 1
 85 40 l 1
 57 40 l 1
 57 11 l 1
85 11 m 1
 114 11 l 1
 114 40 l 1
 85 40 l 1
 85 11 l 1
114 11 m 1
 142 11 l 1
 142 40 l 1
 114 40 l 1
 114 11 l 1
EndSplineSet
Validated: 5
EndChar

StartChar: x
Encoding: 120 120 26
Width: 262
Flags: W
LayerCount: 2
Fore
SplineSet
28 210 m 1
 57 210 l 1
 57 239 l 1
 28 239 l 1
 28 210 l 1
57 210 m 1
 85 210 l 1
 85 239 l 1
 57 239 l 1
 57 210 l 1
85 210 m 1
 114 210 l 1
 114 239 l 1
 85 239 l 1
 85 210 l 1
171 210 m 1
 199 210 l 1
 199 239 l 1
 171 239 l 1
 171 210 l 1
199 210 m 1
 228 210 l 1
 228 239 l 1
 199 239 l 1
 199 210 l 1
228 210 m 1
 256 210 l 1
 256 239 l 1
 228 239 l 1
 228 210 l 1
57 182 m 1
 85 182 l 1
 85 210 l 1
 57 210 l 1
 57 182 l 1
85 182 m 1
 114 182 l 1
 114 210 l 1
 85 210 l 1
 85 182 l 1
114 182 m 1
 142 182 l 1
 142 210 l 1
 114 210 l 1
 114 182 l 1
199 182 m 1
 228 182 l 1
 228 210 l 1
 199 210 l 1
 199 182 l 1
85 154 m 1
 114 154 l 1
 114 182 l 1
 85 182 l 1
 85 154 l 1
114 154 m 1
 142 154 l 1
 142 182 l 1
 114 182 l 1
 114 154 l 1
142 154 m 1
 171 154 l 1
 171 182 l 1
 142 182 l 1
 142 154 l 1
171 154 m 1
 199 154 l 1
 199 182 l 1
 171 182 l 1
 171 154 l 1
114 125 m 1
 142 125 l 1
 142 154 l 1
 114 154 l 1
 114 125 l 1
142 125 m 1
 171 125 l 1
 171 154 l 1
 142 154 l 1
 142 125 l 1
114 97 m 1
 142 97 l 1
 142 125 l 1
 114 125 l 1
 114 97 l 1
142 97 m 1
 171 97 l 1
 171 125 l 1
 142 125 l 1
 142 97 l 1
171 97 m 1
 199 97 l 1
 199 125 l 1
 171 125 l 1
 171 97 l 1
85 68 m 1
 114 68 l 1
 114 97 l 1
 85 97 l 1
 85 68 l 1
142 68 m 1
 171 68 l 1
 171 97 l 1
 142 97 l 1
 142 68 l 1
171 68 m 1
 199 68 l 1
 199 97 l 1
 171 97 l 1
 171 68 l 1
199 68 m 1
 228 68 l 1
 228 97 l 1
 199 97 l 1
 199 68 l 1
57 40 m 1
 85 40 l 1
 85 68 l 1
 57 68 l 1
 57 40 l 1
171 40 m 1
 199 40 l 1
 199 68 l 1
 171 68 l 1
 171 40 l 1
199 40 m 1
 228 40 l 1
 228 68 l 1
 199 68 l 1
 199 40 l 1
228 40 m 1
 256 40 l 1
 256 68 l 1
 228 68 l 1
 228 40 l 1
28 11 m 1
 57 11 l 1
 57 40 l 1
 28 40 l 1
 28 11 l 1
57 11 m 1
 85 11 l 1
 85 40 l 1
 57 40 l 1
 57 11 l 1
85 11 m 1
 114 11 l 1
 114 40 l 1
 85 40 l 1
 85 11 l 1
199 11 m 1
 228 11 l 1
 228 40 l 1
 199 40 l 1
 199 11 l 1
228 11 m 1
 256 11 l 1
 256 40 l 1
 228 40 l 1
 228 11 l 1
EndSplineSet
Validated: 5
EndChar

StartChar: J
Encoding: 74 74 27
Width: 262
Flags: HW
LayerCount: 2
Fore
SplineSet
85 324 m 1
 114 324 l 1
 114 353 l 1
 85 353 l 1
 85 324 l 1
114 324 m 1
 142 324 l 1
 142 353 l 1
 114 353 l 1
 114 324 l 1
142 324 m 1
 171 324 l 1
 171 353 l 1
 142 353 l 1
 142 324 l 1
171 324 m 1
 199 324 l 1
 199 353 l 1
 171 353 l 1
 171 324 l 1
114 296 m 1
 142 296 l 1
 142 324 l 1
 114 324 l 1
 114 296 l 1
142 296 m 1
 171 296 l 1
 171 324 l 1
 142 324 l 1
 142 296 l 1
114 267 m 1
 142 267 l 1
 142 296 l 1
 114 296 l 1
 114 267 l 1
142 267 m 1
 171 267 l 1
 171 296 l 1
 142 296 l 1
 142 267 l 1
114 239 m 1
 142 239 l 1
 142 267 l 1
 114 267 l 1
 114 239 l 1
142 239 m 1
 171 239 l 1
 171 267 l 1
 142 267 l 1
 142 239 l 1
114 210 m 1
 142 210 l 1
 142 239 l 1
 114 239 l 1
 114 210 l 1
142 210 m 1
 171 210 l 1
 171 239 l 1
 142 239 l 1
 142 210 l 1
114 182 m 1
 142 182 l 1
 142 210 l 1
 114 210 l 1
 114 182 l 1
142 182 m 1
 171 182 l 1
 171 210 l 1
 142 210 l 1
 142 182 l 1
114 154 m 1
 142 154 l 1
 142 182 l 1
 114 182 l 1
 114 154 l 1
142 154 m 1
 171 154 l 1
 171 182 l 1
 142 182 l 1
 142 154 l 1
114 125 m 1
 142 125 l 1
 142 154 l 1
 114 154 l 1
 114 125 l 1
142 125 m 1
 171 125 l 1
 171 154 l 1
 142 154 l 1
 142 125 l 1
114 97 m 1
 142 97 l 1
 142 125 l 1
 114 125 l 1
 114 97 l 1
142 97 m 1
 171 97 l 1
 171 125 l 1
 142 125 l 1
 142 97 l 1
114 68 m 1
 142 68 l 1
 142 97 l 1
 114 97 l 1
 114 68 l 1
142 68 m 1
 171 68 l 1
 171 97 l 1
 142 97 l 1
 142 68 l 1
85 40 m 1
 114 40 l 1
 114 68 l 1
 85 68 l 1
 85 40 l 1
114 40 m 1
 142 40 l 1
 142 68 l 1
 114 68 l 1
 114 40 l 1
142 40 m 1
 171 40 l 1
 171 68 l 1
 142 68 l 1
 142 40 l 1
85 11 m 1
 114 11 l 1
 114 40 l 1
 85 40 l 1
 85 11 l 1
114 11 m 1
 142 11 l 1
 142 40 l 1
 114 40 l 1
 114 11 l 1
85 -17 m 1
 114 -17 l 1
 114 11 l 1
 85 11 l 1
 85 -17 l 1
57 -46 m 1
 85 -46 l 1
 85 -17 l 1
 57 -17 l 1
 57 -46 l 1
EndSplineSet
Validated: 5
EndChar

StartChar: H
Encoding: 72 72 28
Width: 262
Flags: HW
LayerCount: 2
Fore
SplineSet
28 324 m 1
 57 324 l 1
 57 353 l 1
 28 353 l 1
 28 324 l 1
57 324 m 1
 85 324 l 1
 85 353 l 1
 57 353 l 1
 57 324 l 1
85 324 m 1
 114 324 l 1
 114 353 l 1
 85 353 l 1
 85 324 l 1
114 324 m 1
 142 324 l 1
 142 353 l 1
 114 353 l 1
 114 324 l 1
171 324 m 1
 199 324 l 1
 199 353 l 1
 171 353 l 1
 171 324 l 1
199 324 m 1
 228 324 l 1
 228 353 l 1
 199 353 l 1
 199 324 l 1
228 324 m 1
 256 324 l 1
 256 353 l 1
 228 353 l 1
 228 324 l 1
57 296 m 1
 85 296 l 1
 85 324 l 1
 57 324 l 1
 57 296 l 1
85 296 m 1
 114 296 l 1
 114 324 l 1
 85 324 l 1
 85 296 l 1
199 296 m 1
 228 296 l 1
 228 324 l 1
 199 324 l 1
 199 296 l 1
228 296 m 1
 256 296 l 1
 256 324 l 1
 228 324 l 1
 228 296 l 1
57 267 m 1
 85 267 l 1
 85 296 l 1
 57 296 l 1
 57 267 l 1
85 267 m 1
 114 267 l 1
 114 296 l 1
 85 296 l 1
 85 267 l 1
199 267 m 1
 228 267 l 1
 228 296 l 1
 199 296 l 1
 199 267 l 1
228 267 m 1
 256 267 l 1
 256 296 l 1
 228 296 l 1
 228 267 l 1
57 239 m 1
 85 239 l 1
 85 267 l 1
 57 267 l 1
 57 239 l 1
85 239 m 1
 114 239 l 1
 114 267 l 1
 85 267 l 1
 85 239 l 1
199 239 m 1
 228 239 l 1
 228 267 l 1
 199 267 l 1
 199 239 l 1
228 239 m 1
 256 239 l 1
 256 267 l 1
 228 267 l 1
 228 239 l 1
57 210 m 1
 85 210 l 1
 85 239 l 1
 57 239 l 1
 57 210 l 1
85 210 m 1
 114 210 l 1
 114 239 l 1
 85 239 l 1
 85 210 l 1
199 210 m 1
 228 210 l 1
 228 239 l 1
 199 239 l 1
 199 210 l 1
228 210 m 1
 256 210 l 1
 256 239 l 1
 228 239 l 1
 228 210 l 1
57 182 m 1
 85 182 l 1
 85 210 l 1
 57 210 l 1
 57 182 l 1
85 182 m 1
 114 182 l 1
 114 210 l 1
 85 210 l 1
 85 182 l 1
199 182 m 1
 228 182 l 1
 228 210 l 1
 199 210 l 1
 199 182 l 1
228 182 m 1
 256 182 l 1
 256 210 l 1
 228 210 l 1
 228 182 l 1
57 154 m 1
 85 154 l 1
 85 182 l 1
 57 182 l 1
 57 154 l 1
85 154 m 1
 114 154 l 1
 114 182 l 1
 85 182 l 1
 85 154 l 1
114 154 m 1
 142 154 l 1
 142 182 l 1
 114 182 l 1
 114 154 l 1
142 154 m 1
 171 154 l 1
 171 182 l 1
 142 182 l 1
 142 154 l 1
171 154 m 1
 199 154 l 1
 199 182 l 1
 171 182 l 1
 171 154 l 1
199 154 m 1
 228 154 l 1
 228 182 l 1
 199 182 l 1
 199 154 l 1
228 154 m 1
 256 154 l 1
 256 182 l 1
 228 182 l 1
 228 154 l 1
57 125 m 1
 85 125 l 1
 85 154 l 1
 57 154 l 1
 57 125 l 1
85 125 m 1
 114 125 l 1
 114 154 l 1
 85 154 l 1
 85 125 l 1
199 125 m 1
 228 125 l 1
 228 154 l 1
 199 154 l 1
 199 125 l 1
228 125 m 1
 256 125 l 1
 256 154 l 1
 228 154 l 1
 228 125 l 1
57 97 m 1
 85 97 l 1
 85 125 l 1
 57 125 l 1
 57 97 l 1
85 97 m 1
 114 97 l 1
 114 125 l 1
 85 125 l 1
 85 97 l 1
199 97 m 1
 228 97 l 1
 228 125 l 1
 199 125 l 1
 199 97 l 1
228 97 m 1
 256 97 l 1
 256 125 l 1
 228 125 l 1
 228 97 l 1
57 68 m 1
 85 68 l 1
 85 97 l 1
 57 97 l 1
 57 68 l 1
85 68 m 1
 114 68 l 1
 114 97 l 1
 85 97 l 1
 85 68 l 1
199 68 m 1
 228 68 l 1
 228 97 l 1
 199 97 l 1
 199 68 l 1
228 68 m 1
 256 68 l 1
 256 97 l 1
 228 97 l 1
 228 68 l 1
57 40 m 1
 85 40 l 1
 85 68 l 1
 57 68 l 1
 57 40 l 1
85 40 m 1
 114 40 l 1
 114 68 l 1
 85 68 l 1
 85 40 l 1
199 40 m 1
 228 40 l 1
 228 68 l 1
 199 68 l 1
 199 40 l 1
228 40 m 1
 256 40 l 1
 256 68 l 1
 228 68 l 1
 228 40 l 1
28 11 m 1
 57 11 l 1
 57 40 l 1
 28 40 l 1
 28 11 l 1
57 11 m 1
 85 11 l 1
 85 40 l 1
 57 40 l 1
 57 11 l 1
85 11 m 1
 114 11 l 1
 114 40 l 1
 85 40 l 1
 85 11 l 1
114 11 m 1
 142 11 l 1
 142 40 l 1
 114 40 l 1
 114 11 l 1
171 11 m 1
 199 11 l 1
 199 40 l 1
 171 40 l 1
 171 11 l 1
199 11 m 1
 228 11 l 1
 228 40 l 1
 199 40 l 1
 199 11 l 1
228 11 m 1
 256 11 l 1
 256 40 l 1
 228 40 l 1
 228 11 l 1
EndSplineSet
Validated: 5
EndChar

StartChar: E
Encoding: 69 69 29
Width: 262
Flags: W
LayerCount: 2
Fore
SplineSet
28 324 m 1
 57 324 l 1
 57 353 l 1
 28 353 l 1
 28 324 l 1
57 324 m 1
 85 324 l 1
 85 353 l 1
 57 353 l 1
 57 324 l 1
85 324 m 1
 114 324 l 1
 114 353 l 1
 85 353 l 1
 85 324 l 1
114 324 m 1
 142 324 l 1
 142 353 l 1
 114 353 l 1
 114 324 l 1
142 324 m 1
 171 324 l 1
 171 353 l 1
 142 353 l 1
 142 324 l 1
171 324 m 1
 199 324 l 1
 199 353 l 1
 171 353 l 1
 171 324 l 1
199 324 m 1
 228 324 l 1
 228 353 l 1
 199 353 l 1
 199 324 l 1
228 324 m 1
 256 324 l 1
 256 353 l 1
 228 353 l 1
 228 324 l 1
57 296 m 1
 85 296 l 1
 85 324 l 1
 57 324 l 1
 57 296 l 1
85 296 m 1
 114 296 l 1
 114 324 l 1
 85 324 l 1
 85 296 l 1
199 296 m 1
 228 296 l 1
 228 324 l 1
 199 324 l 1
 199 296 l 1
228 296 m 1
 256 296 l 1
 256 324 l 1
 228 324 l 1
 228 296 l 1
57 267 m 1
 85 267 l 1
 85 296 l 1
 57 296 l 1
 57 267 l 1
85 267 m 1
 114 267 l 1
 114 296 l 1
 85 296 l 1
 85 267 l 1
228 267 m 1
 256 267 l 1
 256 296 l 1
 228 296 l 1
 228 267 l 1
57 239 m 1
 85 239 l 1
 85 267 l 1
 57 267 l 1
 57 239 l 1
85 239 m 1
 114 239 l 1
 114 267 l 1
 85 267 l 1
 85 239 l 1
57 210 m 1
 85 210 l 1
 85 239 l 1
 57 239 l 1
 57 210 l 1
85 210 m 1
 114 210 l 1
 114 239 l 1
 85 239 l 1
 85 210 l 1
171 210 m 1
 199 210 l 1
 199 239 l 1
 171 239 l 1
 171 210 l 1
57 182 m 1
 85 182 l 1
 85 210 l 1
 57 210 l 1
 57 182 l 1
85 182 m 1
 114 182 l 1
 114 210 l 1
 85 210 l 1
 85 182 l 1
114 182 m 1
 142 182 l 1
 142 210 l 1
 114 210 l 1
 114 182 l 1
142 182 m 1
 171 182 l 1
 171 210 l 1
 142 210 l 1
 142 182 l 1
171 182 m 1
 199 182 l 1
 199 210 l 1
 171 210 l 1
 171 182 l 1
57 154 m 1
 85 154 l 1
 85 182 l 1
 57 182 l 1
 57 154 l 1
85 154 m 1
 114 154 l 1
 114 182 l 1
 85 182 l 1
 85 154 l 1
171 154 m 1
 199 154 l 1
 199 182 l 1
 171 182 l 1
 171 154 l 1
57 125 m 1
 85 125 l 1
 85 154 l 1
 57 154 l 1
 57 125 l 1
85 125 m 1
 114 125 l 1
 114 154 l 1
 85 154 l 1
 85 125 l 1
57 97 m 1
 85 97 l 1
 85 125 l 1
 57 125 l 1
 57 97 l 1
85 97 m 1
 114 97 l 1
 114 125 l 1
 85 125 l 1
 85 97 l 1
57 68 m 1
 85 68 l 1
 85 97 l 1
 57 97 l 1
 57 68 l 1
85 68 m 1
 114 68 l 1
 114 97 l 1
 85 97 l 1
 85 68 l 1
228 68 m 1
 256 68 l 1
 256 97 l 1
 228 97 l 1
 228 68 l 1
57 40 m 1
 85 40 l 1
 85 68 l 1
 57 68 l 1
 57 40 l 1
85 40 m 1
 114 40 l 1
 114 68 l 1
 85 68 l 1
 85 40 l 1
114 40 m 1
 142 40 l 1
 142 68 l 1
 114 68 l 1
 114 40 l 1
199 40 m 1
 228 40 l 1
 228 68 l 1
 199 68 l 1
 199 40 l 1
228 40 m 1
 256 40 l 1
 256 68 l 1
 228 68 l 1
 228 40 l 1
28 11 m 1
 57 11 l 1
 57 40 l 1
 28 40 l 1
 28 11 l 1
57 11 m 1
 85 11 l 1
 85 40 l 1
 57 40 l 1
 57 11 l 1
85 11 m 1
 114 11 l 1
 114 40 l 1
 85 40 l 1
 85 11 l 1
114 11 m 1
 142 11 l 1
 142 40 l 1
 114 40 l 1
 114 11 l 1
142 11 m 1
 171 11 l 1
 171 40 l 1
 142 40 l 1
 142 11 l 1
171 11 m 1
 199 11 l 1
 199 40 l 1
 171 40 l 1
 171 11 l 1
199 11 m 1
 228 11 l 1
 228 40 l 1
 199 40 l 1
 199 11 l 1
228 11 m 1
 256 11 l 1
 256 40 l 1
 228 40 l 1
 228 11 l 1
EndSplineSet
Validated: 5
EndChar

StartChar: Q
Encoding: 81 81 30
Width: 262
Flags: HW
LayerCount: 2
Fore
SplineSet
85 324 m 1
 114 324 l 1
 114 353 l 1
 85 353 l 1
 85 324 l 1
114 324 m 1
 142 324 l 1
 142 353 l 1
 114 353 l 1
 114 324 l 1
142 324 m 1
 171 324 l 1
 171 353 l 1
 142 353 l 1
 142 324 l 1
171 324 m 1
 199 324 l 1
 199 353 l 1
 171 353 l 1
 171 324 l 1
57 296 m 1
 85 296 l 1
 85 324 l 1
 57 324 l 1
 57 296 l 1
85 296 m 1
 114 296 l 1
 114 324 l 1
 85 324 l 1
 85 296 l 1
142 296 m 1
 171 296 l 1
 171 324 l 1
 142 324 l 1
 142 296 l 1
171 296 m 1
 199 296 l 1
 199 324 l 1
 171 324 l 1
 171 296 l 1
199 296 m 1
 228 296 l 1
 228 324 l 1
 199 324 l 1
 199 296 l 1
28 267 m 1
 57 267 l 1
 57 296 l 1
 28 296 l 1
 28 267 l 1
57 267 m 1
 85 267 l 1
 85 296 l 1
 57 296 l 1
 57 267 l 1
171 267 m 1
 199 267 l 1
 199 296 l 1
 171 296 l 1
 171 267 l 1
199 267 m 1
 228 267 l 1
 228 296 l 1
 199 296 l 1
 199 267 l 1
228 267 m 1
 256 267 l 1
 256 296 l 1
 228 296 l 1
 228 267 l 1
28 239 m 1
 57 239 l 1
 57 267 l 1
 28 267 l 1
 28 239 l 1
57 239 m 1
 85 239 l 1
 85 267 l 1
 57 267 l 1
 57 239 l 1
199 239 m 1
 228 239 l 1
 228 267 l 1
 199 267 l 1
 199 239 l 1
228 239 m 1
 256 239 l 1
 256 267 l 1
 228 267 l 1
 228 239 l 1
28 210 m 1
 57 210 l 1
 57 239 l 1
 28 239 l 1
 28 210 l 1
57 210 m 1
 85 210 l 1
 85 239 l 1
 57 239 l 1
 57 210 l 1
199 210 m 1
 228 210 l 1
 228 239 l 1
 199 239 l 1
 199 210 l 1
228 210 m 1
 256 210 l 1
 256 239 l 1
 228 239 l 1
 228 210 l 1
28 182 m 1
 57 182 l 1
 57 210 l 1
 28 210 l 1
 28 182 l 1
57 182 m 1
 85 182 l 1
 85 210 l 1
 57 210 l 1
 57 182 l 1
199 182 m 1
 228 182 l 1
 228 210 l 1
 199 210 l 1
 199 182 l 1
228 182 m 1
 256 182 l 1
 256 210 l 1
 228 210 l 1
 228 182 l 1
28 154 m 1
 57 154 l 1
 57 182 l 1
 28 182 l 1
 28 154 l 1
57 154 m 1
 85 154 l 1
 85 182 l 1
 57 182 l 1
 57 154 l 1
199 154 m 1
 228 154 l 1
 228 182 l 1
 199 182 l 1
 199 154 l 1
228 154 m 1
 256 154 l 1
 256 182 l 1
 228 182 l 1
 228 154 l 1
28 125 m 1
 57 125 l 1
 57 154 l 1
 28 154 l 1
 28 125 l 1
57 125 m 1
 85 125 l 1
 85 154 l 1
 57 154 l 1
 57 125 l 1
199 125 m 1
 228 125 l 1
 228 154 l 1
 199 154 l 1
 199 125 l 1
228 125 m 1
 256 125 l 1
 256 154 l 1
 228 154 l 1
 228 125 l 1
28 97 m 1
 57 97 l 1
 57 125 l 1
 28 125 l 1
 28 97 l 1
57 97 m 1
 85 97 l 1
 85 125 l 1
 57 125 l 1
 57 97 l 1
85 97 m 1
 114 97 l 1
 114 125 l 1
 85 125 l 1
 85 97 l 1
199 97 m 1
 228 97 l 1
 228 125 l 1
 199 125 l 1
 199 97 l 1
228 97 m 1
 256 97 l 1
 256 125 l 1
 228 125 l 1
 228 97 l 1
28 68 m 1
 57 68 l 1
 57 97 l 1
 28 97 l 1
 28 68 l 1
57 68 m 1
 85 68 l 1
 85 97 l 1
 57 97 l 1
 57 68 l 1
85 68 m 1
 114 68 l 1
 114 97 l 1
 85 97 l 1
 85 68 l 1
142 68 m 1
 171 68 l 1
 171 97 l 1
 142 97 l 1
 142 68 l 1
199 68 m 1
 228 68 l 1
 228 97 l 1
 199 97 l 1
 199 68 l 1
228 68 m 1
 256 68 l 1
 256 97 l 1
 228 97 l 1
 228 68 l 1
57 40 m 1
 85 40 l 1
 85 68 l 1
 57 68 l 1
 57 40 l 1
85 40 m 1
 114 40 l 1
 114 68 l 1
 85 68 l 1
 85 40 l 1
142 40 m 1
 171 40 l 1
 171 68 l 1
 142 68 l 1
 142 40 l 1
171 40 m 1
 199 40 l 1
 199 68 l 1
 171 68 l 1
 171 40 l 1
199 40 m 1
 228 40 l 1
 228 68 l 1
 199 68 l 1
 199 40 l 1
85 11 m 1
 114 11 l 1
 114 40 l 1
 85 40 l 1
 85 11 l 1
114 11 m 1
 142 11 l 1
 142 40 l 1
 114 40 l 1
 114 11 l 1
142 11 m 1
 171 11 l 1
 171 40 l 1
 142 40 l 1
 142 11 l 1
171 11 m 1
 199 11 l 1
 199 40 l 1
 171 40 l 1
 171 11 l 1
171 -17 m 1
 199 -17 l 1
 199 11 l 1
 171 11 l 1
 171 -17 l 1
199 -17 m 1
 228 -17 l 1
 228 11 l 1
 199 11 l 1
 199 -17 l 1
228 -46 m 1
 256 -46 l 1
 256 -17 l 1
 228 -17 l 1
 228 -46 l 1
EndSplineSet
Validated: 5
EndChar

StartChar: U
Encoding: 85 85 31
Width: 262
Flags: HW
LayerCount: 2
Fore
SplineSet
28 324 m 1
 57 324 l 1
 57 353 l 1
 28 353 l 1
 28 324 l 1
57 324 m 1
 85 324 l 1
 85 353 l 1
 57 353 l 1
 57 324 l 1
85 324 m 1
 114 324 l 1
 114 353 l 1
 85 353 l 1
 85 324 l 1
114 324 m 1
 142 324 l 1
 142 353 l 1
 114 353 l 1
 114 324 l 1
199 324 m 1
 228 324 l 1
 228 353 l 1
 199 353 l 1
 199 324 l 1
228 324 m 1
 256 324 l 1
 256 353 l 1
 228 353 l 1
 228 324 l 1
57 296 m 1
 85 296 l 1
 85 324 l 1
 57 324 l 1
 57 296 l 1
85 296 m 1
 114 296 l 1
 114 324 l 1
 85 324 l 1
 85 296 l 1
228 296 m 1
 256 296 l 1
 256 324 l 1
 228 324 l 1
 228 296 l 1
57 267 m 1
 85 267 l 1
 85 296 l 1
 57 296 l 1
 57 267 l 1
85 267 m 1
 114 267 l 1
 114 296 l 1
 85 296 l 1
 85 267 l 1
228 267 m 1
 256 267 l 1
 256 296 l 1
 228 296 l 1
 228 267 l 1
57 239 m 1
 85 239 l 1
 85 267 l 1
 57 267 l 1
 57 239 l 1
85 239 m 1
 114 239 l 1
 114 267 l 1
 85 267 l 1
 85 239 l 1
228 239 m 1
 256 239 l 1
 256 267 l 1
 228 267 l 1
 228 239 l 1
57 210 m 1
 85 210 l 1
 85 239 l 1
 57 239 l 1
 57 210 l 1
85 210 m 1
 114 210 l 1
 114 239 l 1
 85 239 l 1
 85 210 l 1
228 210 m 1
 256 210 l 1
 256 239 l 1
 228 239 l 1
 228 210 l 1
57 182 m 1
 85 182 l 1
 85 210 l 1
 57 210 l 1
 57 182 l 1
85 182 m 1
 114 182 l 1
 114 210 l 1
 85 210 l 1
 85 182 l 1
228 182 m 1
 256 182 l 1
 256 210 l 1
 228 210 l 1
 228 182 l 1
57 154 m 1
 85 154 l 1
 85 182 l 1
 57 182 l 1
 57 154 l 1
85 154 m 1
 114 154 l 1
 114 182 l 1
 85 182 l 1
 85 154 l 1
228 154 m 1
 256 154 l 1
 256 182 l 1
 228 182 l 1
 228 154 l 1
57 125 m 1
 85 125 l 1
 85 154 l 1
 57 154 l 1
 57 125 l 1
85 125 m 1
 114 125 l 1
 114 154 l 1
 85 154 l 1
 85 125 l 1
228 125 m 1
 256 125 l 1
 256 154 l 1
 228 154 l 1
 228 125 l 1
57 97 m 1
 85 97 l 1
 85 125 l 1
 57 125 l 1
 57 97 l 1
85 97 m 1
 114 97 l 1
 114 125 l 1
 85 125 l 1
 85 97 l 1
228 97 m 1
 256 97 l 1
 256 125 l 1
 228 125 l 1
 228 97 l 1
57 68 m 1
 85 68 l 1
 85 97 l 1
 57 97 l 1
 57 68 l 1
85 68 m 1
 114 68 l 1
 114 97 l 1
 85 97 l 1
 85 68 l 1
114 68 m 1
 142 68 l 1
 142 97 l 1
 114 97 l 1
 114 68 l 1
199 68 m 1
 228 68 l 1
 228 97 l 1
 199 97 l 1
 199 68 l 1
85 40 m 1
 114 40 l 1
 114 68 l 1
 85 68 l 1
 85 40 l 1
114 40 m 1
 142 40 l 1
 142 68 l 1
 114 68 l 1
 114 40 l 1
142 40 m 1
 171 40 l 1
 171 68 l 1
 142 68 l 1
 142 40 l 1
199 40 m 1
 228 40 l 1
 228 68 l 1
 199 68 l 1
 199 40 l 1
114 11 m 1
 142 11 l 1
 142 40 l 1
 114 40 l 1
 114 11 l 1
142 11 m 1
 171 11 l 1
 171 40 l 1
 142 40 l 1
 142 11 l 1
171 11 m 1
 199 11 l 1
 199 40 l 1
 171 40 l 1
 171 11 l 1
EndSplineSet
Validated: 5
EndChar

StartChar: I
Encoding: 73 73 32
Width: 262
Flags: W
VStem: 85 114
LayerCount: 2
Fore
SplineSet
85 324 m 1
 114 324 l 1
 114 353 l 1
 85 353 l 1
 85 324 l 1
114 324 m 1
 142 324 l 1
 142 353 l 1
 114 353 l 1
 114 324 l 1
142 324 m 1
 171 324 l 1
 171 353 l 1
 142 353 l 1
 142 324 l 1
171 324 m 1
 199 324 l 1
 199 353 l 1
 171 353 l 1
 171 324 l 1
114 296 m 1
 142 296 l 1
 142 324 l 1
 114 324 l 1
 114 296 l 1
142 296 m 1
 171 296 l 1
 171 324 l 1
 142 324 l 1
 142 296 l 1
114 267 m 1
 142 267 l 1
 142 296 l 1
 114 296 l 1
 114 267 l 1
142 267 m 1
 171 267 l 1
 171 296 l 1
 142 296 l 1
 142 267 l 1
114 239 m 1
 142 239 l 1
 142 267 l 1
 114 267 l 1
 114 239 l 1
142 239 m 1
 171 239 l 1
 171 267 l 1
 142 267 l 1
 142 239 l 1
114 210 m 1
 142 210 l 1
 142 239 l 1
 114 239 l 1
 114 210 l 1
142 210 m 1
 171 210 l 1
 171 239 l 1
 142 239 l 1
 142 210 l 1
114 182 m 1
 142 182 l 1
 142 210 l 1
 114 210 l 1
 114 182 l 1
142 182 m 1
 171 182 l 1
 171 210 l 1
 142 210 l 1
 142 182 l 1
114 154 m 1
 142 154 l 1
 142 182 l 1
 114 182 l 1
 114 154 l 1
142 154 m 1
 171 154 l 1
 171 182 l 1
 142 182 l 1
 142 154 l 1
114 125 m 1
 142 125 l 1
 142 154 l 1
 114 154 l 1
 114 125 l 1
142 125 m 1
 171 125 l 1
 171 154 l 1
 142 154 l 1
 142 125 l 1
114 97 m 1
 142 97 l 1
 142 125 l 1
 114 125 l 1
 114 97 l 1
142 97 m 1
 171 97 l 1
 171 125 l 1
 142 125 l 1
 142 97 l 1
114 68 m 1
 142 68 l 1
 142 97 l 1
 114 97 l 1
 114 68 l 1
142 68 m 1
 171 68 l 1
 171 97 l 1
 142 97 l 1
 142 68 l 1
114 40 m 1
 142 40 l 1
 142 68 l 1
 114 68 l 1
 114 40 l 1
142 40 m 1
 171 40 l 1
 171 68 l 1
 142 68 l 1
 142 40 l 1
85 11 m 1
 114 11 l 1
 114 40 l 1
 85 40 l 1
 85 11 l 1
114 11 m 1
 142 11 l 1
 142 40 l 1
 114 40 l 1
 114 11 l 1
142 11 m 1
 171 11 l 1
 171 40 l 1
 142 40 l 1
 142 11 l 1
171 11 m 1
 199 11 l 1
 199 40 l 1
 171 40 l 1
 171 11 l 1
EndSplineSet
Validated: 5
EndChar

StartChar: C
Encoding: 67 67 33
Width: 262
Flags: W
LayerCount: 2
Fore
SplineSet
85 324 m 1
 114 324 l 1
 114 353 l 1
 85 353 l 1
 85 324 l 1
114 324 m 1
 142 324 l 1
 142 353 l 1
 114 353 l 1
 114 324 l 1
142 324 m 1
 171 324 l 1
 171 353 l 1
 142 353 l 1
 142 324 l 1
171 324 m 1
 199 324 l 1
 199 353 l 1
 171 353 l 1
 171 324 l 1
199 324 m 1
 228 324 l 1
 228 353 l 1
 199 353 l 1
 199 324 l 1
57 296 m 1
 85 296 l 1
 85 324 l 1
 57 324 l 1
 57 296 l 1
85 296 m 1
 114 296 l 1
 114 324 l 1
 85 324 l 1
 85 296 l 1
114 296 m 1
 142 296 l 1
 142 324 l 1
 114 324 l 1
 114 296 l 1
199 296 m 1
 228 296 l 1
 228 324 l 1
 199 324 l 1
 199 296 l 1
228 296 m 1
 256 296 l 1
 256 324 l 1
 228 324 l 1
 228 296 l 1
28 267 m 1
 57 267 l 1
 57 296 l 1
 28 296 l 1
 28 267 l 1
57 267 m 1
 85 267 l 1
 85 296 l 1
 57 296 l 1
 57 267 l 1
85 267 m 1
 114 267 l 1
 114 296 l 1
 85 296 l 1
 85 267 l 1
228 267 m 1
 256 267 l 1
 256 296 l 1
 228 296 l 1
 228 267 l 1
28 239 m 1
 57 239 l 1
 57 267 l 1
 28 267 l 1
 28 239 l 1
57 239 m 1
 85 239 l 1
 85 267 l 1
 57 267 l 1
 57 239 l 1
85 239 m 1
 114 239 l 1
 114 267 l 1
 85 267 l 1
 85 239 l 1
28 210 m 1
 57 210 l 1
 57 239 l 1
 28 239 l 1
 28 210 l 1
57 210 m 1
 85 210 l 1
 85 239 l 1
 57 239 l 1
 57 210 l 1
85 210 m 1
 114 210 l 1
 114 239 l 1
 85 239 l 1
 85 210 l 1
28 182 m 1
 57 182 l 1
 57 210 l 1
 28 210 l 1
 28 182 l 1
57 182 m 1
 85 182 l 1
 85 210 l 1
 57 210 l 1
 57 182 l 1
85 182 m 1
 114 182 l 1
 114 210 l 1
 85 210 l 1
 85 182 l 1
28 154 m 1
 57 154 l 1
 57 182 l 1
 28 182 l 1
 28 154 l 1
57 154 m 1
 85 154 l 1
 85 182 l 1
 57 182 l 1
 57 154 l 1
85 154 m 1
 114 154 l 1
 114 182 l 1
 85 182 l 1
 85 154 l 1
28 125 m 1
 57 125 l 1
 57 154 l 1
 28 154 l 1
 28 125 l 1
57 125 m 1
 85 125 l 1
 85 154 l 1
 57 154 l 1
 57 125 l 1
85 125 m 1
 114 125 l 1
 114 154 l 1
 85 154 l 1
 85 125 l 1
28 97 m 1
 57 97 l 1
 57 125 l 1
 28 125 l 1
 28 97 l 1
57 97 m 1
 85 97 l 1
 85 125 l 1
 57 125 l 1
 57 97 l 1
85 97 m 1
 114 97 l 1
 114 125 l 1
 85 125 l 1
 85 97 l 1
28 68 m 1
 57 68 l 1
 57 97 l 1
 28 97 l 1
 28 68 l 1
57 68 m 1
 85 68 l 1
 85 97 l 1
 57 97 l 1
 57 68 l 1
85 68 m 1
 114 68 l 1
 114 97 l 1
 85 97 l 1
 85 68 l 1
114 68 m 1
 142 68 l 1
 142 97 l 1
 114 97 l 1
 114 68 l 1
228 68 m 1
 256 68 l 1
 256 97 l 1
 228 97 l 1
 228 68 l 1
57 40 m 1
 85 40 l 1
 85 68 l 1
 57 68 l 1
 57 40 l 1
85 40 m 1
 114 40 l 1
 114 68 l 1
 85 68 l 1
 85 40 l 1
114 40 m 1
 142 40 l 1
 142 68 l 1
 114 68 l 1
 114 40 l 1
142 40 m 1
 171 40 l 1
 171 68 l 1
 142 68 l 1
 142 40 l 1
199 40 m 1
 228 40 l 1
 228 68 l 1
 199 68 l 1
 199 40 l 1
228 40 m 1
 256 40 l 1
 256 68 l 1
 228 68 l 1
 228 40 l 1
85 11 m 1
 114 11 l 1
 114 40 l 1
 85 40 l 1
 85 11 l 1
114 11 m 1
 142 11 l 1
 142 40 l 1
 114 40 l 1
 114 11 l 1
142 11 m 1
 171 11 l 1
 171 40 l 1
 142 40 l 1
 142 11 l 1
171 11 m 1
 199 11 l 1
 199 40 l 1
 171 40 l 1
 171 11 l 1
199 11 m 1
 228 11 l 1
 228 40 l 1
 199 40 l 1
 199 11 l 1
EndSplineSet
Validated: 5
EndChar

StartChar: K
Encoding: 75 75 34
Width: 262
Flags: HW
LayerCount: 2
Fore
SplineSet
28 324 m 1
 57 324 l 1
 57 353 l 1
 28 353 l 1
 28 324 l 1
57 324 m 1
 85 324 l 1
 85 353 l 1
 57 353 l 1
 57 324 l 1
85 324 m 1
 114 324 l 1
 114 353 l 1
 85 353 l 1
 85 324 l 1
114 324 m 1
 142 324 l 1
 142 353 l 1
 114 353 l 1
 114 324 l 1
171 324 m 1
 199 324 l 1
 199 353 l 1
 171 353 l 1
 171 324 l 1
199 324 m 1
 228 324 l 1
 228 353 l 1
 199 353 l 1
 199 324 l 1
228 324 m 1
 256 324 l 1
 256 353 l 1
 228 353 l 1
 228 324 l 1
57 296 m 1
 85 296 l 1
 85 324 l 1
 57 324 l 1
 57 296 l 1
85 296 m 1
 114 296 l 1
 114 324 l 1
 85 324 l 1
 85 296 l 1
199 296 m 1
 228 296 l 1
 228 324 l 1
 199 324 l 1
 199 296 l 1
57 267 m 1
 85 267 l 1
 85 296 l 1
 57 296 l 1
 57 267 l 1
85 267 m 1
 114 267 l 1
 114 296 l 1
 85 296 l 1
 85 267 l 1
171 267 m 1
 199 267 l 1
 199 296 l 1
 171 296 l 1
 171 267 l 1
57 239 m 1
 85 239 l 1
 85 267 l 1
 57 267 l 1
 57 239 l 1
85 239 m 1
 114 239 l 1
 114 267 l 1
 85 267 l 1
 85 239 l 1
171 239 m 1
 199 239 l 1
 199 267 l 1
 171 267 l 1
 171 239 l 1
57 210 m 1
 85 210 l 1
 85 239 l 1
 57 239 l 1
 57 210 l 1
85 210 m 1
 114 210 l 1
 114 239 l 1
 85 239 l 1
 85 210 l 1
142 210 m 1
 171 210 l 1
 171 239 l 1
 142 239 l 1
 142 210 l 1
57 182 m 1
 85 182 l 1
 85 210 l 1
 57 210 l 1
 57 182 l 1
85 182 m 1
 114 182 l 1
 114 210 l 1
 85 210 l 1
 85 182 l 1
114 182 m 1
 142 182 l 1
 142 210 l 1
 114 210 l 1
 114 182 l 1
57 154 m 1
 85 154 l 1
 85 182 l 1
 57 182 l 1
 57 154 l 1
85 154 m 1
 114 154 l 1
 114 182 l 1
 85 182 l 1
 85 154 l 1
114 154 m 1
 142 154 l 1
 142 182 l 1
 114 182 l 1
 114 154 l 1
142 154 m 1
 171 154 l 1
 171 182 l 1
 142 182 l 1
 142 154 l 1
57 125 m 1
 85 125 l 1
 85 154 l 1
 57 154 l 1
 57 125 l 1
85 125 m 1
 114 125 l 1
 114 154 l 1
 85 154 l 1
 85 125 l 1
114 125 m 1
 142 125 l 1
 142 154 l 1
 114 154 l 1
 114 125 l 1
142 125 m 1
 171 125 l 1
 171 154 l 1
 142 154 l 1
 142 125 l 1
171 125 m 1
 199 125 l 1
 199 154 l 1
 171 154 l 1
 171 125 l 1
57 97 m 1
 85 97 l 1
 85 125 l 1
 57 125 l 1
 57 97 l 1
85 97 m 1
 114 97 l 1
 114 125 l 1
 85 125 l 1
 85 97 l 1
114 97 m 1
 142 97 l 1
 142 125 l 1
 114 125 l 1
 114 97 l 1
142 97 m 1
 171 97 l 1
 171 125 l 1
 142 125 l 1
 142 97 l 1
171 97 m 1
 199 97 l 1
 199 125 l 1
 171 125 l 1
 171 97 l 1
57 68 m 1
 85 68 l 1
 85 97 l 1
 57 97 l 1
 57 68 l 1
85 68 m 1
 114 68 l 1
 114 97 l 1
 85 97 l 1
 85 68 l 1
142 68 m 1
 171 68 l 1
 171 97 l 1
 142 97 l 1
 142 68 l 1
171 68 m 1
 199 68 l 1
 199 97 l 1
 171 97 l 1
 171 68 l 1
199 68 m 1
 228 68 l 1
 228 97 l 1
 199 97 l 1
 199 68 l 1
57 40 m 1
 85 40 l 1
 85 68 l 1
 57 68 l 1
 57 40 l 1
85 40 m 1
 114 40 l 1
 114 68 l 1
 85 68 l 1
 85 40 l 1
171 40 m 1
 199 40 l 1
 199 68 l 1
 171 68 l 1
 171 40 l 1
199 40 m 1
 228 40 l 1
 228 68 l 1
 199 68 l 1
 199 40 l 1
228 40 m 1
 256 40 l 1
 256 68 l 1
 228 68 l 1
 228 40 l 1
28 11 m 1
 57 11 l 1
 57 40 l 1
 28 40 l 1
 28 11 l 1
57 11 m 1
 85 11 l 1
 85 40 l 1
 57 40 l 1
 57 11 l 1
85 11 m 1
 114 11 l 1
 114 40 l 1
 85 40 l 1
 85 11 l 1
114 11 m 1
 142 11 l 1
 142 40 l 1
 114 40 l 1
 114 11 l 1
199 11 m 1
 228 11 l 1
 228 40 l 1
 199 40 l 1
 199 11 l 1
228 11 m 1
 256 11 l 1
 256 40 l 1
 228 40 l 1
 228 11 l 1
EndSplineSet
Validated: 5
EndChar

StartChar: R
Encoding: 82 82 35
Width: 262
Flags: HW
LayerCount: 2
Fore
SplineSet
28 324 m 1
 57 324 l 1
 57 353 l 1
 28 353 l 1
 28 324 l 1
57 324 m 1
 85 324 l 1
 85 353 l 1
 57 353 l 1
 57 324 l 1
85 324 m 1
 114 324 l 1
 114 353 l 1
 85 353 l 1
 85 324 l 1
114 324 m 1
 142 324 l 1
 142 353 l 1
 114 353 l 1
 114 324 l 1
142 324 m 1
 171 324 l 1
 171 353 l 1
 142 353 l 1
 142 324 l 1
171 324 m 1
 199 324 l 1
 199 353 l 1
 171 353 l 1
 171 324 l 1
57 296 m 1
 85 296 l 1
 85 324 l 1
 57 324 l 1
 57 296 l 1
85 296 m 1
 114 296 l 1
 114 324 l 1
 85 324 l 1
 85 296 l 1
142 296 m 1
 171 296 l 1
 171 324 l 1
 142 324 l 1
 142 296 l 1
171 296 m 1
 199 296 l 1
 199 324 l 1
 171 324 l 1
 171 296 l 1
199 296 m 1
 228 296 l 1
 228 324 l 1
 199 324 l 1
 199 296 l 1
57 267 m 1
 85 267 l 1
 85 296 l 1
 57 296 l 1
 57 267 l 1
85 267 m 1
 114 267 l 1
 114 296 l 1
 85 296 l 1
 85 267 l 1
171 267 m 1
 199 267 l 1
 199 296 l 1
 171 296 l 1
 171 267 l 1
199 267 m 1
 228 267 l 1
 228 296 l 1
 199 296 l 1
 199 267 l 1
228 267 m 1
 256 267 l 1
 256 296 l 1
 228 296 l 1
 228 267 l 1
57 239 m 1
 85 239 l 1
 85 267 l 1
 57 267 l 1
 57 239 l 1
85 239 m 1
 114 239 l 1
 114 267 l 1
 85 267 l 1
 85 239 l 1
171 239 m 1
 199 239 l 1
 199 267 l 1
 171 267 l 1
 171 239 l 1
199 239 m 1
 228 239 l 1
 228 267 l 1
 199 267 l 1
 199 239 l 1
228 239 m 1
 256 239 l 1
 256 267 l 1
 228 267 l 1
 228 239 l 1
57 210 m 1
 85 210 l 1
 85 239 l 1
 57 239 l 1
 57 210 l 1
85 210 m 1
 114 210 l 1
 114 239 l 1
 85 239 l 1
 85 210 l 1
171 210 m 1
 199 210 l 1
 199 239 l 1
 171 239 l 1
 171 210 l 1
199 210 m 1
 228 210 l 1
 228 239 l 1
 199 239 l 1
 199 210 l 1
228 210 m 1
 256 210 l 1
 256 239 l 1
 228 239 l 1
 228 210 l 1
57 182 m 1
 85 182 l 1
 85 210 l 1
 57 210 l 1
 57 182 l 1
85 182 m 1
 114 182 l 1
 114 210 l 1
 85 210 l 1
 85 182 l 1
142 182 m 1
 171 182 l 1
 171 210 l 1
 142 210 l 1
 142 182 l 1
171 182 m 1
 199 182 l 1
 199 210 l 1
 171 210 l 1
 171 182 l 1
199 182 m 1
 228 182 l 1
 228 210 l 1
 199 210 l 1
 199 182 l 1
57 154 m 1
 85 154 l 1
 85 182 l 1
 57 182 l 1
 57 154 l 1
85 154 m 1
 114 154 l 1
 114 182 l 1
 85 182 l 1
 85 154 l 1
114 154 m 1
 142 154 l 1
 142 182 l 1
 114 182 l 1
 114 154 l 1
142 154 m 1
 171 154 l 1
 171 182 l 1
 142 182 l 1
 142 154 l 1
171 154 m 1
 199 154 l 1
 199 182 l 1
 171 182 l 1
 171 154 l 1
57 125 m 1
 85 125 l 1
 85 154 l 1
 57 154 l 1
 57 125 l 1
85 125 m 1
 114 125 l 1
 114 154 l 1
 85 154 l 1
 85 125 l 1
114 125 m 1
 142 125 l 1
 142 154 l 1
 114 154 l 1
 114 125 l 1
142 125 m 1
 171 125 l 1
 171 154 l 1
 142 154 l 1
 142 125 l 1
171 125 m 1
 199 125 l 1
 199 154 l 1
 171 154 l 1
 171 125 l 1
57 97 m 1
 85 97 l 1
 85 125 l 1
 57 125 l 1
 57 97 l 1
85 97 m 1
 114 97 l 1
 114 125 l 1
 85 125 l 1
 85 97 l 1
142 97 m 1
 171 97 l 1
 171 125 l 1
 142 125 l 1
 142 97 l 1
171 97 m 1
 199 97 l 1
 199 125 l 1
 171 125 l 1
 171 97 l 1
199 97 m 1
 228 97 l 1
 228 125 l 1
 199 125 l 1
 199 97 l 1
57 68 m 1
 85 68 l 1
 85 97 l 1
 57 97 l 1
 57 68 l 1
85 68 m 1
 114 68 l 1
 114 97 l 1
 85 97 l 1
 85 68 l 1
171 68 m 1
 199 68 l 1
 199 97 l 1
 171 97 l 1
 171 68 l 1
199 68 m 1
 228 68 l 1
 228 97 l 1
 199 97 l 1
 199 68 l 1
57 40 m 1
 85 40 l 1
 85 68 l 1
 57 68 l 1
 57 40 l 1
85 40 m 1
 114 40 l 1
 114 68 l 1
 85 68 l 1
 85 40 l 1
171 40 m 1
 199 40 l 1
 199 68 l 1
 171 68 l 1
 171 40 l 1
199 40 m 1
 228 40 l 1
 228 68 l 1
 199 68 l 1
 199 40 l 1
228 40 m 1
 256 40 l 1
 256 68 l 1
 228 68 l 1
 228 40 l 1
28 11 m 1
 57 11 l 1
 57 40 l 1
 28 40 l 1
 28 11 l 1
57 11 m 1
 85 11 l 1
 85 40 l 1
 57 40 l 1
 57 11 l 1
85 11 m 1
 114 11 l 1
 114 40 l 1
 85 40 l 1
 85 11 l 1
114 11 m 1
 142 11 l 1
 142 40 l 1
 114 40 l 1
 114 11 l 1
199 11 m 1
 228 11 l 1
 228 40 l 1
 199 40 l 1
 199 11 l 1
228 11 m 1
 256 11 l 1
 256 40 l 1
 228 40 l 1
 228 11 l 1
EndSplineSet
Validated: 5
EndChar

StartChar: O
Encoding: 79 79 36
Width: 262
Flags: W
LayerCount: 2
Fore
SplineSet
85 324 m 1
 114 324 l 1
 114 353 l 1
 85 353 l 1
 85 324 l 1
114 324 m 1
 142 324 l 1
 142 353 l 1
 114 353 l 1
 114 324 l 1
142 324 m 1
 171 324 l 1
 171 353 l 1
 142 353 l 1
 142 324 l 1
171 324 m 1
 199 324 l 1
 199 353 l 1
 171 353 l 1
 171 324 l 1
57 296 m 1
 85 296 l 1
 85 324 l 1
 57 324 l 1
 57 296 l 1
85 296 m 1
 114 296 l 1
 114 324 l 1
 85 324 l 1
 85 296 l 1
142 296 m 1
 171 296 l 1
 171 324 l 1
 142 324 l 1
 142 296 l 1
171 296 m 1
 199 296 l 1
 199 324 l 1
 171 324 l 1
 171 296 l 1
199 296 m 1
 228 296 l 1
 228 324 l 1
 199 324 l 1
 199 296 l 1
28 267 m 1
 57 267 l 1
 57 296 l 1
 28 296 l 1
 28 267 l 1
57 267 m 1
 85 267 l 1
 85 296 l 1
 57 296 l 1
 57 267 l 1
171 267 m 1
 199 267 l 1
 199 296 l 1
 171 296 l 1
 171 267 l 1
199 267 m 1
 228 267 l 1
 228 296 l 1
 199 296 l 1
 199 267 l 1
228 267 m 1
 256 267 l 1
 256 296 l 1
 228 296 l 1
 228 267 l 1
28 239 m 1
 57 239 l 1
 57 267 l 1
 28 267 l 1
 28 239 l 1
57 239 m 1
 85 239 l 1
 85 267 l 1
 57 267 l 1
 57 239 l 1
171 239 m 1
 199 239 l 1
 199 267 l 1
 171 267 l 1
 171 239 l 1
199 239 m 1
 228 239 l 1
 228 267 l 1
 199 267 l 1
 199 239 l 1
228 239 m 1
 256 239 l 1
 256 267 l 1
 228 267 l 1
 228 239 l 1
28 210 m 1
 57 210 l 1
 57 239 l 1
 28 239 l 1
 28 210 l 1
57 210 m 1
 85 210 l 1
 85 239 l 1
 57 239 l 1
 57 210 l 1
199 210 m 1
 228 210 l 1
 228 239 l 1
 199 239 l 1
 199 210 l 1
228 210 m 1
 256 210 l 1
 256 239 l 1
 228 239 l 1
 228 210 l 1
28 182 m 1
 57 182 l 1
 57 210 l 1
 28 210 l 1
 28 182 l 1
57 182 m 1
 85 182 l 1
 85 210 l 1
 57 210 l 1
 57 182 l 1
199 182 m 1
 228 182 l 1
 228 210 l 1
 199 210 l 1
 199 182 l 1
228 182 m 1
 256 182 l 1
 256 210 l 1
 228 210 l 1
 228 182 l 1
28 154 m 1
 57 154 l 1
 57 182 l 1
 28 182 l 1
 28 154 l 1
57 154 m 1
 85 154 l 1
 85 182 l 1
 57 182 l 1
 57 154 l 1
199 154 m 1
 228 154 l 1
 228 182 l 1
 199 182 l 1
 199 154 l 1
228 154 m 1
 256 154 l 1
 256 182 l 1
 228 182 l 1
 228 154 l 1
28 125 m 1
 57 125 l 1
 57 154 l 1
 28 154 l 1
 28 125 l 1
57 125 m 1
 85 125 l 1
 85 154 l 1
 57 154 l 1
 57 125 l 1
199 125 m 1
 228 125 l 1
 228 154 l 1
 199 154 l 1
 199 125 l 1
228 125 m 1
 256 125 l 1
 256 154 l 1
 228 154 l 1
 228 125 l 1
28 97 m 1
 57 97 l 1
 57 125 l 1
 28 125 l 1
 28 97 l 1
57 97 m 1
 85 97 l 1
 85 125 l 1
 57 125 l 1
 57 97 l 1
85 97 m 1
 114 97 l 1
 114 125 l 1
 85 125 l 1
 85 97 l 1
199 97 m 1
 228 97 l 1
 228 125 l 1
 199 125 l 1
 199 97 l 1
228 97 m 1
 256 97 l 1
 256 125 l 1
 228 125 l 1
 228 97 l 1
28 68 m 1
 57 68 l 1
 57 97 l 1
 28 97 l 1
 28 68 l 1
57 68 m 1
 85 68 l 1
 85 97 l 1
 57 97 l 1
 57 68 l 1
85 68 m 1
 114 68 l 1
 114 97 l 1
 85 97 l 1
 85 68 l 1
199 68 m 1
 228 68 l 1
 228 97 l 1
 199 97 l 1
 199 68 l 1
228 68 m 1
 256 68 l 1
 256 97 l 1
 228 97 l 1
 228 68 l 1
57 40 m 1
 85 40 l 1
 85 68 l 1
 57 68 l 1
 57 40 l 1
85 40 m 1
 114 40 l 1
 114 68 l 1
 85 68 l 1
 85 40 l 1
114 40 m 1
 142 40 l 1
 142 68 l 1
 114 68 l 1
 114 40 l 1
171 40 m 1
 199 40 l 1
 199 68 l 1
 171 68 l 1
 171 40 l 1
199 40 m 1
 228 40 l 1
 228 68 l 1
 199 68 l 1
 199 40 l 1
85 11 m 1
 114 11 l 1
 114 40 l 1
 85 40 l 1
 85 11 l 1
114 11 m 1
 142 11 l 1
 142 40 l 1
 114 40 l 1
 114 11 l 1
142 11 m 1
 171 11 l 1
 171 40 l 1
 142 40 l 1
 142 11 l 1
171 11 m 1
 199 11 l 1
 199 40 l 1
 171 40 l 1
 171 11 l 1
EndSplineSet
Validated: 5
EndChar

StartChar: W
Encoding: 87 87 37
Width: 262
Flags: HW
LayerCount: 2
Fore
SplineSet
28 324 m 1
 57 324 l 1
 57 353 l 1
 28 353 l 1
 28 324 l 1
57 324 m 1
 85 324 l 1
 85 353 l 1
 57 353 l 1
 57 324 l 1
85 324 m 1
 114 324 l 1
 114 353 l 1
 85 353 l 1
 85 324 l 1
199 324 m 1
 228 324 l 1
 228 353 l 1
 199 353 l 1
 199 324 l 1
228 324 m 1
 256 324 l 1
 256 353 l 1
 228 353 l 1
 228 324 l 1
28 296 m 1
 57 296 l 1
 57 324 l 1
 28 324 l 1
 28 296 l 1
57 296 m 1
 85 296 l 1
 85 324 l 1
 57 324 l 1
 57 296 l 1
228 296 m 1
 256 296 l 1
 256 324 l 1
 228 324 l 1
 228 296 l 1
28 267 m 1
 57 267 l 1
 57 296 l 1
 28 296 l 1
 28 267 l 1
57 267 m 1
 85 267 l 1
 85 296 l 1
 57 296 l 1
 57 267 l 1
114 267 m 1
 142 267 l 1
 142 296 l 1
 114 296 l 1
 114 267 l 1
142 267 m 1
 171 267 l 1
 171 296 l 1
 142 296 l 1
 142 267 l 1
228 267 m 1
 256 267 l 1
 256 296 l 1
 228 296 l 1
 228 267 l 1
28 239 m 1
 57 239 l 1
 57 267 l 1
 28 267 l 1
 28 239 l 1
57 239 m 1
 85 239 l 1
 85 267 l 1
 57 267 l 1
 57 239 l 1
114 239 m 1
 142 239 l 1
 142 267 l 1
 114 267 l 1
 114 239 l 1
142 239 m 1
 171 239 l 1
 171 267 l 1
 142 267 l 1
 142 239 l 1
228 239 m 1
 256 239 l 1
 256 267 l 1
 228 267 l 1
 228 239 l 1
28 210 m 1
 57 210 l 1
 57 239 l 1
 28 239 l 1
 28 210 l 1
57 210 m 1
 85 210 l 1
 85 239 l 1
 57 239 l 1
 57 210 l 1
114 210 m 1
 142 210 l 1
 142 239 l 1
 114 239 l 1
 114 210 l 1
142 210 m 1
 171 210 l 1
 171 239 l 1
 142 239 l 1
 142 210 l 1
171 210 m 1
 199 210 l 1
 199 239 l 1
 171 239 l 1
 171 210 l 1
228 210 m 1
 256 210 l 1
 256 239 l 1
 228 239 l 1
 228 210 l 1
28 182 m 1
 57 182 l 1
 57 210 l 1
 28 210 l 1
 28 182 l 1
57 182 m 1
 85 182 l 1
 85 210 l 1
 57 210 l 1
 57 182 l 1
114 182 m 1
 142 182 l 1
 142 210 l 1
 114 210 l 1
 114 182 l 1
142 182 m 1
 171 182 l 1
 171 210 l 1
 142 210 l 1
 142 182 l 1
171 182 m 1
 199 182 l 1
 199 210 l 1
 171 210 l 1
 171 182 l 1
228 182 m 1
 256 182 l 1
 256 210 l 1
 228 210 l 1
 228 182 l 1
28 154 m 1
 57 154 l 1
 57 182 l 1
 28 182 l 1
 28 154 l 1
57 154 m 1
 85 154 l 1
 85 182 l 1
 57 182 l 1
 57 154 l 1
85 154 m 1
 114 154 l 1
 114 182 l 1
 85 182 l 1
 85 154 l 1
142 154 m 1
 171 154 l 1
 171 182 l 1
 142 182 l 1
 142 154 l 1
171 154 m 1
 199 154 l 1
 199 182 l 1
 171 182 l 1
 171 154 l 1
199 154 m 1
 228 154 l 1
 228 182 l 1
 199 182 l 1
 199 154 l 1
228 154 m 1
 256 154 l 1
 256 182 l 1
 228 182 l 1
 228 154 l 1
28 125 m 1
 57 125 l 1
 57 154 l 1
 28 154 l 1
 28 125 l 1
57 125 m 1
 85 125 l 1
 85 154 l 1
 57 154 l 1
 57 125 l 1
85 125 m 1
 114 125 l 1
 114 154 l 1
 85 154 l 1
 85 125 l 1
142 125 m 1
 171 125 l 1
 171 154 l 1
 142 154 l 1
 142 125 l 1
171 125 m 1
 199 125 l 1
 199 154 l 1
 171 154 l 1
 171 125 l 1
199 125 m 1
 228 125 l 1
 228 154 l 1
 199 154 l 1
 199 125 l 1
28 97 m 1
 57 97 l 1
 57 125 l 1
 28 125 l 1
 28 97 l 1
57 97 m 1
 85 97 l 1
 85 125 l 1
 57 125 l 1
 57 97 l 1
85 97 m 1
 114 97 l 1
 114 125 l 1
 85 125 l 1
 85 97 l 1
142 97 m 1
 171 97 l 1
 171 125 l 1
 142 125 l 1
 142 97 l 1
171 97 m 1
 199 97 l 1
 199 125 l 1
 171 125 l 1
 171 97 l 1
199 97 m 1
 228 97 l 1
 228 125 l 1
 199 125 l 1
 199 97 l 1
28 68 m 1
 57 68 l 1
 57 97 l 1
 28 97 l 1
 28 68 l 1
57 68 m 1
 85 68 l 1
 85 97 l 1
 57 97 l 1
 57 68 l 1
142 68 m 1
 171 68 l 1
 171 97 l 1
 142 97 l 1
 142 68 l 1
171 68 m 1
 199 68 l 1
 199 97 l 1
 171 97 l 1
 171 68 l 1
57 40 m 1
 85 40 l 1
 85 68 l 1
 57 68 l 1
 57 40 l 1
171 40 m 1
 199 40 l 1
 199 68 l 1
 171 68 l 1
 171 40 l 1
57 11 m 1
 85 11 l 1
 85 40 l 1
 57 40 l 1
 57 11 l 1
171 11 m 1
 199 11 l 1
 199 40 l 1
 171 40 l 1
 171 11 l 1
EndSplineSet
Validated: 5
EndChar

StartChar: N
Encoding: 78 78 38
Width: 262
Flags: HW
LayerCount: 2
Fore
SplineSet
28 324 m 1
 57 324 l 1
 57 353 l 1
 28 353 l 1
 28 324 l 1
57 324 m 1
 85 324 l 1
 85 353 l 1
 57 353 l 1
 57 324 l 1
85 324 m 1
 114 324 l 1
 114 353 l 1
 85 353 l 1
 85 324 l 1
114 324 m 1
 142 324 l 1
 142 353 l 1
 114 353 l 1
 114 324 l 1
199 324 m 1
 228 324 l 1
 228 353 l 1
 199 353 l 1
 199 324 l 1
228 324 m 1
 256 324 l 1
 256 353 l 1
 228 353 l 1
 228 324 l 1
57 296 m 1
 85 296 l 1
 85 324 l 1
 57 324 l 1
 57 296 l 1
85 296 m 1
 114 296 l 1
 114 324 l 1
 85 324 l 1
 85 296 l 1
114 296 m 1
 142 296 l 1
 142 324 l 1
 114 324 l 1
 114 296 l 1
228 296 m 1
 256 296 l 1
 256 324 l 1
 228 324 l 1
 228 296 l 1
57 267 m 1
 85 267 l 1
 85 296 l 1
 57 296 l 1
 57 267 l 1
85 267 m 1
 114 267 l 1
 114 296 l 1
 85 296 l 1
 85 267 l 1
114 267 m 1
 142 267 l 1
 142 296 l 1
 114 296 l 1
 114 267 l 1
142 267 m 1
 171 267 l 1
 171 296 l 1
 142 296 l 1
 142 267 l 1
228 267 m 1
 256 267 l 1
 256 296 l 1
 228 296 l 1
 228 267 l 1
57 239 m 1
 85 239 l 1
 85 267 l 1
 57 267 l 1
 57 239 l 1
85 239 m 1
 114 239 l 1
 114 267 l 1
 85 267 l 1
 85 239 l 1
114 239 m 1
 142 239 l 1
 142 267 l 1
 114 267 l 1
 114 239 l 1
142 239 m 1
 171 239 l 1
 171 267 l 1
 142 267 l 1
 142 239 l 1
228 239 m 1
 256 239 l 1
 256 267 l 1
 228 267 l 1
 228 239 l 1
57 210 m 1
 85 210 l 1
 85 239 l 1
 57 239 l 1
 57 210 l 1
85 210 m 1
 114 210 l 1
 114 239 l 1
 85 239 l 1
 85 210 l 1
114 210 m 1
 142 210 l 1
 142 239 l 1
 114 239 l 1
 114 210 l 1
142 210 m 1
 171 210 l 1
 171 239 l 1
 142 239 l 1
 142 210 l 1
171 210 m 1
 199 210 l 1
 199 239 l 1
 171 239 l 1
 171 210 l 1
228 210 m 1
 256 210 l 1
 256 239 l 1
 228 239 l 1
 228 210 l 1
57 182 m 1
 85 182 l 1
 85 210 l 1
 57 210 l 1
 57 182 l 1
114 182 m 1
 142 182 l 1
 142 210 l 1
 114 210 l 1
 114 182 l 1
142 182 m 1
 171 182 l 1
 171 210 l 1
 142 210 l 1
 142 182 l 1
171 182 m 1
 199 182 l 1
 199 210 l 1
 171 210 l 1
 171 182 l 1
228 182 m 1
 256 182 l 1
 256 210 l 1
 228 210 l 1
 228 182 l 1
57 154 m 1
 85 154 l 1
 85 182 l 1
 57 182 l 1
 57 154 l 1
142 154 m 1
 171 154 l 1
 171 182 l 1
 142 182 l 1
 142 154 l 1
171 154 m 1
 199 154 l 1
 199 182 l 1
 171 182 l 1
 171 154 l 1
199 154 m 1
 228 154 l 1
 228 182 l 1
 199 182 l 1
 199 154 l 1
228 154 m 1
 256 154 l 1
 256 182 l 1
 228 182 l 1
 228 154 l 1
57 125 m 1
 85 125 l 1
 85 154 l 1
 57 154 l 1
 57 125 l 1
142 125 m 1
 171 125 l 1
 171 154 l 1
 142 154 l 1
 142 125 l 1
171 125 m 1
 199 125 l 1
 199 154 l 1
 171 154 l 1
 171 125 l 1
199 125 m 1
 228 125 l 1
 228 154 l 1
 199 154 l 1
 199 125 l 1
228 125 m 1
 256 125 l 1
 256 154 l 1
 228 154 l 1
 228 125 l 1
57 97 m 1
 85 97 l 1
 85 125 l 1
 57 125 l 1
 57 97 l 1
171 97 m 1
 199 97 l 1
 199 125 l 1
 171 125 l 1
 171 97 l 1
199 97 m 1
 228 97 l 1
 228 125 l 1
 199 125 l 1
 199 97 l 1
228 97 m 1
 256 97 l 1
 256 125 l 1
 228 125 l 1
 228 97 l 1
57 68 m 1
 85 68 l 1
 85 97 l 1
 57 97 l 1
 57 68 l 1
171 68 m 1
 199 68 l 1
 199 97 l 1
 171 97 l 1
 171 68 l 1
199 68 m 1
 228 68 l 1
 228 97 l 1
 199 97 l 1
 199 68 l 1
228 68 m 1
 256 68 l 1
 256 97 l 1
 228 97 l 1
 228 68 l 1
57 40 m 1
 85 40 l 1
 85 68 l 1
 57 68 l 1
 57 40 l 1
199 40 m 1
 228 40 l 1
 228 68 l 1
 199 68 l 1
 199 40 l 1
228 40 m 1
 256 40 l 1
 256 68 l 1
 228 68 l 1
 228 40 l 1
28 11 m 1
 57 11 l 1
 57 40 l 1
 28 40 l 1
 28 11 l 1
57 11 m 1
 85 11 l 1
 85 40 l 1
 57 40 l 1
 57 11 l 1
85 11 m 1
 114 11 l 1
 114 40 l 1
 85 40 l 1
 85 11 l 1
199 11 m 1
 228 11 l 1
 228 40 l 1
 199 40 l 1
 199 11 l 1
228 11 m 1
 256 11 l 1
 256 40 l 1
 228 40 l 1
 228 11 l 1
EndSplineSet
Validated: 5
EndChar

StartChar: F
Encoding: 70 70 39
Width: 262
Flags: W
LayerCount: 2
Fore
SplineSet
28 324 m 1
 57 324 l 1
 57 353 l 1
 28 353 l 1
 28 324 l 1
57 324 m 1
 85 324 l 1
 85 353 l 1
 57 353 l 1
 57 324 l 1
85 324 m 1
 114 324 l 1
 114 353 l 1
 85 353 l 1
 85 324 l 1
114 324 m 1
 142 324 l 1
 142 353 l 1
 114 353 l 1
 114 324 l 1
142 324 m 1
 171 324 l 1
 171 353 l 1
 142 353 l 1
 142 324 l 1
171 324 m 1
 199 324 l 1
 199 353 l 1
 171 353 l 1
 171 324 l 1
199 324 m 1
 228 324 l 1
 228 353 l 1
 199 353 l 1
 199 324 l 1
228 324 m 1
 256 324 l 1
 256 353 l 1
 228 353 l 1
 228 324 l 1
57 296 m 1
 85 296 l 1
 85 324 l 1
 57 324 l 1
 57 296 l 1
85 296 m 1
 114 296 l 1
 114 324 l 1
 85 324 l 1
 85 296 l 1
199 296 m 1
 228 296 l 1
 228 324 l 1
 199 324 l 1
 199 296 l 1
228 296 m 1
 256 296 l 1
 256 324 l 1
 228 324 l 1
 228 296 l 1
57 267 m 1
 85 267 l 1
 85 296 l 1
 57 296 l 1
 57 267 l 1
85 267 m 1
 114 267 l 1
 114 296 l 1
 85 296 l 1
 85 267 l 1
228 267 m 1
 256 267 l 1
 256 296 l 1
 228 296 l 1
 228 267 l 1
57 239 m 1
 85 239 l 1
 85 267 l 1
 57 267 l 1
 57 239 l 1
85 239 m 1
 114 239 l 1
 114 267 l 1
 85 267 l 1
 85 239 l 1
57 210 m 1
 85 210 l 1
 85 239 l 1
 57 239 l 1
 57 210 l 1
85 210 m 1
 114 210 l 1
 114 239 l 1
 85 239 l 1
 85 210 l 1
171 210 m 1
 199 210 l 1
 199 239 l 1
 171 239 l 1
 171 210 l 1
57 182 m 1
 85 182 l 1
 85 210 l 1
 57 210 l 1
 57 182 l 1
85 182 m 1
 114 182 l 1
 114 210 l 1
 85 210 l 1
 85 182 l 1
114 182 m 1
 142 182 l 1
 142 210 l 1
 114 210 l 1
 114 182 l 1
142 182 m 1
 171 182 l 1
 171 210 l 1
 142 210 l 1
 142 182 l 1
171 182 m 1
 199 182 l 1
 199 210 l 1
 171 210 l 1
 171 182 l 1
57 154 m 1
 85 154 l 1
 85 182 l 1
 57 182 l 1
 57 154 l 1
85 154 m 1
 114 154 l 1
 114 182 l 1
 85 182 l 1
 85 154 l 1
171 154 m 1
 199 154 l 1
 199 182 l 1
 171 182 l 1
 171 154 l 1
57 125 m 1
 85 125 l 1
 85 154 l 1
 57 154 l 1
 57 125 l 1
85 125 m 1
 114 125 l 1
 114 154 l 1
 85 154 l 1
 85 125 l 1
57 97 m 1
 85 97 l 1
 85 125 l 1
 57 125 l 1
 57 97 l 1
85 97 m 1
 114 97 l 1
 114 125 l 1
 85 125 l 1
 85 97 l 1
57 68 m 1
 85 68 l 1
 85 97 l 1
 57 97 l 1
 57 68 l 1
85 68 m 1
 114 68 l 1
 114 97 l 1
 85 97 l 1
 85 68 l 1
57 40 m 1
 85 40 l 1
 85 68 l 1
 57 68 l 1
 57 40 l 1
85 40 m 1
 114 40 l 1
 114 68 l 1
 85 68 l 1
 85 40 l 1
28 11 m 1
 57 11 l 1
 57 40 l 1
 28 40 l 1
 28 11 l 1
57 11 m 1
 85 11 l 1
 85 40 l 1
 57 40 l 1
 57 11 l 1
85 11 m 1
 114 11 l 1
 114 40 l 1
 85 40 l 1
 85 11 l 1
114 11 m 1
 142 11 l 1
 142 40 l 1
 114 40 l 1
 114 11 l 1
EndSplineSet
Validated: 5
EndChar

StartChar: X
Encoding: 88 88 40
Width: 262
Flags: HW
LayerCount: 2
Fore
SplineSet
28 324 m 1
 57 324 l 1
 57 353 l 1
 28 353 l 1
 28 324 l 1
57 324 m 1
 85 324 l 1
 85 353 l 1
 57 353 l 1
 57 324 l 1
85 324 m 1
 114 324 l 1
 114 353 l 1
 85 353 l 1
 85 324 l 1
199 324 m 1
 228 324 l 1
 228 353 l 1
 199 353 l 1
 199 324 l 1
228 324 m 1
 256 324 l 1
 256 353 l 1
 228 353 l 1
 228 324 l 1
28 296 m 1
 57 296 l 1
 57 324 l 1
 28 324 l 1
 28 296 l 1
57 296 m 1
 85 296 l 1
 85 324 l 1
 57 324 l 1
 57 296 l 1
228 296 m 1
 256 296 l 1
 256 324 l 1
 228 324 l 1
 228 296 l 1
28 267 m 1
 57 267 l 1
 57 296 l 1
 28 296 l 1
 28 267 l 1
57 267 m 1
 85 267 l 1
 85 296 l 1
 57 296 l 1
 57 267 l 1
85 267 m 1
 114 267 l 1
 114 296 l 1
 85 296 l 1
 85 267 l 1
199 267 m 1
 228 267 l 1
 228 296 l 1
 199 296 l 1
 199 267 l 1
28 239 m 1
 57 239 l 1
 57 267 l 1
 28 267 l 1
 28 239 l 1
57 239 m 1
 85 239 l 1
 85 267 l 1
 57 267 l 1
 57 239 l 1
85 239 m 1
 114 239 l 1
 114 267 l 1
 85 267 l 1
 85 239 l 1
199 239 m 1
 228 239 l 1
 228 267 l 1
 199 267 l 1
 199 239 l 1
57 210 m 1
 85 210 l 1
 85 239 l 1
 57 239 l 1
 57 210 l 1
85 210 m 1
 114 210 l 1
 114 239 l 1
 85 239 l 1
 85 210 l 1
114 210 m 1
 142 210 l 1
 142 239 l 1
 114 239 l 1
 114 210 l 1
171 210 m 1
 199 210 l 1
 199 239 l 1
 171 239 l 1
 171 210 l 1
85 182 m 1
 114 182 l 1
 114 210 l 1
 85 210 l 1
 85 182 l 1
114 182 m 1
 142 182 l 1
 142 210 l 1
 114 210 l 1
 114 182 l 1
142 182 m 1
 171 182 l 1
 171 210 l 1
 142 210 l 1
 142 182 l 1
114 154 m 1
 142 154 l 1
 142 182 l 1
 114 182 l 1
 114 154 l 1
142 154 m 1
 171 154 l 1
 171 182 l 1
 142 182 l 1
 142 154 l 1
171 154 m 1
 199 154 l 1
 199 182 l 1
 171 182 l 1
 171 154 l 1
114 125 m 1
 142 125 l 1
 142 154 l 1
 114 154 l 1
 114 125 l 1
142 125 m 1
 171 125 l 1
 171 154 l 1
 142 154 l 1
 142 125 l 1
171 125 m 1
 199 125 l 1
 199 154 l 1
 171 154 l 1
 171 125 l 1
199 125 m 1
 228 125 l 1
 228 154 l 1
 199 154 l 1
 199 125 l 1
85 97 m 1
 114 97 l 1
 114 125 l 1
 85 125 l 1
 85 97 l 1
142 97 m 1
 171 97 l 1
 171 125 l 1
 142 125 l 1
 142 97 l 1
171 97 m 1
 199 97 l 1
 199 125 l 1
 171 125 l 1
 171 97 l 1
199 97 m 1
 228 97 l 1
 228 125 l 1
 199 125 l 1
 199 97 l 1
228 97 m 1
 256 97 l 1
 256 125 l 1
 228 125 l 1
 228 97 l 1
85 68 m 1
 114 68 l 1
 114 97 l 1
 85 97 l 1
 85 68 l 1
171 68 m 1
 199 68 l 1
 199 97 l 1
 171 97 l 1
 171 68 l 1
199 68 m 1
 228 68 l 1
 228 97 l 1
 199 97 l 1
 199 68 l 1
228 68 m 1
 256 68 l 1
 256 97 l 1
 228 97 l 1
 228 68 l 1
57 40 m 1
 85 40 l 1
 85 68 l 1
 57 68 l 1
 57 40 l 1
199 40 m 1
 228 40 l 1
 228 68 l 1
 199 68 l 1
 199 40 l 1
228 40 m 1
 256 40 l 1
 256 68 l 1
 228 68 l 1
 228 40 l 1
28 11 m 1
 57 11 l 1
 57 40 l 1
 28 40 l 1
 28 11 l 1
57 11 m 1
 85 11 l 1
 85 40 l 1
 57 40 l 1
 57 11 l 1
171 11 m 1
 199 11 l 1
 199 40 l 1
 171 40 l 1
 171 11 l 1
199 11 m 1
 228 11 l 1
 228 40 l 1
 199 40 l 1
 199 11 l 1
228 11 m 1
 256 11 l 1
 256 40 l 1
 228 40 l 1
 228 11 l 1
EndSplineSet
Validated: 5
EndChar

StartChar: M
Encoding: 77 77 41
Width: 262
Flags: HW
LayerCount: 2
Fore
SplineSet
28 324 m 1
 57 324 l 1
 57 353 l 1
 28 353 l 1
 28 324 l 1
57 324 m 1
 85 324 l 1
 85 353 l 1
 57 353 l 1
 57 324 l 1
171 324 m 1
 199 324 l 1
 199 353 l 1
 171 353 l 1
 171 324 l 1
199 324 m 1
 228 324 l 1
 228 353 l 1
 199 353 l 1
 199 324 l 1
228 324 m 1
 256 324 l 1
 256 353 l 1
 228 353 l 1
 228 324 l 1
28 296 m 1
 57 296 l 1
 57 324 l 1
 28 324 l 1
 28 296 l 1
57 296 m 1
 85 296 l 1
 85 324 l 1
 57 324 l 1
 57 296 l 1
171 296 m 1
 199 296 l 1
 199 324 l 1
 171 324 l 1
 171 296 l 1
199 296 m 1
 228 296 l 1
 228 324 l 1
 199 324 l 1
 199 296 l 1
228 296 m 1
 256 296 l 1
 256 324 l 1
 228 324 l 1
 228 296 l 1
28 267 m 1
 57 267 l 1
 57 296 l 1
 28 296 l 1
 28 267 l 1
57 267 m 1
 85 267 l 1
 85 296 l 1
 57 296 l 1
 57 267 l 1
85 267 m 1
 114 267 l 1
 114 296 l 1
 85 296 l 1
 85 267 l 1
142 267 m 1
 171 267 l 1
 171 296 l 1
 142 296 l 1
 142 267 l 1
199 267 m 1
 228 267 l 1
 228 296 l 1
 199 296 l 1
 199 267 l 1
228 267 m 1
 256 267 l 1
 256 296 l 1
 228 296 l 1
 228 267 l 1
28 239 m 1
 57 239 l 1
 57 267 l 1
 28 267 l 1
 28 239 l 1
57 239 m 1
 85 239 l 1
 85 267 l 1
 57 267 l 1
 57 239 l 1
85 239 m 1
 114 239 l 1
 114 267 l 1
 85 267 l 1
 85 239 l 1
142 239 m 1
 171 239 l 1
 171 267 l 1
 142 267 l 1
 142 239 l 1
199 239 m 1
 228 239 l 1
 228 267 l 1
 199 267 l 1
 199 239 l 1
228 239 m 1
 256 239 l 1
 256 267 l 1
 228 267 l 1
 228 239 l 1
28 210 m 1
 57 210 l 1
 57 239 l 1
 28 239 l 1
 28 210 l 1
57 210 m 1
 85 210 l 1
 85 239 l 1
 57 239 l 1
 57 210 l 1
85 210 m 1
 114 210 l 1
 114 239 l 1
 85 239 l 1
 85 210 l 1
142 210 m 1
 171 210 l 1
 171 239 l 1
 142 239 l 1
 142 210 l 1
199 210 m 1
 228 210 l 1
 228 239 l 1
 199 239 l 1
 199 210 l 1
228 210 m 1
 256 210 l 1
 256 239 l 1
 228 239 l 1
 228 210 l 1
28 182 m 1
 57 182 l 1
 57 210 l 1
 28 210 l 1
 28 182 l 1
57 182 m 1
 85 182 l 1
 85 210 l 1
 57 210 l 1
 57 182 l 1
85 182 m 1
 114 182 l 1
 114 210 l 1
 85 210 l 1
 85 182 l 1
114 182 m 1
 142 182 l 1
 142 210 l 1
 114 210 l 1
 114 182 l 1
142 182 m 1
 171 182 l 1
 171 210 l 1
 142 210 l 1
 142 182 l 1
199 182 m 1
 228 182 l 1
 228 210 l 1
 199 210 l 1
 199 182 l 1
228 182 m 1
 256 182 l 1
 256 210 l 1
 228 210 l 1
 228 182 l 1
28 154 m 1
 57 154 l 1
 57 182 l 1
 28 182 l 1
 28 154 l 1
57 154 m 1
 85 154 l 1
 85 182 l 1
 57 182 l 1
 57 154 l 1
85 154 m 1
 114 154 l 1
 114 182 l 1
 85 182 l 1
 85 154 l 1
114 154 m 1
 142 154 l 1
 142 182 l 1
 114 182 l 1
 114 154 l 1
199 154 m 1
 228 154 l 1
 228 182 l 1
 199 182 l 1
 199 154 l 1
228 154 m 1
 256 154 l 1
 256 182 l 1
 228 182 l 1
 228 154 l 1
28 125 m 1
 57 125 l 1
 57 154 l 1
 28 154 l 1
 28 125 l 1
85 125 m 1
 114 125 l 1
 114 154 l 1
 85 154 l 1
 85 125 l 1
114 125 m 1
 142 125 l 1
 142 154 l 1
 114 154 l 1
 114 125 l 1
199 125 m 1
 228 125 l 1
 228 154 l 1
 199 154 l 1
 199 125 l 1
228 125 m 1
 256 125 l 1
 256 154 l 1
 228 154 l 1
 228 125 l 1
28 97 m 1
 57 97 l 1
 57 125 l 1
 28 125 l 1
 28 97 l 1
85 97 m 1
 114 97 l 1
 114 125 l 1
 85 125 l 1
 85 97 l 1
114 97 m 1
 142 97 l 1
 142 125 l 1
 114 125 l 1
 114 97 l 1
199 97 m 1
 228 97 l 1
 228 125 l 1
 199 125 l 1
 199 97 l 1
228 97 m 1
 256 97 l 1
 256 125 l 1
 228 125 l 1
 228 97 l 1
28 68 m 1
 57 68 l 1
 57 97 l 1
 28 97 l 1
 28 68 l 1
114 68 m 1
 142 68 l 1
 142 97 l 1
 114 97 l 1
 114 68 l 1
199 68 m 1
 228 68 l 1
 228 97 l 1
 199 97 l 1
 199 68 l 1
228 68 m 1
 256 68 l 1
 256 97 l 1
 228 97 l 1
 228 68 l 1
28 40 m 1
 57 40 l 1
 57 68 l 1
 28 68 l 1
 28 40 l 1
114 40 m 1
 142 40 l 1
 142 68 l 1
 114 68 l 1
 114 40 l 1
199 40 m 1
 228 40 l 1
 228 68 l 1
 199 68 l 1
 199 40 l 1
228 40 m 1
 256 40 l 1
 256 68 l 1
 228 68 l 1
 228 40 l 1
28 11 m 1
 57 11 l 1
 57 40 l 1
 28 40 l 1
 28 11 l 1
57 11 m 1
 85 11 l 1
 85 40 l 1
 57 40 l 1
 57 11 l 1
171 11 m 1
 199 11 l 1
 199 40 l 1
 171 40 l 1
 171 11 l 1
199 11 m 1
 228 11 l 1
 228 40 l 1
 199 40 l 1
 199 11 l 1
228 11 m 1
 256 11 l 1
 256 40 l 1
 228 40 l 1
 228 11 l 1
EndSplineSet
Validated: 5
EndChar

StartChar: P
Encoding: 80 80 42
Width: 262
Flags: HW
LayerCount: 2
Fore
SplineSet
28 324 m 1
 57 324 l 1
 57 353 l 1
 28 353 l 1
 28 324 l 1
57 324 m 1
 85 324 l 1
 85 353 l 1
 57 353 l 1
 57 324 l 1
85 324 m 1
 114 324 l 1
 114 353 l 1
 85 353 l 1
 85 324 l 1
114 324 m 1
 142 324 l 1
 142 353 l 1
 114 353 l 1
 114 324 l 1
142 324 m 1
 171 324 l 1
 171 353 l 1
 142 353 l 1
 142 324 l 1
171 324 m 1
 199 324 l 1
 199 353 l 1
 171 353 l 1
 171 324 l 1
57 296 m 1
 85 296 l 1
 85 324 l 1
 57 324 l 1
 57 296 l 1
85 296 m 1
 114 296 l 1
 114 324 l 1
 85 324 l 1
 85 296 l 1
142 296 m 1
 171 296 l 1
 171 324 l 1
 142 324 l 1
 142 296 l 1
171 296 m 1
 199 296 l 1
 199 324 l 1
 171 324 l 1
 171 296 l 1
199 296 m 1
 228 296 l 1
 228 324 l 1
 199 324 l 1
 199 296 l 1
57 267 m 1
 85 267 l 1
 85 296 l 1
 57 296 l 1
 57 267 l 1
85 267 m 1
 114 267 l 1
 114 296 l 1
 85 296 l 1
 85 267 l 1
171 267 m 1
 199 267 l 1
 199 296 l 1
 171 296 l 1
 171 267 l 1
199 267 m 1
 228 267 l 1
 228 296 l 1
 199 296 l 1
 199 267 l 1
228 267 m 1
 256 267 l 1
 256 296 l 1
 228 296 l 1
 228 267 l 1
57 239 m 1
 85 239 l 1
 85 267 l 1
 57 267 l 1
 57 239 l 1
85 239 m 1
 114 239 l 1
 114 267 l 1
 85 267 l 1
 85 239 l 1
171 239 m 1
 199 239 l 1
 199 267 l 1
 171 267 l 1
 171 239 l 1
199 239 m 1
 228 239 l 1
 228 267 l 1
 199 267 l 1
 199 239 l 1
228 239 m 1
 256 239 l 1
 256 267 l 1
 228 267 l 1
 228 239 l 1
57 210 m 1
 85 210 l 1
 85 239 l 1
 57 239 l 1
 57 210 l 1
85 210 m 1
 114 210 l 1
 114 239 l 1
 85 239 l 1
 85 210 l 1
171 210 m 1
 199 210 l 1
 199 239 l 1
 171 239 l 1
 171 210 l 1
199 210 m 1
 228 210 l 1
 228 239 l 1
 199 239 l 1
 199 210 l 1
228 210 m 1
 256 210 l 1
 256 239 l 1
 228 239 l 1
 228 210 l 1
57 182 m 1
 85 182 l 1
 85 210 l 1
 57 210 l 1
 57 182 l 1
85 182 m 1
 114 182 l 1
 114 210 l 1
 85 210 l 1
 85 182 l 1
142 182 m 1
 171 182 l 1
 171 210 l 1
 142 210 l 1
 142 182 l 1
171 182 m 1
 199 182 l 1
 199 210 l 1
 171 210 l 1
 171 182 l 1
199 182 m 1
 228 182 l 1
 228 210 l 1
 199 210 l 1
 199 182 l 1
57 154 m 1
 85 154 l 1
 85 182 l 1
 57 182 l 1
 57 154 l 1
85 154 m 1
 114 154 l 1
 114 182 l 1
 85 182 l 1
 85 154 l 1
114 154 m 1
 142 154 l 1
 142 182 l 1
 114 182 l 1
 114 154 l 1
142 154 m 1
 171 154 l 1
 171 182 l 1
 142 182 l 1
 142 154 l 1
171 154 m 1
 199 154 l 1
 199 182 l 1
 171 182 l 1
 171 154 l 1
57 125 m 1
 85 125 l 1
 85 154 l 1
 57 154 l 1
 57 125 l 1
85 125 m 1
 114 125 l 1
 114 154 l 1
 85 154 l 1
 85 125 l 1
57 97 m 1
 85 97 l 1
 85 125 l 1
 57 125 l 1
 57 97 l 1
85 97 m 1
 114 97 l 1
 114 125 l 1
 85 125 l 1
 85 97 l 1
57 68 m 1
 85 68 l 1
 85 97 l 1
 57 97 l 1
 57 68 l 1
85 68 m 1
 114 68 l 1
 114 97 l 1
 85 97 l 1
 85 68 l 1
57 40 m 1
 85 40 l 1
 85 68 l 1
 57 68 l 1
 57 40 l 1
85 40 m 1
 114 40 l 1
 114 68 l 1
 85 68 l 1
 85 40 l 1
28 11 m 1
 57 11 l 1
 57 40 l 1
 28 40 l 1
 28 11 l 1
57 11 m 1
 85 11 l 1
 85 40 l 1
 57 40 l 1
 57 11 l 1
85 11 m 1
 114 11 l 1
 114 40 l 1
 85 40 l 1
 85 11 l 1
114 11 m 1
 142 11 l 1
 142 40 l 1
 114 40 l 1
 114 11 l 1
EndSplineSet
Validated: 5
EndChar

StartChar: S
Encoding: 83 83 43
Width: 262
Flags: HW
LayerCount: 2
Fore
SplineSet
85 324 m 1
 114 324 l 1
 114 353 l 1
 85 353 l 1
 85 324 l 1
114 324 m 1
 142 324 l 1
 142 353 l 1
 114 353 l 1
 114 324 l 1
142 324 m 1
 171 324 l 1
 171 353 l 1
 142 353 l 1
 142 324 l 1
171 324 m 1
 199 324 l 1
 199 353 l 1
 171 353 l 1
 171 324 l 1
199 324 m 1
 228 324 l 1
 228 353 l 1
 199 353 l 1
 199 324 l 1
57 296 m 1
 85 296 l 1
 85 324 l 1
 57 324 l 1
 57 296 l 1
85 296 m 1
 114 296 l 1
 114 324 l 1
 85 324 l 1
 85 296 l 1
171 296 m 1
 199 296 l 1
 199 324 l 1
 171 324 l 1
 171 296 l 1
199 296 m 1
 228 296 l 1
 228 324 l 1
 199 324 l 1
 199 296 l 1
228 296 m 1
 256 296 l 1
 256 324 l 1
 228 324 l 1
 228 296 l 1
28 267 m 1
 57 267 l 1
 57 296 l 1
 28 296 l 1
 28 267 l 1
57 267 m 1
 85 267 l 1
 85 296 l 1
 57 296 l 1
 57 267 l 1
199 267 m 1
 228 267 l 1
 228 296 l 1
 199 296 l 1
 199 267 l 1
228 267 m 1
 256 267 l 1
 256 296 l 1
 228 296 l 1
 228 267 l 1
28 239 m 1
 57 239 l 1
 57 267 l 1
 28 267 l 1
 28 239 l 1
57 239 m 1
 85 239 l 1
 85 267 l 1
 57 267 l 1
 57 239 l 1
85 239 m 1
 114 239 l 1
 114 267 l 1
 85 267 l 1
 85 239 l 1
228 239 m 1
 256 239 l 1
 256 267 l 1
 228 267 l 1
 228 239 l 1
28 210 m 1
 57 210 l 1
 57 239 l 1
 28 239 l 1
 28 210 l 1
57 210 m 1
 85 210 l 1
 85 239 l 1
 57 239 l 1
 57 210 l 1
85 210 m 1
 114 210 l 1
 114 239 l 1
 85 239 l 1
 85 210 l 1
114 210 m 1
 142 210 l 1
 142 239 l 1
 114 239 l 1
 114 210 l 1
57 182 m 1
 85 182 l 1
 85 210 l 1
 57 210 l 1
 57 182 l 1
85 182 m 1
 114 182 l 1
 114 210 l 1
 85 210 l 1
 85 182 l 1
114 182 m 1
 142 182 l 1
 142 210 l 1
 114 210 l 1
 114 182 l 1
142 182 m 1
 171 182 l 1
 171 210 l 1
 142 210 l 1
 142 182 l 1
171 182 m 1
 199 182 l 1
 199 210 l 1
 171 210 l 1
 171 182 l 1
85 154 m 1
 114 154 l 1
 114 182 l 1
 85 182 l 1
 85 154 l 1
114 154 m 1
 142 154 l 1
 142 182 l 1
 114 182 l 1
 114 154 l 1
142 154 m 1
 171 154 l 1
 171 182 l 1
 142 182 l 1
 142 154 l 1
171 154 m 1
 199 154 l 1
 199 182 l 1
 171 182 l 1
 171 154 l 1
199 154 m 1
 228 154 l 1
 228 182 l 1
 199 182 l 1
 199 154 l 1
142 125 m 1
 171 125 l 1
 171 154 l 1
 142 154 l 1
 142 125 l 1
171 125 m 1
 199 125 l 1
 199 154 l 1
 171 154 l 1
 171 125 l 1
199 125 m 1
 228 125 l 1
 228 154 l 1
 199 154 l 1
 199 125 l 1
228 125 m 1
 256 125 l 1
 256 154 l 1
 228 154 l 1
 228 125 l 1
28 97 m 1
 57 97 l 1
 57 125 l 1
 28 125 l 1
 28 97 l 1
171 97 m 1
 199 97 l 1
 199 125 l 1
 171 125 l 1
 171 97 l 1
199 97 m 1
 228 97 l 1
 228 125 l 1
 199 125 l 1
 199 97 l 1
228 97 m 1
 256 97 l 1
 256 125 l 1
 228 125 l 1
 228 97 l 1
28 68 m 1
 57 68 l 1
 57 97 l 1
 28 97 l 1
 28 68 l 1
57 68 m 1
 85 68 l 1
 85 97 l 1
 57 97 l 1
 57 68 l 1
199 68 m 1
 228 68 l 1
 228 97 l 1
 199 97 l 1
 199 68 l 1
228 68 m 1
 256 68 l 1
 256 97 l 1
 228 97 l 1
 228 68 l 1
28 40 m 1
 57 40 l 1
 57 68 l 1
 28 68 l 1
 28 40 l 1
57 40 m 1
 85 40 l 1
 85 68 l 1
 57 68 l 1
 57 40 l 1
85 40 m 1
 114 40 l 1
 114 68 l 1
 85 68 l 1
 85 40 l 1
171 40 m 1
 199 40 l 1
 199 68 l 1
 171 68 l 1
 171 40 l 1
199 40 m 1
 228 40 l 1
 228 68 l 1
 199 68 l 1
 199 40 l 1
57 11 m 1
 85 11 l 1
 85 40 l 1
 57 40 l 1
 57 11 l 1
85 11 m 1
 114 11 l 1
 114 40 l 1
 85 40 l 1
 85 11 l 1
114 11 m 1
 142 11 l 1
 142 40 l 1
 114 40 l 1
 114 11 l 1
142 11 m 1
 171 11 l 1
 171 40 l 1
 142 40 l 1
 142 11 l 1
171 11 m 1
 199 11 l 1
 199 40 l 1
 171 40 l 1
 171 11 l 1
EndSplineSet
Validated: 5
EndChar

StartChar: V
Encoding: 86 86 44
Width: 262
Flags: HW
LayerCount: 2
Fore
SplineSet
28 324 m 1
 57 324 l 1
 57 353 l 1
 28 353 l 1
 28 324 l 1
57 324 m 1
 85 324 l 1
 85 353 l 1
 57 353 l 1
 57 324 l 1
85 324 m 1
 114 324 l 1
 114 353 l 1
 85 353 l 1
 85 324 l 1
199 324 m 1
 228 324 l 1
 228 353 l 1
 199 353 l 1
 199 324 l 1
228 324 m 1
 256 324 l 1
 256 353 l 1
 228 353 l 1
 228 324 l 1
28 296 m 1
 57 296 l 1
 57 324 l 1
 28 324 l 1
 28 296 l 1
57 296 m 1
 85 296 l 1
 85 324 l 1
 57 324 l 1
 57 296 l 1
228 296 m 1
 256 296 l 1
 256 324 l 1
 228 324 l 1
 228 296 l 1
28 267 m 1
 57 267 l 1
 57 296 l 1
 28 296 l 1
 28 267 l 1
57 267 m 1
 85 267 l 1
 85 296 l 1
 57 296 l 1
 57 267 l 1
228 267 m 1
 256 267 l 1
 256 296 l 1
 228 296 l 1
 228 267 l 1
28 239 m 1
 57 239 l 1
 57 267 l 1
 28 267 l 1
 28 239 l 1
57 239 m 1
 85 239 l 1
 85 267 l 1
 57 267 l 1
 57 239 l 1
85 239 m 1
 114 239 l 1
 114 267 l 1
 85 267 l 1
 85 239 l 1
199 239 m 1
 228 239 l 1
 228 267 l 1
 199 267 l 1
 199 239 l 1
28 210 m 1
 57 210 l 1
 57 239 l 1
 28 239 l 1
 28 210 l 1
57 210 m 1
 85 210 l 1
 85 239 l 1
 57 239 l 1
 57 210 l 1
85 210 m 1
 114 210 l 1
 114 239 l 1
 85 239 l 1
 85 210 l 1
199 210 m 1
 228 210 l 1
 228 239 l 1
 199 239 l 1
 199 210 l 1
57 182 m 1
 85 182 l 1
 85 210 l 1
 57 210 l 1
 57 182 l 1
85 182 m 1
 114 182 l 1
 114 210 l 1
 85 210 l 1
 85 182 l 1
199 182 m 1
 228 182 l 1
 228 210 l 1
 199 210 l 1
 199 182 l 1
57 154 m 1
 85 154 l 1
 85 182 l 1
 57 182 l 1
 57 154 l 1
85 154 m 1
 114 154 l 1
 114 182 l 1
 85 182 l 1
 85 154 l 1
114 154 m 1
 142 154 l 1
 142 182 l 1
 114 182 l 1
 114 154 l 1
171 154 m 1
 199 154 l 1
 199 182 l 1
 171 182 l 1
 171 154 l 1
85 125 m 1
 114 125 l 1
 114 154 l 1
 85 154 l 1
 85 125 l 1
114 125 m 1
 142 125 l 1
 142 154 l 1
 114 154 l 1
 114 125 l 1
171 125 m 1
 199 125 l 1
 199 154 l 1
 171 154 l 1
 171 125 l 1
85 97 m 1
 114 97 l 1
 114 125 l 1
 85 125 l 1
 85 97 l 1
114 97 m 1
 142 97 l 1
 142 125 l 1
 114 125 l 1
 114 97 l 1
171 97 m 1
 199 97 l 1
 199 125 l 1
 171 125 l 1
 171 97 l 1
85 68 m 1
 114 68 l 1
 114 97 l 1
 85 97 l 1
 85 68 l 1
114 68 m 1
 142 68 l 1
 142 97 l 1
 114 97 l 1
 114 68 l 1
142 68 m 1
 171 68 l 1
 171 97 l 1
 142 97 l 1
 142 68 l 1
114 40 m 1
 142 40 l 1
 142 68 l 1
 114 68 l 1
 114 40 l 1
142 40 m 1
 171 40 l 1
 171 68 l 1
 142 68 l 1
 142 40 l 1
114 11 m 1
 142 11 l 1
 142 40 l 1
 114 40 l 1
 114 11 l 1
142 11 m 1
 171 11 l 1
 171 40 l 1
 142 40 l 1
 142 11 l 1
EndSplineSet
Validated: 5
EndChar

StartChar: L
Encoding: 76 76 45
Width: 262
Flags: HW
LayerCount: 2
Fore
SplineSet
28 324 m 1
 57 324 l 1
 57 353 l 1
 28 353 l 1
 28 324 l 1
57 324 m 1
 85 324 l 1
 85 353 l 1
 57 353 l 1
 57 324 l 1
85 324 m 1
 114 324 l 1
 114 353 l 1
 85 353 l 1
 85 324 l 1
114 324 m 1
 142 324 l 1
 142 353 l 1
 114 353 l 1
 114 324 l 1
57 296 m 1
 85 296 l 1
 85 324 l 1
 57 324 l 1
 57 296 l 1
85 296 m 1
 114 296 l 1
 114 324 l 1
 85 324 l 1
 85 296 l 1
57 267 m 1
 85 267 l 1
 85 296 l 1
 57 296 l 1
 57 267 l 1
85 267 m 1
 114 267 l 1
 114 296 l 1
 85 296 l 1
 85 267 l 1
57 239 m 1
 85 239 l 1
 85 267 l 1
 57 267 l 1
 57 239 l 1
85 239 m 1
 114 239 l 1
 114 267 l 1
 85 267 l 1
 85 239 l 1
57 210 m 1
 85 210 l 1
 85 239 l 1
 57 239 l 1
 57 210 l 1
85 210 m 1
 114 210 l 1
 114 239 l 1
 85 239 l 1
 85 210 l 1
57 182 m 1
 85 182 l 1
 85 210 l 1
 57 210 l 1
 57 182 l 1
85 182 m 1
 114 182 l 1
 114 210 l 1
 85 210 l 1
 85 182 l 1
57 154 m 1
 85 154 l 1
 85 182 l 1
 57 182 l 1
 57 154 l 1
85 154 m 1
 114 154 l 1
 114 182 l 1
 85 182 l 1
 85 154 l 1
57 125 m 1
 85 125 l 1
 85 154 l 1
 57 154 l 1
 57 125 l 1
85 125 m 1
 114 125 l 1
 114 154 l 1
 85 154 l 1
 85 125 l 1
57 97 m 1
 85 97 l 1
 85 125 l 1
 57 125 l 1
 57 97 l 1
85 97 m 1
 114 97 l 1
 114 125 l 1
 85 125 l 1
 85 97 l 1
57 68 m 1
 85 68 l 1
 85 97 l 1
 57 97 l 1
 57 68 l 1
85 68 m 1
 114 68 l 1
 114 97 l 1
 85 97 l 1
 85 68 l 1
228 68 m 1
 256 68 l 1
 256 97 l 1
 228 97 l 1
 228 68 l 1
57 40 m 1
 85 40 l 1
 85 68 l 1
 57 68 l 1
 57 40 l 1
85 40 m 1
 114 40 l 1
 114 68 l 1
 85 68 l 1
 85 40 l 1
114 40 m 1
 142 40 l 1
 142 68 l 1
 114 68 l 1
 114 40 l 1
199 40 m 1
 228 40 l 1
 228 68 l 1
 199 68 l 1
 199 40 l 1
228 40 m 1
 256 40 l 1
 256 68 l 1
 228 68 l 1
 228 40 l 1
28 11 m 1
 57 11 l 1
 57 40 l 1
 28 40 l 1
 28 11 l 1
57 11 m 1
 85 11 l 1
 85 40 l 1
 57 40 l 1
 57 11 l 1
85 11 m 1
 114 11 l 1
 114 40 l 1
 85 40 l 1
 85 11 l 1
114 11 m 1
 142 11 l 1
 142 40 l 1
 114 40 l 1
 114 11 l 1
142 11 m 1
 171 11 l 1
 171 40 l 1
 142 40 l 1
 142 11 l 1
171 11 m 1
 199 11 l 1
 199 40 l 1
 171 40 l 1
 171 11 l 1
199 11 m 1
 228 11 l 1
 228 40 l 1
 199 40 l 1
 199 11 l 1
228 11 m 1
 256 11 l 1
 256 40 l 1
 228 40 l 1
 228 11 l 1
EndSplineSet
Validated: 5
EndChar

StartChar: Z
Encoding: 90 90 46
Width: 262
Flags: HW
LayerCount: 2
Fore
SplineSet
28 324 m 1
 57 324 l 1
 57 353 l 1
 28 353 l 1
 28 324 l 1
57 324 m 1
 85 324 l 1
 85 353 l 1
 57 353 l 1
 57 324 l 1
85 324 m 1
 114 324 l 1
 114 353 l 1
 85 353 l 1
 85 324 l 1
114 324 m 1
 142 324 l 1
 142 353 l 1
 114 353 l 1
 114 324 l 1
142 324 m 1
 171 324 l 1
 171 353 l 1
 142 353 l 1
 142 324 l 1
171 324 m 1
 199 324 l 1
 199 353 l 1
 171 353 l 1
 171 324 l 1
199 324 m 1
 228 324 l 1
 228 353 l 1
 199 353 l 1
 199 324 l 1
228 324 m 1
 256 324 l 1
 256 353 l 1
 228 353 l 1
 228 324 l 1
28 296 m 1
 57 296 l 1
 57 324 l 1
 28 324 l 1
 28 296 l 1
57 296 m 1
 85 296 l 1
 85 324 l 1
 57 324 l 1
 57 296 l 1
199 296 m 1
 228 296 l 1
 228 324 l 1
 199 324 l 1
 199 296 l 1
228 296 m 1
 256 296 l 1
 256 324 l 1
 228 324 l 1
 228 296 l 1
28 267 m 1
 57 267 l 1
 57 296 l 1
 28 296 l 1
 28 267 l 1
171 267 m 1
 199 267 l 1
 199 296 l 1
 171 296 l 1
 171 267 l 1
199 267 m 1
 228 267 l 1
 228 296 l 1
 199 296 l 1
 199 267 l 1
228 267 m 1
 256 267 l 1
 256 296 l 1
 228 296 l 1
 228 267 l 1
142 239 m 1
 171 239 l 1
 171 267 l 1
 142 267 l 1
 142 239 l 1
171 239 m 1
 199 239 l 1
 199 267 l 1
 171 267 l 1
 171 239 l 1
199 239 m 1
 228 239 l 1
 228 267 l 1
 199 267 l 1
 199 239 l 1
114 210 m 1
 142 210 l 1
 142 239 l 1
 114 239 l 1
 114 210 l 1
142 210 m 1
 171 210 l 1
 171 239 l 1
 142 239 l 1
 142 210 l 1
171 210 m 1
 199 210 l 1
 199 239 l 1
 171 239 l 1
 171 210 l 1
199 210 m 1
 228 210 l 1
 228 239 l 1
 199 239 l 1
 199 210 l 1
114 182 m 1
 142 182 l 1
 142 210 l 1
 114 210 l 1
 114 182 l 1
142 182 m 1
 171 182 l 1
 171 210 l 1
 142 210 l 1
 142 182 l 1
171 182 m 1
 199 182 l 1
 199 210 l 1
 171 210 l 1
 171 182 l 1
85 154 m 1
 114 154 l 1
 114 182 l 1
 85 182 l 1
 85 154 l 1
114 154 m 1
 142 154 l 1
 142 182 l 1
 114 182 l 1
 114 154 l 1
142 154 m 1
 171 154 l 1
 171 182 l 1
 142 182 l 1
 142 154 l 1
57 125 m 1
 85 125 l 1
 85 154 l 1
 57 154 l 1
 57 125 l 1
85 125 m 1
 114 125 l 1
 114 154 l 1
 85 154 l 1
 85 125 l 1
114 125 m 1
 142 125 l 1
 142 154 l 1
 114 154 l 1
 114 125 l 1
28 97 m 1
 57 97 l 1
 57 125 l 1
 28 125 l 1
 28 97 l 1
57 97 m 1
 85 97 l 1
 85 125 l 1
 57 125 l 1
 57 97 l 1
85 97 m 1
 114 97 l 1
 114 125 l 1
 85 125 l 1
 85 97 l 1
28 68 m 1
 57 68 l 1
 57 97 l 1
 28 97 l 1
 28 68 l 1
57 68 m 1
 85 68 l 1
 85 97 l 1
 57 97 l 1
 57 68 l 1
85 68 m 1
 114 68 l 1
 114 97 l 1
 85 97 l 1
 85 68 l 1
228 68 m 1
 256 68 l 1
 256 97 l 1
 228 97 l 1
 228 68 l 1
28 40 m 1
 57 40 l 1
 57 68 l 1
 28 68 l 1
 28 40 l 1
57 40 m 1
 85 40 l 1
 85 68 l 1
 57 68 l 1
 57 40 l 1
199 40 m 1
 228 40 l 1
 228 68 l 1
 199 68 l 1
 199 40 l 1
228 40 m 1
 256 40 l 1
 256 68 l 1
 228 68 l 1
 228 40 l 1
28 11 m 1
 57 11 l 1
 57 40 l 1
 28 40 l 1
 28 11 l 1
57 11 m 1
 85 11 l 1
 85 40 l 1
 57 40 l 1
 57 11 l 1
85 11 m 1
 114 11 l 1
 114 40 l 1
 85 40 l 1
 85 11 l 1
114 11 m 1
 142 11 l 1
 142 40 l 1
 114 40 l 1
 114 11 l 1
142 11 m 1
 171 11 l 1
 171 40 l 1
 142 40 l 1
 142 11 l 1
171 11 m 1
 199 11 l 1
 199 40 l 1
 171 40 l 1
 171 11 l 1
199 11 m 1
 228 11 l 1
 228 40 l 1
 199 40 l 1
 199 11 l 1
228 11 m 1
 256 11 l 1
 256 40 l 1
 228 40 l 1
 228 11 l 1
EndSplineSet
Validated: 5
EndChar

StartChar: Y
Encoding: 89 89 47
Width: 262
Flags: HW
LayerCount: 2
Fore
SplineSet
28 324 m 1
 57 324 l 1
 57 353 l 1
 28 353 l 1
 28 324 l 1
57 324 m 1
 85 324 l 1
 85 353 l 1
 57 353 l 1
 57 324 l 1
85 324 m 1
 114 324 l 1
 114 353 l 1
 85 353 l 1
 85 324 l 1
199 324 m 1
 228 324 l 1
 228 353 l 1
 199 353 l 1
 199 324 l 1
228 324 m 1
 256 324 l 1
 256 353 l 1
 228 353 l 1
 228 324 l 1
28 296 m 1
 57 296 l 1
 57 324 l 1
 28 324 l 1
 28 296 l 1
57 296 m 1
 85 296 l 1
 85 324 l 1
 57 324 l 1
 57 296 l 1
228 296 m 1
 256 296 l 1
 256 324 l 1
 228 324 l 1
 228 296 l 1
28 267 m 1
 57 267 l 1
 57 296 l 1
 28 296 l 1
 28 267 l 1
57 267 m 1
 85 267 l 1
 85 296 l 1
 57 296 l 1
 57 267 l 1
199 267 m 1
 228 267 l 1
 228 296 l 1
 199 296 l 1
 199 267 l 1
28 239 m 1
 57 239 l 1
 57 267 l 1
 28 267 l 1
 28 239 l 1
57 239 m 1
 85 239 l 1
 85 267 l 1
 57 267 l 1
 57 239 l 1
85 239 m 1
 114 239 l 1
 114 267 l 1
 85 267 l 1
 85 239 l 1
199 239 m 1
 228 239 l 1
 228 267 l 1
 199 267 l 1
 199 239 l 1
57 210 m 1
 85 210 l 1
 85 239 l 1
 57 239 l 1
 57 210 l 1
85 210 m 1
 114 210 l 1
 114 239 l 1
 85 239 l 1
 85 210 l 1
114 210 m 1
 142 210 l 1
 142 239 l 1
 114 239 l 1
 114 210 l 1
171 210 m 1
 199 210 l 1
 199 239 l 1
 171 239 l 1
 171 210 l 1
85 182 m 1
 114 182 l 1
 114 210 l 1
 85 210 l 1
 85 182 l 1
114 182 m 1
 142 182 l 1
 142 210 l 1
 114 210 l 1
 114 182 l 1
142 182 m 1
 171 182 l 1
 171 210 l 1
 142 210 l 1
 142 182 l 1
171 182 m 1
 199 182 l 1
 199 210 l 1
 171 210 l 1
 171 182 l 1
114 154 m 1
 142 154 l 1
 142 182 l 1
 114 182 l 1
 114 154 l 1
142 154 m 1
 171 154 l 1
 171 182 l 1
 142 182 l 1
 142 154 l 1
114 125 m 1
 142 125 l 1
 142 154 l 1
 114 154 l 1
 114 125 l 1
142 125 m 1
 171 125 l 1
 171 154 l 1
 142 154 l 1
 142 125 l 1
114 97 m 1
 142 97 l 1
 142 125 l 1
 114 125 l 1
 114 97 l 1
142 97 m 1
 171 97 l 1
 171 125 l 1
 142 125 l 1
 142 97 l 1
114 68 m 1
 142 68 l 1
 142 97 l 1
 114 97 l 1
 114 68 l 1
142 68 m 1
 171 68 l 1
 171 97 l 1
 142 97 l 1
 142 68 l 1
114 40 m 1
 142 40 l 1
 142 68 l 1
 114 68 l 1
 114 40 l 1
142 40 m 1
 171 40 l 1
 171 68 l 1
 142 68 l 1
 142 40 l 1
85 11 m 1
 114 11 l 1
 114 40 l 1
 85 40 l 1
 85 11 l 1
114 11 m 1
 142 11 l 1
 142 40 l 1
 114 40 l 1
 114 11 l 1
142 11 m 1
 171 11 l 1
 171 40 l 1
 142 40 l 1
 142 11 l 1
171 11 m 1
 199 11 l 1
 199 40 l 1
 171 40 l 1
 171 11 l 1
EndSplineSet
Validated: 5
EndChar

StartChar: D
Encoding: 68 68 48
Width: 262
Flags: W
LayerCount: 2
Fore
SplineSet
28 324 m 1
 57 324 l 1
 57 353 l 1
 28 353 l 1
 28 324 l 1
57 324 m 1
 85 324 l 1
 85 353 l 1
 57 353 l 1
 57 324 l 1
85 324 m 1
 114 324 l 1
 114 353 l 1
 85 353 l 1
 85 324 l 1
114 324 m 1
 142 324 l 1
 142 353 l 1
 114 353 l 1
 114 324 l 1
142 324 m 1
 171 324 l 1
 171 353 l 1
 142 353 l 1
 142 324 l 1
171 324 m 1
 199 324 l 1
 199 353 l 1
 171 353 l 1
 171 324 l 1
57 296 m 1
 85 296 l 1
 85 324 l 1
 57 324 l 1
 57 296 l 1
85 296 m 1
 114 296 l 1
 114 324 l 1
 85 324 l 1
 85 296 l 1
171 296 m 1
 199 296 l 1
 199 324 l 1
 171 324 l 1
 171 296 l 1
199 296 m 1
 228 296 l 1
 228 324 l 1
 199 324 l 1
 199 296 l 1
57 267 m 1
 85 267 l 1
 85 296 l 1
 57 296 l 1
 57 267 l 1
85 267 m 1
 114 267 l 1
 114 296 l 1
 85 296 l 1
 85 267 l 1
199 267 m 1
 228 267 l 1
 228 296 l 1
 199 296 l 1
 199 267 l 1
228 267 m 1
 256 267 l 1
 256 296 l 1
 228 296 l 1
 228 267 l 1
57 239 m 1
 85 239 l 1
 85 267 l 1
 57 267 l 1
 57 239 l 1
85 239 m 1
 114 239 l 1
 114 267 l 1
 85 267 l 1
 85 239 l 1
199 239 m 1
 228 239 l 1
 228 267 l 1
 199 267 l 1
 199 239 l 1
228 239 m 1
 256 239 l 1
 256 267 l 1
 228 267 l 1
 228 239 l 1
57 210 m 1
 85 210 l 1
 85 239 l 1
 57 239 l 1
 57 210 l 1
85 210 m 1
 114 210 l 1
 114 239 l 1
 85 239 l 1
 85 210 l 1
199 210 m 1
 228 210 l 1
 228 239 l 1
 199 239 l 1
 199 210 l 1
228 210 m 1
 256 210 l 1
 256 239 l 1
 228 239 l 1
 228 210 l 1
57 182 m 1
 85 182 l 1
 85 210 l 1
 57 210 l 1
 57 182 l 1
85 182 m 1
 114 182 l 1
 114 210 l 1
 85 210 l 1
 85 182 l 1
199 182 m 1
 228 182 l 1
 228 210 l 1
 199 210 l 1
 199 182 l 1
228 182 m 1
 256 182 l 1
 256 210 l 1
 228 210 l 1
 228 182 l 1
57 154 m 1
 85 154 l 1
 85 182 l 1
 57 182 l 1
 57 154 l 1
85 154 m 1
 114 154 l 1
 114 182 l 1
 85 182 l 1
 85 154 l 1
199 154 m 1
 228 154 l 1
 228 182 l 1
 199 182 l 1
 199 154 l 1
228 154 m 1
 256 154 l 1
 256 182 l 1
 228 182 l 1
 228 154 l 1
57 125 m 1
 85 125 l 1
 85 154 l 1
 57 154 l 1
 57 125 l 1
85 125 m 1
 114 125 l 1
 114 154 l 1
 85 154 l 1
 85 125 l 1
199 125 m 1
 228 125 l 1
 228 154 l 1
 199 154 l 1
 199 125 l 1
228 125 m 1
 256 125 l 1
 256 154 l 1
 228 154 l 1
 228 125 l 1
57 97 m 1
 85 97 l 1
 85 125 l 1
 57 125 l 1
 57 97 l 1
85 97 m 1
 114 97 l 1
 114 125 l 1
 85 125 l 1
 85 97 l 1
199 97 m 1
 228 97 l 1
 228 125 l 1
 199 125 l 1
 199 97 l 1
228 97 m 1
 256 97 l 1
 256 125 l 1
 228 125 l 1
 228 97 l 1
57 68 m 1
 85 68 l 1
 85 97 l 1
 57 97 l 1
 57 68 l 1
85 68 m 1
 114 68 l 1
 114 97 l 1
 85 97 l 1
 85 68 l 1
171 68 m 1
 199 68 l 1
 199 97 l 1
 171 97 l 1
 171 68 l 1
199 68 m 1
 228 68 l 1
 228 97 l 1
 199 97 l 1
 199 68 l 1
228 68 m 1
 256 68 l 1
 256 97 l 1
 228 97 l 1
 228 68 l 1
57 40 m 1
 85 40 l 1
 85 68 l 1
 57 68 l 1
 57 40 l 1
85 40 m 1
 114 40 l 1
 114 68 l 1
 85 68 l 1
 85 40 l 1
114 40 m 1
 142 40 l 1
 142 68 l 1
 114 68 l 1
 114 40 l 1
142 40 m 1
 171 40 l 1
 171 68 l 1
 142 68 l 1
 142 40 l 1
171 40 m 1
 199 40 l 1
 199 68 l 1
 171 68 l 1
 171 40 l 1
199 40 m 1
 228 40 l 1
 228 68 l 1
 199 68 l 1
 199 40 l 1
28 11 m 1
 57 11 l 1
 57 40 l 1
 28 40 l 1
 28 11 l 1
57 11 m 1
 85 11 l 1
 85 40 l 1
 57 40 l 1
 57 11 l 1
85 11 m 1
 114 11 l 1
 114 40 l 1
 85 40 l 1
 85 11 l 1
114 11 m 1
 142 11 l 1
 142 40 l 1
 114 40 l 1
 114 11 l 1
142 11 m 1
 171 11 l 1
 171 40 l 1
 142 40 l 1
 142 11 l 1
171 11 m 1
 199 11 l 1
 199 40 l 1
 171 40 l 1
 171 11 l 1
EndSplineSet
Validated: 5
EndChar

StartChar: G
Encoding: 71 71 49
Width: 262
Flags: HW
LayerCount: 2
Fore
SplineSet
85 324 m 1
 114 324 l 1
 114 353 l 1
 85 353 l 1
 85 324 l 1
114 324 m 1
 142 324 l 1
 142 353 l 1
 114 353 l 1
 114 324 l 1
142 324 m 1
 171 324 l 1
 171 353 l 1
 142 353 l 1
 142 324 l 1
171 324 m 1
 199 324 l 1
 199 353 l 1
 171 353 l 1
 171 324 l 1
199 324 m 1
 228 324 l 1
 228 353 l 1
 199 353 l 1
 199 324 l 1
57 296 m 1
 85 296 l 1
 85 324 l 1
 57 324 l 1
 57 296 l 1
85 296 m 1
 114 296 l 1
 114 324 l 1
 85 324 l 1
 85 296 l 1
114 296 m 1
 142 296 l 1
 142 324 l 1
 114 324 l 1
 114 296 l 1
199 296 m 1
 228 296 l 1
 228 324 l 1
 199 324 l 1
 199 296 l 1
228 296 m 1
 256 296 l 1
 256 324 l 1
 228 324 l 1
 228 296 l 1
28 267 m 1
 57 267 l 1
 57 296 l 1
 28 296 l 1
 28 267 l 1
57 267 m 1
 85 267 l 1
 85 296 l 1
 57 296 l 1
 57 267 l 1
85 267 m 1
 114 267 l 1
 114 296 l 1
 85 296 l 1
 85 267 l 1
228 267 m 1
 256 267 l 1
 256 296 l 1
 228 296 l 1
 228 267 l 1
28 239 m 1
 57 239 l 1
 57 267 l 1
 28 267 l 1
 28 239 l 1
57 239 m 1
 85 239 l 1
 85 267 l 1
 57 267 l 1
 57 239 l 1
85 239 m 1
 114 239 l 1
 114 267 l 1
 85 267 l 1
 85 239 l 1
28 210 m 1
 57 210 l 1
 57 239 l 1
 28 239 l 1
 28 210 l 1
57 210 m 1
 85 210 l 1
 85 239 l 1
 57 239 l 1
 57 210 l 1
85 210 m 1
 114 210 l 1
 114 239 l 1
 85 239 l 1
 85 210 l 1
28 182 m 1
 57 182 l 1
 57 210 l 1
 28 210 l 1
 28 182 l 1
57 182 m 1
 85 182 l 1
 85 210 l 1
 57 210 l 1
 57 182 l 1
85 182 m 1
 114 182 l 1
 114 210 l 1
 85 210 l 1
 85 182 l 1
28 154 m 1
 57 154 l 1
 57 182 l 1
 28 182 l 1
 28 154 l 1
57 154 m 1
 85 154 l 1
 85 182 l 1
 57 182 l 1
 57 154 l 1
85 154 m 1
 114 154 l 1
 114 182 l 1
 85 182 l 1
 85 154 l 1
171 154 m 1
 199 154 l 1
 199 182 l 1
 171 182 l 1
 171 154 l 1
199 154 m 1
 228 154 l 1
 228 182 l 1
 199 182 l 1
 199 154 l 1
228 154 m 1
 256 154 l 1
 256 182 l 1
 228 182 l 1
 228 154 l 1
28 125 m 1
 57 125 l 1
 57 154 l 1
 28 154 l 1
 28 125 l 1
57 125 m 1
 85 125 l 1
 85 154 l 1
 57 154 l 1
 57 125 l 1
85 125 m 1
 114 125 l 1
 114 154 l 1
 85 154 l 1
 85 125 l 1
199 125 m 1
 228 125 l 1
 228 154 l 1
 199 154 l 1
 199 125 l 1
228 125 m 1
 256 125 l 1
 256 154 l 1
 228 154 l 1
 228 125 l 1
28 97 m 1
 57 97 l 1
 57 125 l 1
 28 125 l 1
 28 97 l 1
57 97 m 1
 85 97 l 1
 85 125 l 1
 57 125 l 1
 57 97 l 1
85 97 m 1
 114 97 l 1
 114 125 l 1
 85 125 l 1
 85 97 l 1
199 97 m 1
 228 97 l 1
 228 125 l 1
 199 125 l 1
 199 97 l 1
228 97 m 1
 256 97 l 1
 256 125 l 1
 228 125 l 1
 228 97 l 1
28 68 m 1
 57 68 l 1
 57 97 l 1
 28 97 l 1
 28 68 l 1
57 68 m 1
 85 68 l 1
 85 97 l 1
 57 97 l 1
 57 68 l 1
85 68 m 1
 114 68 l 1
 114 97 l 1
 85 97 l 1
 85 68 l 1
114 68 m 1
 142 68 l 1
 142 97 l 1
 114 97 l 1
 114 68 l 1
199 68 m 1
 228 68 l 1
 228 97 l 1
 199 97 l 1
 199 68 l 1
228 68 m 1
 256 68 l 1
 256 97 l 1
 228 97 l 1
 228 68 l 1
57 40 m 1
 85 40 l 1
 85 68 l 1
 57 68 l 1
 57 40 l 1
85 40 m 1
 114 40 l 1
 114 68 l 1
 85 68 l 1
 85 40 l 1
114 40 m 1
 142 40 l 1
 142 68 l 1
 114 68 l 1
 114 40 l 1
142 40 m 1
 171 40 l 1
 171 68 l 1
 142 68 l 1
 142 40 l 1
199 40 m 1
 228 40 l 1
 228 68 l 1
 199 68 l 1
 199 40 l 1
228 40 m 1
 256 40 l 1
 256 68 l 1
 228 68 l 1
 228 40 l 1
85 11 m 1
 114 11 l 1
 114 40 l 1
 85 40 l 1
 85 11 l 1
114 11 m 1
 142 11 l 1
 142 40 l 1
 114 40 l 1
 114 11 l 1
142 11 m 1
 171 11 l 1
 171 40 l 1
 142 40 l 1
 142 11 l 1
171 11 m 1
 199 11 l 1
 199 40 l 1
 171 40 l 1
 171 11 l 1
199 11 m 1
 228 11 l 1
 228 40 l 1
 199 40 l 1
 199 11 l 1
EndSplineSet
Validated: 5
EndChar

StartChar: asterisk
Encoding: 42 42 50
Width: 262
Flags: HW
LayerCount: 2
Fore
SplineSet
85 296 m 1
 114 296 l 1
 114 324 l 1
 85 324 l 1
 85 296 l 1
171 296 m 1
 199 296 l 1
 199 324 l 1
 171 324 l 1
 171 296 l 1
57 267 m 1
 85 267 l 1
 85 296 l 1
 57 296 l 1
 57 267 l 1
85 267 m 1
 114 267 l 1
 114 296 l 1
 85 296 l 1
 85 267 l 1
114 267 m 1
 142 267 l 1
 142 296 l 1
 114 296 l 1
 114 267 l 1
171 267 m 1
 199 267 l 1
 199 296 l 1
 171 296 l 1
 171 267 l 1
199 267 m 1
 228 267 l 1
 228 296 l 1
 199 296 l 1
 199 267 l 1
114 239 m 1
 142 239 l 1
 142 267 l 1
 114 267 l 1
 114 239 l 1
142 239 m 1
 171 239 l 1
 171 267 l 1
 142 267 l 1
 142 239 l 1
57 210 m 1
 85 210 l 1
 85 239 l 1
 57 239 l 1
 57 210 l 1
85 210 m 1
 114 210 l 1
 114 239 l 1
 85 239 l 1
 85 210 l 1
142 210 m 1
 171 210 l 1
 171 239 l 1
 142 239 l 1
 142 210 l 1
171 210 m 1
 199 210 l 1
 199 239 l 1
 171 239 l 1
 171 210 l 1
199 210 m 1
 228 210 l 1
 228 239 l 1
 199 239 l 1
 199 210 l 1
85 182 m 1
 114 182 l 1
 114 210 l 1
 85 210 l 1
 85 182 l 1
171 182 m 1
 199 182 l 1
 199 210 l 1
 171 210 l 1
 171 182 l 1
EndSplineSet
Validated: 5
EndChar

StartChar: plus
Encoding: 43 43 51
Width: 262
Flags: HW
LayerCount: 2
Fore
SplineSet
114 239 m 1
 142 239 l 1
 142 267 l 1
 114 267 l 1
 114 239 l 1
114 210 m 1
 142 210 l 1
 142 239 l 1
 114 239 l 1
 114 210 l 1
114 182 m 1
 142 182 l 1
 142 210 l 1
 114 210 l 1
 114 182 l 1
28 154 m 1
 57 154 l 1
 57 182 l 1
 28 182 l 1
 28 154 l 1
57 154 m 1
 85 154 l 1
 85 182 l 1
 57 182 l 1
 57 154 l 1
85 154 m 1
 114 154 l 1
 114 182 l 1
 85 182 l 1
 85 154 l 1
114 154 m 1
 142 154 l 1
 142 182 l 1
 114 182 l 1
 114 154 l 1
142 154 m 1
 171 154 l 1
 171 182 l 1
 142 182 l 1
 142 154 l 1
171 154 m 1
 199 154 l 1
 199 182 l 1
 171 182 l 1
 171 154 l 1
199 154 m 1
 228 154 l 1
 228 182 l 1
 199 182 l 1
 199 154 l 1
114 125 m 1
 142 125 l 1
 142 154 l 1
 114 154 l 1
 114 125 l 1
114 97 m 1
 142 97 l 1
 142 125 l 1
 114 125 l 1
 114 97 l 1
114 68 m 1
 142 68 l 1
 142 97 l 1
 114 97 l 1
 114 68 l 1
EndSplineSet
Validated: 5
EndChar

StartChar: comma
Encoding: 44 44 52
Width: 262
Flags: HW
LayerCount: 2
Fore
SplineSet
114 40 m 1
 142 40 l 1
 142 68 l 1
 114 68 l 1
 114 40 l 1
142 40 m 1
 171 40 l 1
 171 68 l 1
 142 68 l 1
 142 40 l 1
114 11 m 1
 142 11 l 1
 142 40 l 1
 114 40 l 1
 114 11 l 1
142 11 m 1
 171 11 l 1
 171 40 l 1
 142 40 l 1
 142 11 l 1
142 -17 m 1
 171 -17 l 1
 171 11 l 1
 142 11 l 1
 142 -17 l 1
114 -46 m 1
 142 -46 l 1
 142 -17 l 1
 114 -17 l 1
 114 -46 l 1
EndSplineSet
Validated: 5
EndChar

StartChar: hyphen
Encoding: 45 45 53
Width: 262
Flags: HW
LayerCount: 2
Fore
SplineSet
57 154 m 1
 85 154 l 1
 85 182 l 1
 57 182 l 1
 57 154 l 1
85 154 m 1
 114 154 l 1
 114 182 l 1
 85 182 l 1
 85 154 l 1
114 154 m 1
 142 154 l 1
 142 182 l 1
 114 182 l 1
 114 154 l 1
142 154 m 1
 171 154 l 1
 171 182 l 1
 142 182 l 1
 142 154 l 1
171 154 m 1
 199 154 l 1
 199 182 l 1
 171 182 l 1
 171 154 l 1
199 154 m 1
 228 154 l 1
 228 182 l 1
 199 182 l 1
 199 154 l 1
EndSplineSet
Validated: 5
EndChar

StartChar: period
Encoding: 46 46 54
Width: 262
Flags: HW
LayerCount: 2
Fore
SplineSet
114 40 m 1
 142 40 l 1
 142 68 l 1
 114 68 l 1
 114 40 l 1
142 40 m 1
 171 40 l 1
 171 68 l 1
 142 68 l 1
 142 40 l 1
114 11 m 1
 142 11 l 1
 142 40 l 1
 114 40 l 1
 114 11 l 1
142 11 m 1
 171 11 l 1
 171 40 l 1
 142 40 l 1
 142 11 l 1
EndSplineSet
Validated: 5
EndChar

StartChar: slash
Encoding: 47 47 55
Width: 262
Flags: HW
LayerCount: 2
Fore
SplineSet
171 324 m 1
 199 324 l 1
 199 353 l 1
 171 353 l 1
 171 324 l 1
199 324 m 1
 228 324 l 1
 228 353 l 1
 199 353 l 1
 199 324 l 1
171 296 m 1
 199 296 l 1
 199 324 l 1
 171 324 l 1
 171 296 l 1
199 296 m 1
 228 296 l 1
 228 324 l 1
 199 324 l 1
 199 296 l 1
142 267 m 1
 171 267 l 1
 171 296 l 1
 142 296 l 1
 142 267 l 1
171 267 m 1
 199 267 l 1
 199 296 l 1
 171 296 l 1
 171 267 l 1
199 267 m 1
 228 267 l 1
 228 296 l 1
 199 296 l 1
 199 267 l 1
142 239 m 1
 171 239 l 1
 171 267 l 1
 142 267 l 1
 142 239 l 1
171 239 m 1
 199 239 l 1
 199 267 l 1
 171 267 l 1
 171 239 l 1
142 210 m 1
 171 210 l 1
 171 239 l 1
 142 239 l 1
 142 210 l 1
171 210 m 1
 199 210 l 1
 199 239 l 1
 171 239 l 1
 171 210 l 1
114 182 m 1
 142 182 l 1
 142 210 l 1
 114 210 l 1
 114 182 l 1
142 182 m 1
 171 182 l 1
 171 210 l 1
 142 210 l 1
 142 182 l 1
171 182 m 1
 199 182 l 1
 199 210 l 1
 171 210 l 1
 171 182 l 1
114 154 m 1
 142 154 l 1
 142 182 l 1
 114 182 l 1
 114 154 l 1
142 154 m 1
 171 154 l 1
 171 182 l 1
 142 182 l 1
 142 154 l 1
114 125 m 1
 142 125 l 1
 142 154 l 1
 114 154 l 1
 114 125 l 1
142 125 m 1
 171 125 l 1
 171 154 l 1
 142 154 l 1
 142 125 l 1
85 97 m 1
 114 97 l 1
 114 125 l 1
 85 125 l 1
 85 97 l 1
114 97 m 1
 142 97 l 1
 142 125 l 1
 114 125 l 1
 114 97 l 1
142 97 m 1
 171 97 l 1
 171 125 l 1
 142 125 l 1
 142 97 l 1
85 68 m 1
 114 68 l 1
 114 97 l 1
 85 97 l 1
 85 68 l 1
114 68 m 1
 142 68 l 1
 142 97 l 1
 114 97 l 1
 114 68 l 1
85 40 m 1
 114 40 l 1
 114 68 l 1
 85 68 l 1
 85 40 l 1
114 40 m 1
 142 40 l 1
 142 68 l 1
 114 68 l 1
 114 40 l 1
57 11 m 1
 85 11 l 1
 85 40 l 1
 57 40 l 1
 57 11 l 1
85 11 m 1
 114 11 l 1
 114 40 l 1
 85 40 l 1
 85 11 l 1
114 11 m 1
 142 11 l 1
 142 40 l 1
 114 40 l 1
 114 11 l 1
57 -17 m 1
 85 -17 l 1
 85 11 l 1
 57 11 l 1
 57 -17 l 1
85 -17 m 1
 114 -17 l 1
 114 11 l 1
 85 11 l 1
 85 -17 l 1
57 -46 m 1
 85 -46 l 1
 85 -17 l 1
 57 -17 l 1
 57 -46 l 1
85 -46 m 1
 114 -46 l 1
 114 -17 l 1
 85 -17 l 1
 85 -46 l 1
EndSplineSet
Validated: 5
EndChar

StartChar: zero
Encoding: 48 48 56
Width: 262
Flags: HW
LayerCount: 2
Fore
SplineSet
85 324 m 1
 114 324 l 1
 114 353 l 1
 85 353 l 1
 85 324 l 1
114 324 m 1
 142 324 l 1
 142 353 l 1
 114 353 l 1
 114 324 l 1
142 324 m 1
 171 324 l 1
 171 353 l 1
 142 353 l 1
 142 324 l 1
171 324 m 1
 199 324 l 1
 199 353 l 1
 171 353 l 1
 171 324 l 1
57 296 m 1
 85 296 l 1
 85 324 l 1
 57 324 l 1
 57 296 l 1
85 296 m 1
 114 296 l 1
 114 324 l 1
 85 324 l 1
 85 296 l 1
171 296 m 1
 199 296 l 1
 199 324 l 1
 171 324 l 1
 171 296 l 1
199 296 m 1
 228 296 l 1
 228 324 l 1
 199 324 l 1
 199 296 l 1
57 267 m 1
 85 267 l 1
 85 296 l 1
 57 296 l 1
 57 267 l 1
171 267 m 1
 199 267 l 1
 199 296 l 1
 171 296 l 1
 171 267 l 1
199 267 m 1
 228 267 l 1
 228 296 l 1
 199 296 l 1
 199 267 l 1
28 239 m 1
 57 239 l 1
 57 267 l 1
 28 267 l 1
 28 239 l 1
57 239 m 1
 85 239 l 1
 85 267 l 1
 57 267 l 1
 57 239 l 1
199 239 m 1
 228 239 l 1
 228 267 l 1
 199 267 l 1
 199 239 l 1
228 239 m 1
 256 239 l 1
 256 267 l 1
 228 267 l 1
 228 239 l 1
28 210 m 1
 57 210 l 1
 57 239 l 1
 28 239 l 1
 28 210 l 1
57 210 m 1
 85 210 l 1
 85 239 l 1
 57 239 l 1
 57 210 l 1
199 210 m 1
 228 210 l 1
 228 239 l 1
 199 239 l 1
 199 210 l 1
228 210 m 1
 256 210 l 1
 256 239 l 1
 228 239 l 1
 228 210 l 1
28 182 m 1
 57 182 l 1
 57 210 l 1
 28 210 l 1
 28 182 l 1
57 182 m 1
 85 182 l 1
 85 210 l 1
 57 210 l 1
 57 182 l 1
199 182 m 1
 228 182 l 1
 228 210 l 1
 199 210 l 1
 199 182 l 1
228 182 m 1
 256 182 l 1
 256 210 l 1
 228 210 l 1
 228 182 l 1
28 154 m 1
 57 154 l 1
 57 182 l 1
 28 182 l 1
 28 154 l 1
57 154 m 1
 85 154 l 1
 85 182 l 1
 57 182 l 1
 57 154 l 1
199 154 m 1
 228 154 l 1
 228 182 l 1
 199 182 l 1
 199 154 l 1
228 154 m 1
 256 154 l 1
 256 182 l 1
 228 182 l 1
 228 154 l 1
28 125 m 1
 57 125 l 1
 57 154 l 1
 28 154 l 1
 28 125 l 1
57 125 m 1
 85 125 l 1
 85 154 l 1
 57 154 l 1
 57 125 l 1
199 125 m 1
 228 125 l 1
 228 154 l 1
 199 154 l 1
 199 125 l 1
228 125 m 1
 256 125 l 1
 256 154 l 1
 228 154 l 1
 228 125 l 1
28 97 m 1
 57 97 l 1
 57 125 l 1
 28 125 l 1
 28 97 l 1
57 97 m 1
 85 97 l 1
 85 125 l 1
 57 125 l 1
 57 97 l 1
199 97 m 1
 228 97 l 1
 228 125 l 1
 199 125 l 1
 199 97 l 1
228 97 m 1
 256 97 l 1
 256 125 l 1
 228 125 l 1
 228 97 l 1
57 68 m 1
 85 68 l 1
 85 97 l 1
 57 97 l 1
 57 68 l 1
85 68 m 1
 114 68 l 1
 114 97 l 1
 85 97 l 1
 85 68 l 1
199 68 m 1
 228 68 l 1
 228 97 l 1
 199 97 l 1
 199 68 l 1
57 40 m 1
 85 40 l 1
 85 68 l 1
 57 68 l 1
 57 40 l 1
85 40 m 1
 114 40 l 1
 114 68 l 1
 85 68 l 1
 85 40 l 1
171 40 m 1
 199 40 l 1
 199 68 l 1
 171 68 l 1
 171 40 l 1
199 40 m 1
 228 40 l 1
 228 68 l 1
 199 68 l 1
 199 40 l 1
85 11 m 1
 114 11 l 1
 114 40 l 1
 85 40 l 1
 85 11 l 1
114 11 m 1
 142 11 l 1
 142 40 l 1
 114 40 l 1
 114 11 l 1
142 11 m 1
 171 11 l 1
 171 40 l 1
 142 40 l 1
 142 11 l 1
171 11 m 1
 199 11 l 1
 199 40 l 1
 171 40 l 1
 171 11 l 1
EndSplineSet
Validated: 5
EndChar

StartChar: one
Encoding: 49 49 57
Width: 262
Flags: HW
LayerCount: 2
Fore
SplineSet
142 324 m 1
 171 324 l 1
 171 353 l 1
 142 353 l 1
 142 324 l 1
85 296 m 1
 114 296 l 1
 114 324 l 1
 85 324 l 1
 85 296 l 1
114 296 m 1
 142 296 l 1
 142 324 l 1
 114 324 l 1
 114 296 l 1
142 296 m 1
 171 296 l 1
 171 324 l 1
 142 324 l 1
 142 296 l 1
114 267 m 1
 142 267 l 1
 142 296 l 1
 114 296 l 1
 114 267 l 1
142 267 m 1
 171 267 l 1
 171 296 l 1
 142 296 l 1
 142 267 l 1
114 239 m 1
 142 239 l 1
 142 267 l 1
 114 267 l 1
 114 239 l 1
142 239 m 1
 171 239 l 1
 171 267 l 1
 142 267 l 1
 142 239 l 1
114 210 m 1
 142 210 l 1
 142 239 l 1
 114 239 l 1
 114 210 l 1
142 210 m 1
 171 210 l 1
 171 239 l 1
 142 239 l 1
 142 210 l 1
114 182 m 1
 142 182 l 1
 142 210 l 1
 114 210 l 1
 114 182 l 1
142 182 m 1
 171 182 l 1
 171 210 l 1
 142 210 l 1
 142 182 l 1
114 154 m 1
 142 154 l 1
 142 182 l 1
 114 182 l 1
 114 154 l 1
142 154 m 1
 171 154 l 1
 171 182 l 1
 142 182 l 1
 142 154 l 1
114 125 m 1
 142 125 l 1
 142 154 l 1
 114 154 l 1
 114 125 l 1
142 125 m 1
 171 125 l 1
 171 154 l 1
 142 154 l 1
 142 125 l 1
114 97 m 1
 142 97 l 1
 142 125 l 1
 114 125 l 1
 114 97 l 1
142 97 m 1
 171 97 l 1
 171 125 l 1
 142 125 l 1
 142 97 l 1
114 68 m 1
 142 68 l 1
 142 97 l 1
 114 97 l 1
 114 68 l 1
142 68 m 1
 171 68 l 1
 171 97 l 1
 142 97 l 1
 142 68 l 1
114 40 m 1
 142 40 l 1
 142 68 l 1
 114 68 l 1
 114 40 l 1
142 40 m 1
 171 40 l 1
 171 68 l 1
 142 68 l 1
 142 40 l 1
85 11 m 1
 114 11 l 1
 114 40 l 1
 85 40 l 1
 85 11 l 1
114 11 m 1
 142 11 l 1
 142 40 l 1
 114 40 l 1
 114 11 l 1
142 11 m 1
 171 11 l 1
 171 40 l 1
 142 40 l 1
 142 11 l 1
171 11 m 1
 199 11 l 1
 199 40 l 1
 171 40 l 1
 171 11 l 1
EndSplineSet
Validated: 5
EndChar

StartChar: two
Encoding: 50 50 58
Width: 262
Flags: HW
LayerCount: 2
Fore
SplineSet
57 324 m 1
 85 324 l 1
 85 353 l 1
 57 353 l 1
 57 324 l 1
85 324 m 1
 114 324 l 1
 114 353 l 1
 85 353 l 1
 85 324 l 1
114 324 m 1
 142 324 l 1
 142 353 l 1
 114 353 l 1
 114 324 l 1
142 324 m 1
 171 324 l 1
 171 353 l 1
 142 353 l 1
 142 324 l 1
171 324 m 1
 199 324 l 1
 199 353 l 1
 171 353 l 1
 171 324 l 1
28 296 m 1
 57 296 l 1
 57 324 l 1
 28 324 l 1
 28 296 l 1
57 296 m 1
 85 296 l 1
 85 324 l 1
 57 324 l 1
 57 296 l 1
85 296 m 1
 114 296 l 1
 114 324 l 1
 85 324 l 1
 85 296 l 1
114 296 m 1
 142 296 l 1
 142 324 l 1
 114 324 l 1
 114 296 l 1
142 296 m 1
 171 296 l 1
 171 324 l 1
 142 324 l 1
 142 296 l 1
171 296 m 1
 199 296 l 1
 199 324 l 1
 171 324 l 1
 171 296 l 1
199 296 m 1
 228 296 l 1
 228 324 l 1
 199 324 l 1
 199 296 l 1
28 267 m 1
 57 267 l 1
 57 296 l 1
 28 296 l 1
 28 267 l 1
57 267 m 1
 85 267 l 1
 85 296 l 1
 57 296 l 1
 57 267 l 1
142 267 m 1
 171 267 l 1
 171 296 l 1
 142 296 l 1
 142 267 l 1
171 267 m 1
 199 267 l 1
 199 296 l 1
 171 296 l 1
 171 267 l 1
199 267 m 1
 228 267 l 1
 228 296 l 1
 199 296 l 1
 199 267 l 1
228 267 m 1
 256 267 l 1
 256 296 l 1
 228 296 l 1
 228 267 l 1
28 239 m 1
 57 239 l 1
 57 267 l 1
 28 267 l 1
 28 239 l 1
171 239 m 1
 199 239 l 1
 199 267 l 1
 171 267 l 1
 171 239 l 1
199 239 m 1
 228 239 l 1
 228 267 l 1
 199 267 l 1
 199 239 l 1
228 239 m 1
 256 239 l 1
 256 267 l 1
 228 267 l 1
 228 239 l 1
171 210 m 1
 199 210 l 1
 199 239 l 1
 171 239 l 1
 171 210 l 1
199 210 m 1
 228 210 l 1
 228 239 l 1
 199 239 l 1
 199 210 l 1
228 210 m 1
 256 210 l 1
 256 239 l 1
 228 239 l 1
 228 210 l 1
171 182 m 1
 199 182 l 1
 199 210 l 1
 171 210 l 1
 171 182 l 1
199 182 m 1
 228 182 l 1
 228 210 l 1
 199 210 l 1
 199 182 l 1
142 154 m 1
 171 154 l 1
 171 182 l 1
 142 182 l 1
 142 154 l 1
171 154 m 1
 199 154 l 1
 199 182 l 1
 171 182 l 1
 171 154 l 1
114 125 m 1
 142 125 l 1
 142 154 l 1
 114 154 l 1
 114 125 l 1
142 125 m 1
 171 125 l 1
 171 154 l 1
 142 154 l 1
 142 125 l 1
114 97 m 1
 142 97 l 1
 142 125 l 1
 114 125 l 1
 114 97 l 1
85 68 m 1
 114 68 l 1
 114 97 l 1
 85 97 l 1
 85 68 l 1
228 68 m 1
 256 68 l 1
 256 97 l 1
 228 97 l 1
 228 68 l 1
57 40 m 1
 85 40 l 1
 85 68 l 1
 57 68 l 1
 57 40 l 1
85 40 m 1
 114 40 l 1
 114 68 l 1
 85 68 l 1
 85 40 l 1
114 40 m 1
 142 40 l 1
 142 68 l 1
 114 68 l 1
 114 40 l 1
142 40 m 1
 171 40 l 1
 171 68 l 1
 142 68 l 1
 142 40 l 1
171 40 m 1
 199 40 l 1
 199 68 l 1
 171 68 l 1
 171 40 l 1
199 40 m 1
 228 40 l 1
 228 68 l 1
 199 68 l 1
 199 40 l 1
228 40 m 1
 256 40 l 1
 256 68 l 1
 228 68 l 1
 228 40 l 1
28 11 m 1
 57 11 l 1
 57 40 l 1
 28 40 l 1
 28 11 l 1
57 11 m 1
 85 11 l 1
 85 40 l 1
 57 40 l 1
 57 11 l 1
85 11 m 1
 114 11 l 1
 114 40 l 1
 85 40 l 1
 85 11 l 1
114 11 m 1
 142 11 l 1
 142 40 l 1
 114 40 l 1
 114 11 l 1
142 11 m 1
 171 11 l 1
 171 40 l 1
 142 40 l 1
 142 11 l 1
171 11 m 1
 199 11 l 1
 199 40 l 1
 171 40 l 1
 171 11 l 1
199 11 m 1
 228 11 l 1
 228 40 l 1
 199 40 l 1
 199 11 l 1
228 11 m 1
 256 11 l 1
 256 40 l 1
 228 40 l 1
 228 11 l 1
EndSplineSet
Validated: 5
EndChar

StartChar: three
Encoding: 51 51 59
Width: 262
Flags: HW
LayerCount: 2
Fore
SplineSet
85 324 m 1
 114 324 l 1
 114 353 l 1
 85 353 l 1
 85 324 l 1
114 324 m 1
 142 324 l 1
 142 353 l 1
 114 353 l 1
 114 324 l 1
142 324 m 1
 171 324 l 1
 171 353 l 1
 142 353 l 1
 142 324 l 1
171 324 m 1
 199 324 l 1
 199 353 l 1
 171 353 l 1
 171 324 l 1
57 296 m 1
 85 296 l 1
 85 324 l 1
 57 324 l 1
 57 296 l 1
85 296 m 1
 114 296 l 1
 114 324 l 1
 85 324 l 1
 85 296 l 1
114 296 m 1
 142 296 l 1
 142 324 l 1
 114 324 l 1
 114 296 l 1
142 296 m 1
 171 296 l 1
 171 324 l 1
 142 324 l 1
 142 296 l 1
171 296 m 1
 199 296 l 1
 199 324 l 1
 171 324 l 1
 171 296 l 1
199 296 m 1
 228 296 l 1
 228 324 l 1
 199 324 l 1
 199 296 l 1
28 267 m 1
 57 267 l 1
 57 296 l 1
 28 296 l 1
 28 267 l 1
57 267 m 1
 85 267 l 1
 85 296 l 1
 57 296 l 1
 57 267 l 1
171 267 m 1
 199 267 l 1
 199 296 l 1
 171 296 l 1
 171 267 l 1
199 267 m 1
 228 267 l 1
 228 296 l 1
 199 296 l 1
 199 267 l 1
228 267 m 1
 256 267 l 1
 256 296 l 1
 228 296 l 1
 228 267 l 1
28 239 m 1
 57 239 l 1
 57 267 l 1
 28 267 l 1
 28 239 l 1
199 239 m 1
 228 239 l 1
 228 267 l 1
 199 267 l 1
 199 239 l 1
228 239 m 1
 256 239 l 1
 256 267 l 1
 228 267 l 1
 228 239 l 1
171 210 m 1
 199 210 l 1
 199 239 l 1
 171 239 l 1
 171 210 l 1
199 210 m 1
 228 210 l 1
 228 239 l 1
 199 239 l 1
 199 210 l 1
228 210 m 1
 256 210 l 1
 256 239 l 1
 228 239 l 1
 228 210 l 1
114 182 m 1
 142 182 l 1
 142 210 l 1
 114 210 l 1
 114 182 l 1
142 182 m 1
 171 182 l 1
 171 210 l 1
 142 210 l 1
 142 182 l 1
171 182 m 1
 199 182 l 1
 199 210 l 1
 171 210 l 1
 171 182 l 1
199 182 m 1
 228 182 l 1
 228 210 l 1
 199 210 l 1
 199 182 l 1
85 154 m 1
 114 154 l 1
 114 182 l 1
 85 182 l 1
 85 154 l 1
114 154 m 1
 142 154 l 1
 142 182 l 1
 114 182 l 1
 114 154 l 1
142 154 m 1
 171 154 l 1
 171 182 l 1
 142 182 l 1
 142 154 l 1
171 154 m 1
 199 154 l 1
 199 182 l 1
 171 182 l 1
 171 154 l 1
142 125 m 1
 171 125 l 1
 171 154 l 1
 142 154 l 1
 142 125 l 1
171 125 m 1
 199 125 l 1
 199 154 l 1
 171 154 l 1
 171 125 l 1
199 125 m 1
 228 125 l 1
 228 154 l 1
 199 154 l 1
 199 125 l 1
171 97 m 1
 199 97 l 1
 199 125 l 1
 171 125 l 1
 171 97 l 1
199 97 m 1
 228 97 l 1
 228 125 l 1
 199 125 l 1
 199 97 l 1
228 97 m 1
 256 97 l 1
 256 125 l 1
 228 125 l 1
 228 97 l 1
28 68 m 1
 57 68 l 1
 57 97 l 1
 28 97 l 1
 28 68 l 1
57 68 m 1
 85 68 l 1
 85 97 l 1
 57 97 l 1
 57 68 l 1
171 68 m 1
 199 68 l 1
 199 97 l 1
 171 97 l 1
 171 68 l 1
199 68 m 1
 228 68 l 1
 228 97 l 1
 199 97 l 1
 199 68 l 1
228 68 m 1
 256 68 l 1
 256 97 l 1
 228 97 l 1
 228 68 l 1
28 40 m 1
 57 40 l 1
 57 68 l 1
 28 68 l 1
 28 40 l 1
57 40 m 1
 85 40 l 1
 85 68 l 1
 57 68 l 1
 57 40 l 1
85 40 m 1
 114 40 l 1
 114 68 l 1
 85 68 l 1
 85 40 l 1
199 40 m 1
 228 40 l 1
 228 68 l 1
 199 68 l 1
 199 40 l 1
57 11 m 1
 85 11 l 1
 85 40 l 1
 57 40 l 1
 57 11 l 1
85 11 m 1
 114 11 l 1
 114 40 l 1
 85 40 l 1
 85 11 l 1
114 11 m 1
 142 11 l 1
 142 40 l 1
 114 40 l 1
 114 11 l 1
142 11 m 1
 171 11 l 1
 171 40 l 1
 142 40 l 1
 142 11 l 1
171 11 m 1
 199 11 l 1
 199 40 l 1
 171 40 l 1
 171 11 l 1
EndSplineSet
Validated: 5
EndChar

StartChar: four
Encoding: 52 52 60
Width: 262
Flags: HW
LayerCount: 2
Fore
SplineSet
142 324 m 1
 171 324 l 1
 171 353 l 1
 142 353 l 1
 142 324 l 1
171 324 m 1
 199 324 l 1
 199 353 l 1
 171 353 l 1
 171 324 l 1
114 296 m 1
 142 296 l 1
 142 324 l 1
 114 324 l 1
 114 296 l 1
142 296 m 1
 171 296 l 1
 171 324 l 1
 142 324 l 1
 142 296 l 1
171 296 m 1
 199 296 l 1
 199 324 l 1
 171 324 l 1
 171 296 l 1
85 267 m 1
 114 267 l 1
 114 296 l 1
 85 296 l 1
 85 267 l 1
114 267 m 1
 142 267 l 1
 142 296 l 1
 114 296 l 1
 114 267 l 1
142 267 m 1
 171 267 l 1
 171 296 l 1
 142 296 l 1
 142 267 l 1
171 267 m 1
 199 267 l 1
 199 296 l 1
 171 296 l 1
 171 267 l 1
85 239 m 1
 114 239 l 1
 114 267 l 1
 85 267 l 1
 85 239 l 1
114 239 m 1
 142 239 l 1
 142 267 l 1
 114 267 l 1
 114 239 l 1
142 239 m 1
 171 239 l 1
 171 267 l 1
 142 267 l 1
 142 239 l 1
171 239 m 1
 199 239 l 1
 199 267 l 1
 171 267 l 1
 171 239 l 1
57 210 m 1
 85 210 l 1
 85 239 l 1
 57 239 l 1
 57 210 l 1
85 210 m 1
 114 210 l 1
 114 239 l 1
 85 239 l 1
 85 210 l 1
142 210 m 1
 171 210 l 1
 171 239 l 1
 142 239 l 1
 142 210 l 1
171 210 m 1
 199 210 l 1
 199 239 l 1
 171 239 l 1
 171 210 l 1
57 182 m 1
 85 182 l 1
 85 210 l 1
 57 210 l 1
 57 182 l 1
85 182 m 1
 114 182 l 1
 114 210 l 1
 85 210 l 1
 85 182 l 1
142 182 m 1
 171 182 l 1
 171 210 l 1
 142 210 l 1
 142 182 l 1
171 182 m 1
 199 182 l 1
 199 210 l 1
 171 210 l 1
 171 182 l 1
28 154 m 1
 57 154 l 1
 57 182 l 1
 28 182 l 1
 28 154 l 1
57 154 m 1
 85 154 l 1
 85 182 l 1
 57 182 l 1
 57 154 l 1
142 154 m 1
 171 154 l 1
 171 182 l 1
 142 182 l 1
 142 154 l 1
171 154 m 1
 199 154 l 1
 199 182 l 1
 171 182 l 1
 171 154 l 1
28 125 m 1
 57 125 l 1
 57 154 l 1
 28 154 l 1
 28 125 l 1
57 125 m 1
 85 125 l 1
 85 154 l 1
 57 154 l 1
 57 125 l 1
142 125 m 1
 171 125 l 1
 171 154 l 1
 142 154 l 1
 142 125 l 1
171 125 m 1
 199 125 l 1
 199 154 l 1
 171 154 l 1
 171 125 l 1
28 97 m 1
 57 97 l 1
 57 125 l 1
 28 125 l 1
 28 97 l 1
57 97 m 1
 85 97 l 1
 85 125 l 1
 57 125 l 1
 57 97 l 1
85 97 m 1
 114 97 l 1
 114 125 l 1
 85 125 l 1
 85 97 l 1
114 97 m 1
 142 97 l 1
 142 125 l 1
 114 125 l 1
 114 97 l 1
142 97 m 1
 171 97 l 1
 171 125 l 1
 142 125 l 1
 142 97 l 1
171 97 m 1
 199 97 l 1
 199 125 l 1
 171 125 l 1
 171 97 l 1
199 97 m 1
 228 97 l 1
 228 125 l 1
 199 125 l 1
 199 97 l 1
228 97 m 1
 256 97 l 1
 256 125 l 1
 228 125 l 1
 228 97 l 1
142 68 m 1
 171 68 l 1
 171 97 l 1
 142 97 l 1
 142 68 l 1
171 68 m 1
 199 68 l 1
 199 97 l 1
 171 97 l 1
 171 68 l 1
142 40 m 1
 171 40 l 1
 171 68 l 1
 142 68 l 1
 142 40 l 1
171 40 m 1
 199 40 l 1
 199 68 l 1
 171 68 l 1
 171 40 l 1
114 11 m 1
 142 11 l 1
 142 40 l 1
 114 40 l 1
 114 11 l 1
142 11 m 1
 171 11 l 1
 171 40 l 1
 142 40 l 1
 142 11 l 1
171 11 m 1
 199 11 l 1
 199 40 l 1
 171 40 l 1
 171 11 l 1
199 11 m 1
 228 11 l 1
 228 40 l 1
 199 40 l 1
 199 11 l 1
EndSplineSet
Validated: 5
EndChar

StartChar: five
Encoding: 53 53 61
Width: 262
Flags: HW
LayerCount: 2
Fore
SplineSet
57 324 m 1
 85 324 l 1
 85 353 l 1
 57 353 l 1
 57 324 l 1
85 324 m 1
 114 324 l 1
 114 353 l 1
 85 353 l 1
 85 324 l 1
114 324 m 1
 142 324 l 1
 142 353 l 1
 114 353 l 1
 114 324 l 1
142 324 m 1
 171 324 l 1
 171 353 l 1
 142 353 l 1
 142 324 l 1
171 324 m 1
 199 324 l 1
 199 353 l 1
 171 353 l 1
 171 324 l 1
199 324 m 1
 228 324 l 1
 228 353 l 1
 199 353 l 1
 199 324 l 1
228 324 m 1
 256 324 l 1
 256 353 l 1
 228 353 l 1
 228 324 l 1
57 296 m 1
 85 296 l 1
 85 324 l 1
 57 324 l 1
 57 296 l 1
85 296 m 1
 114 296 l 1
 114 324 l 1
 85 324 l 1
 85 296 l 1
114 296 m 1
 142 296 l 1
 142 324 l 1
 114 324 l 1
 114 296 l 1
142 296 m 1
 171 296 l 1
 171 324 l 1
 142 324 l 1
 142 296 l 1
171 296 m 1
 199 296 l 1
 199 324 l 1
 171 324 l 1
 171 296 l 1
199 296 m 1
 228 296 l 1
 228 324 l 1
 199 324 l 1
 199 296 l 1
28 267 m 1
 57 267 l 1
 57 296 l 1
 28 296 l 1
 28 267 l 1
57 267 m 1
 85 267 l 1
 85 296 l 1
 57 296 l 1
 57 267 l 1
28 239 m 1
 57 239 l 1
 57 267 l 1
 28 267 l 1
 28 239 l 1
57 239 m 1
 85 239 l 1
 85 267 l 1
 57 267 l 1
 57 239 l 1
28 210 m 1
 57 210 l 1
 57 239 l 1
 28 239 l 1
 28 210 l 1
57 210 m 1
 85 210 l 1
 85 239 l 1
 57 239 l 1
 57 210 l 1
85 210 m 1
 114 210 l 1
 114 239 l 1
 85 239 l 1
 85 210 l 1
114 210 m 1
 142 210 l 1
 142 239 l 1
 114 239 l 1
 114 210 l 1
28 182 m 1
 57 182 l 1
 57 210 l 1
 28 210 l 1
 28 182 l 1
57 182 m 1
 85 182 l 1
 85 210 l 1
 57 210 l 1
 57 182 l 1
85 182 m 1
 114 182 l 1
 114 210 l 1
 85 210 l 1
 85 182 l 1
114 182 m 1
 142 182 l 1
 142 210 l 1
 114 210 l 1
 114 182 l 1
142 182 m 1
 171 182 l 1
 171 210 l 1
 142 210 l 1
 142 182 l 1
85 154 m 1
 114 154 l 1
 114 182 l 1
 85 182 l 1
 85 154 l 1
114 154 m 1
 142 154 l 1
 142 182 l 1
 114 182 l 1
 114 154 l 1
142 154 m 1
 171 154 l 1
 171 182 l 1
 142 182 l 1
 142 154 l 1
171 154 m 1
 199 154 l 1
 199 182 l 1
 171 182 l 1
 171 154 l 1
199 154 m 1
 228 154 l 1
 228 182 l 1
 199 182 l 1
 199 154 l 1
142 125 m 1
 171 125 l 1
 171 154 l 1
 142 154 l 1
 142 125 l 1
171 125 m 1
 199 125 l 1
 199 154 l 1
 171 154 l 1
 171 125 l 1
199 125 m 1
 228 125 l 1
 228 154 l 1
 199 154 l 1
 199 125 l 1
228 125 m 1
 256 125 l 1
 256 154 l 1
 228 154 l 1
 228 125 l 1
199 97 m 1
 228 97 l 1
 228 125 l 1
 199 125 l 1
 199 97 l 1
228 97 m 1
 256 97 l 1
 256 125 l 1
 228 125 l 1
 228 97 l 1
28 68 m 1
 57 68 l 1
 57 97 l 1
 28 97 l 1
 28 68 l 1
57 68 m 1
 85 68 l 1
 85 97 l 1
 57 97 l 1
 57 68 l 1
228 68 m 1
 256 68 l 1
 256 97 l 1
 228 97 l 1
 228 68 l 1
28 40 m 1
 57 40 l 1
 57 68 l 1
 28 68 l 1
 28 40 l 1
57 40 m 1
 85 40 l 1
 85 68 l 1
 57 68 l 1
 57 40 l 1
85 40 m 1
 114 40 l 1
 114 68 l 1
 85 68 l 1
 85 40 l 1
199 40 m 1
 228 40 l 1
 228 68 l 1
 199 68 l 1
 199 40 l 1
57 11 m 1
 85 11 l 1
 85 40 l 1
 57 40 l 1
 57 11 l 1
85 11 m 1
 114 11 l 1
 114 40 l 1
 85 40 l 1
 85 11 l 1
114 11 m 1
 142 11 l 1
 142 40 l 1
 114 40 l 1
 114 11 l 1
142 11 m 1
 171 11 l 1
 171 40 l 1
 142 40 l 1
 142 11 l 1
171 11 m 1
 199 11 l 1
 199 40 l 1
 171 40 l 1
 171 11 l 1
EndSplineSet
Validated: 5
EndChar

StartChar: six
Encoding: 54 54 62
Width: 262
Flags: HW
LayerCount: 2
Fore
SplineSet
114 324 m 1
 142 324 l 1
 142 353 l 1
 114 353 l 1
 114 324 l 1
142 324 m 1
 171 324 l 1
 171 353 l 1
 142 353 l 1
 142 324 l 1
171 324 m 1
 199 324 l 1
 199 353 l 1
 171 353 l 1
 171 324 l 1
199 324 m 1
 228 324 l 1
 228 353 l 1
 199 353 l 1
 199 324 l 1
57 296 m 1
 85 296 l 1
 85 324 l 1
 57 324 l 1
 57 296 l 1
85 296 m 1
 114 296 l 1
 114 324 l 1
 85 324 l 1
 85 296 l 1
114 296 m 1
 142 296 l 1
 142 324 l 1
 114 324 l 1
 114 296 l 1
28 267 m 1
 57 267 l 1
 57 296 l 1
 28 296 l 1
 28 267 l 1
57 267 m 1
 85 267 l 1
 85 296 l 1
 57 296 l 1
 57 267 l 1
85 267 m 1
 114 267 l 1
 114 296 l 1
 85 296 l 1
 85 267 l 1
28 239 m 1
 57 239 l 1
 57 267 l 1
 28 267 l 1
 28 239 l 1
57 239 m 1
 85 239 l 1
 85 267 l 1
 57 267 l 1
 57 239 l 1
28 210 m 1
 57 210 l 1
 57 239 l 1
 28 239 l 1
 28 210 l 1
57 210 m 1
 85 210 l 1
 85 239 l 1
 57 239 l 1
 57 210 l 1
85 210 m 1
 114 210 l 1
 114 239 l 1
 85 239 l 1
 85 210 l 1
114 210 m 1
 142 210 l 1
 142 239 l 1
 114 239 l 1
 114 210 l 1
142 210 m 1
 171 210 l 1
 171 239 l 1
 142 239 l 1
 142 210 l 1
28 182 m 1
 57 182 l 1
 57 210 l 1
 28 210 l 1
 28 182 l 1
57 182 m 1
 85 182 l 1
 85 210 l 1
 57 210 l 1
 57 182 l 1
85 182 m 1
 114 182 l 1
 114 210 l 1
 85 210 l 1
 85 182 l 1
114 182 m 1
 142 182 l 1
 142 210 l 1
 114 210 l 1
 114 182 l 1
142 182 m 1
 171 182 l 1
 171 210 l 1
 142 210 l 1
 142 182 l 1
171 182 m 1
 199 182 l 1
 199 210 l 1
 171 210 l 1
 171 182 l 1
199 182 m 1
 228 182 l 1
 228 210 l 1
 199 210 l 1
 199 182 l 1
28 154 m 1
 57 154 l 1
 57 182 l 1
 28 182 l 1
 28 154 l 1
57 154 m 1
 85 154 l 1
 85 182 l 1
 57 182 l 1
 57 154 l 1
142 154 m 1
 171 154 l 1
 171 182 l 1
 142 182 l 1
 142 154 l 1
171 154 m 1
 199 154 l 1
 199 182 l 1
 171 182 l 1
 171 154 l 1
199 154 m 1
 228 154 l 1
 228 182 l 1
 199 182 l 1
 199 154 l 1
228 154 m 1
 256 154 l 1
 256 182 l 1
 228 182 l 1
 228 154 l 1
28 125 m 1
 57 125 l 1
 57 154 l 1
 28 154 l 1
 28 125 l 1
57 125 m 1
 85 125 l 1
 85 154 l 1
 57 154 l 1
 57 125 l 1
199 125 m 1
 228 125 l 1
 228 154 l 1
 199 154 l 1
 199 125 l 1
228 125 m 1
 256 125 l 1
 256 154 l 1
 228 154 l 1
 228 125 l 1
28 97 m 1
 57 97 l 1
 57 125 l 1
 28 125 l 1
 28 97 l 1
57 97 m 1
 85 97 l 1
 85 125 l 1
 57 125 l 1
 57 97 l 1
85 97 m 1
 114 97 l 1
 114 125 l 1
 85 125 l 1
 85 97 l 1
199 97 m 1
 228 97 l 1
 228 125 l 1
 199 125 l 1
 199 97 l 1
228 97 m 1
 256 97 l 1
 256 125 l 1
 228 125 l 1
 228 97 l 1
28 68 m 1
 57 68 l 1
 57 97 l 1
 28 97 l 1
 28 68 l 1
57 68 m 1
 85 68 l 1
 85 97 l 1
 57 97 l 1
 57 68 l 1
85 68 m 1
 114 68 l 1
 114 97 l 1
 85 97 l 1
 85 68 l 1
199 68 m 1
 228 68 l 1
 228 97 l 1
 199 97 l 1
 199 68 l 1
228 68 m 1
 256 68 l 1
 256 97 l 1
 228 97 l 1
 228 68 l 1
57 40 m 1
 85 40 l 1
 85 68 l 1
 57 68 l 1
 57 40 l 1
85 40 m 1
 114 40 l 1
 114 68 l 1
 85 68 l 1
 85 40 l 1
114 40 m 1
 142 40 l 1
 142 68 l 1
 114 68 l 1
 114 40 l 1
142 40 m 1
 171 40 l 1
 171 68 l 1
 142 68 l 1
 142 40 l 1
199 40 m 1
 228 40 l 1
 228 68 l 1
 199 68 l 1
 199 40 l 1
85 11 m 1
 114 11 l 1
 114 40 l 1
 85 40 l 1
 85 11 l 1
114 11 m 1
 142 11 l 1
 142 40 l 1
 114 40 l 1
 114 11 l 1
142 11 m 1
 171 11 l 1
 171 40 l 1
 142 40 l 1
 142 11 l 1
171 11 m 1
 199 11 l 1
 199 40 l 1
 171 40 l 1
 171 11 l 1
EndSplineSet
Validated: 5
EndChar

StartChar: seven
Encoding: 55 55 63
Width: 262
Flags: HW
LayerCount: 2
Fore
SplineSet
28 324 m 1
 57 324 l 1
 57 353 l 1
 28 353 l 1
 28 324 l 1
57 324 m 1
 85 324 l 1
 85 353 l 1
 57 353 l 1
 57 324 l 1
85 324 m 1
 114 324 l 1
 114 353 l 1
 85 353 l 1
 85 324 l 1
114 324 m 1
 142 324 l 1
 142 353 l 1
 114 353 l 1
 114 324 l 1
142 324 m 1
 171 324 l 1
 171 353 l 1
 142 353 l 1
 142 324 l 1
171 324 m 1
 199 324 l 1
 199 353 l 1
 171 353 l 1
 171 324 l 1
199 324 m 1
 228 324 l 1
 228 353 l 1
 199 353 l 1
 199 324 l 1
228 324 m 1
 256 324 l 1
 256 353 l 1
 228 353 l 1
 228 324 l 1
28 296 m 1
 57 296 l 1
 57 324 l 1
 28 324 l 1
 28 296 l 1
57 296 m 1
 85 296 l 1
 85 324 l 1
 57 324 l 1
 57 296 l 1
85 296 m 1
 114 296 l 1
 114 324 l 1
 85 324 l 1
 85 296 l 1
114 296 m 1
 142 296 l 1
 142 324 l 1
 114 324 l 1
 114 296 l 1
142 296 m 1
 171 296 l 1
 171 324 l 1
 142 324 l 1
 142 296 l 1
171 296 m 1
 199 296 l 1
 199 324 l 1
 171 324 l 1
 171 296 l 1
199 296 m 1
 228 296 l 1
 228 324 l 1
 199 324 l 1
 199 296 l 1
228 296 m 1
 256 296 l 1
 256 324 l 1
 228 324 l 1
 228 296 l 1
28 267 m 1
 57 267 l 1
 57 296 l 1
 28 296 l 1
 28 267 l 1
199 267 m 1
 228 267 l 1
 228 296 l 1
 199 296 l 1
 199 267 l 1
171 239 m 1
 199 239 l 1
 199 267 l 1
 171 267 l 1
 171 239 l 1
199 239 m 1
 228 239 l 1
 228 267 l 1
 199 267 l 1
 199 239 l 1
171 210 m 1
 199 210 l 1
 199 239 l 1
 171 239 l 1
 171 210 l 1
199 210 m 1
 228 210 l 1
 228 239 l 1
 199 239 l 1
 199 210 l 1
142 182 m 1
 171 182 l 1
 171 210 l 1
 142 210 l 1
 142 182 l 1
171 182 m 1
 199 182 l 1
 199 210 l 1
 171 210 l 1
 171 182 l 1
114 154 m 1
 142 154 l 1
 142 182 l 1
 114 182 l 1
 114 154 l 1
142 154 m 1
 171 154 l 1
 171 182 l 1
 142 182 l 1
 142 154 l 1
171 154 m 1
 199 154 l 1
 199 182 l 1
 171 182 l 1
 171 154 l 1
85 125 m 1
 114 125 l 1
 114 154 l 1
 85 154 l 1
 85 125 l 1
114 125 m 1
 142 125 l 1
 142 154 l 1
 114 154 l 1
 114 125 l 1
142 125 m 1
 171 125 l 1
 171 154 l 1
 142 154 l 1
 142 125 l 1
85 97 m 1
 114 97 l 1
 114 125 l 1
 85 125 l 1
 85 97 l 1
114 97 m 1
 142 97 l 1
 142 125 l 1
 114 125 l 1
 114 97 l 1
142 97 m 1
 171 97 l 1
 171 125 l 1
 142 125 l 1
 142 97 l 1
57 68 m 1
 85 68 l 1
 85 97 l 1
 57 97 l 1
 57 68 l 1
85 68 m 1
 114 68 l 1
 114 97 l 1
 85 97 l 1
 85 68 l 1
114 68 m 1
 142 68 l 1
 142 97 l 1
 114 97 l 1
 114 68 l 1
57 40 m 1
 85 40 l 1
 85 68 l 1
 57 68 l 1
 57 40 l 1
85 40 m 1
 114 40 l 1
 114 68 l 1
 85 68 l 1
 85 40 l 1
114 40 m 1
 142 40 l 1
 142 68 l 1
 114 68 l 1
 114 40 l 1
57 11 m 1
 85 11 l 1
 85 40 l 1
 57 40 l 1
 57 11 l 1
85 11 m 1
 114 11 l 1
 114 40 l 1
 85 40 l 1
 85 11 l 1
114 11 m 1
 142 11 l 1
 142 40 l 1
 114 40 l 1
 114 11 l 1
EndSplineSet
Validated: 5
EndChar

StartChar: eight
Encoding: 56 56 64
Width: 262
Flags: HW
LayerCount: 2
Fore
SplineSet
57 324 m 1
 85 324 l 1
 85 353 l 1
 57 353 l 1
 57 324 l 1
85 324 m 1
 114 324 l 1
 114 353 l 1
 85 353 l 1
 85 324 l 1
114 324 m 1
 142 324 l 1
 142 353 l 1
 114 353 l 1
 114 324 l 1
142 324 m 1
 171 324 l 1
 171 353 l 1
 142 353 l 1
 142 324 l 1
171 324 m 1
 199 324 l 1
 199 353 l 1
 171 353 l 1
 171 324 l 1
28 296 m 1
 57 296 l 1
 57 324 l 1
 28 324 l 1
 28 296 l 1
57 296 m 1
 85 296 l 1
 85 324 l 1
 57 324 l 1
 57 296 l 1
142 296 m 1
 171 296 l 1
 171 324 l 1
 142 324 l 1
 142 296 l 1
171 296 m 1
 199 296 l 1
 199 324 l 1
 171 324 l 1
 171 296 l 1
199 296 m 1
 228 296 l 1
 228 324 l 1
 199 324 l 1
 199 296 l 1
28 267 m 1
 57 267 l 1
 57 296 l 1
 28 296 l 1
 28 267 l 1
57 267 m 1
 85 267 l 1
 85 296 l 1
 57 296 l 1
 57 267 l 1
171 267 m 1
 199 267 l 1
 199 296 l 1
 171 296 l 1
 171 267 l 1
199 267 m 1
 228 267 l 1
 228 296 l 1
 199 296 l 1
 199 267 l 1
28 239 m 1
 57 239 l 1
 57 267 l 1
 28 267 l 1
 28 239 l 1
57 239 m 1
 85 239 l 1
 85 267 l 1
 57 267 l 1
 57 239 l 1
85 239 m 1
 114 239 l 1
 114 267 l 1
 85 267 l 1
 85 239 l 1
171 239 m 1
 199 239 l 1
 199 267 l 1
 171 267 l 1
 171 239 l 1
199 239 m 1
 228 239 l 1
 228 267 l 1
 199 267 l 1
 199 239 l 1
57 210 m 1
 85 210 l 1
 85 239 l 1
 57 239 l 1
 57 210 l 1
85 210 m 1
 114 210 l 1
 114 239 l 1
 85 239 l 1
 85 210 l 1
114 210 m 1
 142 210 l 1
 142 239 l 1
 114 239 l 1
 114 210 l 1
142 210 m 1
 171 210 l 1
 171 239 l 1
 142 239 l 1
 142 210 l 1
171 210 m 1
 199 210 l 1
 199 239 l 1
 171 239 l 1
 171 210 l 1
85 182 m 1
 114 182 l 1
 114 210 l 1
 85 210 l 1
 85 182 l 1
114 182 m 1
 142 182 l 1
 142 210 l 1
 114 210 l 1
 114 182 l 1
142 182 m 1
 171 182 l 1
 171 210 l 1
 142 210 l 1
 142 182 l 1
171 182 m 1
 199 182 l 1
 199 210 l 1
 171 210 l 1
 171 182 l 1
57 154 m 1
 85 154 l 1
 85 182 l 1
 57 182 l 1
 57 154 l 1
85 154 m 1
 114 154 l 1
 114 182 l 1
 85 182 l 1
 85 154 l 1
114 154 m 1
 142 154 l 1
 142 182 l 1
 114 182 l 1
 114 154 l 1
142 154 m 1
 171 154 l 1
 171 182 l 1
 142 182 l 1
 142 154 l 1
171 154 m 1
 199 154 l 1
 199 182 l 1
 171 182 l 1
 171 154 l 1
199 154 m 1
 228 154 l 1
 228 182 l 1
 199 182 l 1
 199 154 l 1
28 125 m 1
 57 125 l 1
 57 154 l 1
 28 154 l 1
 28 125 l 1
57 125 m 1
 85 125 l 1
 85 154 l 1
 57 154 l 1
 57 125 l 1
142 125 m 1
 171 125 l 1
 171 154 l 1
 142 154 l 1
 142 125 l 1
171 125 m 1
 199 125 l 1
 199 154 l 1
 171 154 l 1
 171 125 l 1
199 125 m 1
 228 125 l 1
 228 154 l 1
 199 154 l 1
 199 125 l 1
228 125 m 1
 256 125 l 1
 256 154 l 1
 228 154 l 1
 228 125 l 1
28 97 m 1
 57 97 l 1
 57 125 l 1
 28 125 l 1
 28 97 l 1
57 97 m 1
 85 97 l 1
 85 125 l 1
 57 125 l 1
 57 97 l 1
199 97 m 1
 228 97 l 1
 228 125 l 1
 199 125 l 1
 199 97 l 1
228 97 m 1
 256 97 l 1
 256 125 l 1
 228 125 l 1
 228 97 l 1
28 68 m 1
 57 68 l 1
 57 97 l 1
 28 97 l 1
 28 68 l 1
57 68 m 1
 85 68 l 1
 85 97 l 1
 57 97 l 1
 57 68 l 1
85 68 m 1
 114 68 l 1
 114 97 l 1
 85 97 l 1
 85 68 l 1
199 68 m 1
 228 68 l 1
 228 97 l 1
 199 97 l 1
 199 68 l 1
228 68 m 1
 256 68 l 1
 256 97 l 1
 228 97 l 1
 228 68 l 1
28 40 m 1
 57 40 l 1
 57 68 l 1
 28 68 l 1
 28 40 l 1
57 40 m 1
 85 40 l 1
 85 68 l 1
 57 68 l 1
 57 40 l 1
85 40 m 1
 114 40 l 1
 114 68 l 1
 85 68 l 1
 85 40 l 1
114 40 m 1
 142 40 l 1
 142 68 l 1
 114 68 l 1
 114 40 l 1
228 40 m 1
 256 40 l 1
 256 68 l 1
 228 68 l 1
 228 40 l 1
57 11 m 1
 85 11 l 1
 85 40 l 1
 57 40 l 1
 57 11 l 1
85 11 m 1
 114 11 l 1
 114 40 l 1
 85 40 l 1
 85 11 l 1
114 11 m 1
 142 11 l 1
 142 40 l 1
 114 40 l 1
 114 11 l 1
142 11 m 1
 171 11 l 1
 171 40 l 1
 142 40 l 1
 142 11 l 1
171 11 m 1
 199 11 l 1
 199 40 l 1
 171 40 l 1
 171 11 l 1
199 11 m 1
 228 11 l 1
 228 40 l 1
 199 40 l 1
 199 11 l 1
EndSplineSet
Validated: 5
EndChar

StartChar: nine
Encoding: 57 57 65
Width: 262
Flags: HW
LayerCount: 2
Fore
SplineSet
85 324 m 1
 114 324 l 1
 114 353 l 1
 85 353 l 1
 85 324 l 1
114 324 m 1
 142 324 l 1
 142 353 l 1
 114 353 l 1
 114 324 l 1
142 324 m 1
 171 324 l 1
 171 353 l 1
 142 353 l 1
 142 324 l 1
171 324 m 1
 199 324 l 1
 199 353 l 1
 171 353 l 1
 171 324 l 1
57 296 m 1
 85 296 l 1
 85 324 l 1
 57 324 l 1
 57 296 l 1
85 296 m 1
 114 296 l 1
 114 324 l 1
 85 324 l 1
 85 296 l 1
142 296 m 1
 171 296 l 1
 171 324 l 1
 142 324 l 1
 142 296 l 1
171 296 m 1
 199 296 l 1
 199 324 l 1
 171 324 l 1
 171 296 l 1
199 296 m 1
 228 296 l 1
 228 324 l 1
 199 324 l 1
 199 296 l 1
28 267 m 1
 57 267 l 1
 57 296 l 1
 28 296 l 1
 28 267 l 1
57 267 m 1
 85 267 l 1
 85 296 l 1
 57 296 l 1
 57 267 l 1
85 267 m 1
 114 267 l 1
 114 296 l 1
 85 296 l 1
 85 267 l 1
171 267 m 1
 199 267 l 1
 199 296 l 1
 171 296 l 1
 171 267 l 1
199 267 m 1
 228 267 l 1
 228 296 l 1
 199 296 l 1
 199 267 l 1
228 267 m 1
 256 267 l 1
 256 296 l 1
 228 296 l 1
 228 267 l 1
28 239 m 1
 57 239 l 1
 57 267 l 1
 28 267 l 1
 28 239 l 1
57 239 m 1
 85 239 l 1
 85 267 l 1
 57 267 l 1
 57 239 l 1
85 239 m 1
 114 239 l 1
 114 267 l 1
 85 267 l 1
 85 239 l 1
199 239 m 1
 228 239 l 1
 228 267 l 1
 199 267 l 1
 199 239 l 1
228 239 m 1
 256 239 l 1
 256 267 l 1
 228 267 l 1
 228 239 l 1
28 210 m 1
 57 210 l 1
 57 239 l 1
 28 239 l 1
 28 210 l 1
57 210 m 1
 85 210 l 1
 85 239 l 1
 57 239 l 1
 57 210 l 1
85 210 m 1
 114 210 l 1
 114 239 l 1
 85 239 l 1
 85 210 l 1
199 210 m 1
 228 210 l 1
 228 239 l 1
 199 239 l 1
 199 210 l 1
228 210 m 1
 256 210 l 1
 256 239 l 1
 228 239 l 1
 228 210 l 1
28 182 m 1
 57 182 l 1
 57 210 l 1
 28 210 l 1
 28 182 l 1
57 182 m 1
 85 182 l 1
 85 210 l 1
 57 210 l 1
 57 182 l 1
85 182 m 1
 114 182 l 1
 114 210 l 1
 85 210 l 1
 85 182 l 1
199 182 m 1
 228 182 l 1
 228 210 l 1
 199 210 l 1
 199 182 l 1
228 182 m 1
 256 182 l 1
 256 210 l 1
 228 210 l 1
 228 182 l 1
57 154 m 1
 85 154 l 1
 85 182 l 1
 57 182 l 1
 57 154 l 1
85 154 m 1
 114 154 l 1
 114 182 l 1
 85 182 l 1
 85 154 l 1
114 154 m 1
 142 154 l 1
 142 182 l 1
 114 182 l 1
 114 154 l 1
199 154 m 1
 228 154 l 1
 228 182 l 1
 199 182 l 1
 199 154 l 1
228 154 m 1
 256 154 l 1
 256 182 l 1
 228 182 l 1
 228 154 l 1
85 125 m 1
 114 125 l 1
 114 154 l 1
 85 154 l 1
 85 125 l 1
114 125 m 1
 142 125 l 1
 142 154 l 1
 114 154 l 1
 114 125 l 1
142 125 m 1
 171 125 l 1
 171 154 l 1
 142 154 l 1
 142 125 l 1
199 125 m 1
 228 125 l 1
 228 154 l 1
 199 154 l 1
 199 125 l 1
228 125 m 1
 256 125 l 1
 256 154 l 1
 228 154 l 1
 228 125 l 1
171 97 m 1
 199 97 l 1
 199 125 l 1
 171 125 l 1
 171 97 l 1
199 97 m 1
 228 97 l 1
 228 125 l 1
 199 125 l 1
 199 97 l 1
228 97 m 1
 256 97 l 1
 256 125 l 1
 228 125 l 1
 228 97 l 1
142 68 m 1
 171 68 l 1
 171 97 l 1
 142 97 l 1
 142 68 l 1
171 68 m 1
 199 68 l 1
 199 97 l 1
 171 97 l 1
 171 68 l 1
199 68 m 1
 228 68 l 1
 228 97 l 1
 199 97 l 1
 199 68 l 1
114 40 m 1
 142 40 l 1
 142 68 l 1
 114 68 l 1
 114 40 l 1
142 40 m 1
 171 40 l 1
 171 68 l 1
 142 68 l 1
 142 40 l 1
171 40 m 1
 199 40 l 1
 199 68 l 1
 171 68 l 1
 171 40 l 1
57 11 m 1
 85 11 l 1
 85 40 l 1
 57 40 l 1
 57 11 l 1
85 11 m 1
 114 11 l 1
 114 40 l 1
 85 40 l 1
 85 11 l 1
114 11 m 1
 142 11 l 1
 142 40 l 1
 114 40 l 1
 114 11 l 1
EndSplineSet
Validated: 5
EndChar

StartChar: colon
Encoding: 58 58 66
Width: 262
Flags: HW
LayerCount: 2
Fore
SplineSet
114 239 m 1
 142 239 l 1
 142 267 l 1
 114 267 l 1
 114 239 l 1
142 239 m 1
 171 239 l 1
 171 267 l 1
 142 267 l 1
 142 239 l 1
114 210 m 1
 142 210 l 1
 142 239 l 1
 114 239 l 1
 114 210 l 1
142 210 m 1
 171 210 l 1
 171 239 l 1
 142 239 l 1
 142 210 l 1
114 97 m 1
 142 97 l 1
 142 125 l 1
 114 125 l 1
 114 97 l 1
142 97 m 1
 171 97 l 1
 171 125 l 1
 142 125 l 1
 142 97 l 1
114 68 m 1
 142 68 l 1
 142 97 l 1
 114 97 l 1
 114 68 l 1
142 68 m 1
 171 68 l 1
 171 97 l 1
 142 97 l 1
 142 68 l 1
EndSplineSet
Validated: 5
EndChar

StartChar: semicolon
Encoding: 59 59 67
Width: 262
Flags: HW
LayerCount: 2
Fore
SplineSet
114 239 m 1
 142 239 l 1
 142 267 l 1
 114 267 l 1
 114 239 l 1
142 239 m 1
 171 239 l 1
 171 267 l 1
 142 267 l 1
 142 239 l 1
114 210 m 1
 142 210 l 1
 142 239 l 1
 114 239 l 1
 114 210 l 1
142 210 m 1
 171 210 l 1
 171 239 l 1
 142 239 l 1
 142 210 l 1
114 97 m 1
 142 97 l 1
 142 125 l 1
 114 125 l 1
 114 97 l 1
142 97 m 1
 171 97 l 1
 171 125 l 1
 142 125 l 1
 142 97 l 1
114 68 m 1
 142 68 l 1
 142 97 l 1
 114 97 l 1
 114 68 l 1
142 68 m 1
 171 68 l 1
 171 97 l 1
 142 97 l 1
 142 68 l 1
142 40 m 1
 171 40 l 1
 171 68 l 1
 142 68 l 1
 142 40 l 1
114 11 m 1
 142 11 l 1
 142 40 l 1
 114 40 l 1
 114 11 l 1
EndSplineSet
Validated: 5
EndChar

StartChar: less
Encoding: 60 60 68
Width: 262
Flags: HW
LayerCount: 2
Fore
SplineSet
171 239 m 1
 199 239 l 1
 199 267 l 1
 171 267 l 1
 171 239 l 1
199 239 m 1
 228 239 l 1
 228 267 l 1
 199 267 l 1
 199 239 l 1
114 210 m 1
 142 210 l 1
 142 239 l 1
 114 239 l 1
 114 210 l 1
142 210 m 1
 171 210 l 1
 171 239 l 1
 142 239 l 1
 142 210 l 1
171 210 m 1
 199 210 l 1
 199 239 l 1
 171 239 l 1
 171 210 l 1
199 210 m 1
 228 210 l 1
 228 239 l 1
 199 239 l 1
 199 210 l 1
57 182 m 1
 85 182 l 1
 85 210 l 1
 57 210 l 1
 57 182 l 1
85 182 m 1
 114 182 l 1
 114 210 l 1
 85 210 l 1
 85 182 l 1
114 182 m 1
 142 182 l 1
 142 210 l 1
 114 210 l 1
 114 182 l 1
142 182 m 1
 171 182 l 1
 171 210 l 1
 142 210 l 1
 142 182 l 1
28 154 m 1
 57 154 l 1
 57 182 l 1
 28 182 l 1
 28 154 l 1
57 154 m 1
 85 154 l 1
 85 182 l 1
 57 182 l 1
 57 154 l 1
85 154 m 1
 114 154 l 1
 114 182 l 1
 85 182 l 1
 85 154 l 1
28 125 m 1
 57 125 l 1
 57 154 l 1
 28 154 l 1
 28 125 l 1
57 125 m 1
 85 125 l 1
 85 154 l 1
 57 154 l 1
 57 125 l 1
85 125 m 1
 114 125 l 1
 114 154 l 1
 85 154 l 1
 85 125 l 1
57 97 m 1
 85 97 l 1
 85 125 l 1
 57 125 l 1
 57 97 l 1
85 97 m 1
 114 97 l 1
 114 125 l 1
 85 125 l 1
 85 97 l 1
114 97 m 1
 142 97 l 1
 142 125 l 1
 114 125 l 1
 114 97 l 1
142 97 m 1
 171 97 l 1
 171 125 l 1
 142 125 l 1
 142 97 l 1
114 68 m 1
 142 68 l 1
 142 97 l 1
 114 97 l 1
 114 68 l 1
142 68 m 1
 171 68 l 1
 171 97 l 1
 142 97 l 1
 142 68 l 1
171 68 m 1
 199 68 l 1
 199 97 l 1
 171 97 l 1
 171 68 l 1
199 68 m 1
 228 68 l 1
 228 97 l 1
 199 97 l 1
 199 68 l 1
171 40 m 1
 199 40 l 1
 199 68 l 1
 171 68 l 1
 171 40 l 1
199 40 m 1
 228 40 l 1
 228 68 l 1
 199 68 l 1
 199 40 l 1
EndSplineSet
Validated: 5
EndChar

StartChar: equal
Encoding: 61 61 69
Width: 262
Flags: HW
LayerCount: 2
Fore
SplineSet
57 182 m 1
 85 182 l 1
 85 210 l 1
 57 210 l 1
 57 182 l 1
85 182 m 1
 114 182 l 1
 114 210 l 1
 85 210 l 1
 85 182 l 1
114 182 m 1
 142 182 l 1
 142 210 l 1
 114 210 l 1
 114 182 l 1
142 182 m 1
 171 182 l 1
 171 210 l 1
 142 210 l 1
 142 182 l 1
171 182 m 1
 199 182 l 1
 199 210 l 1
 171 210 l 1
 171 182 l 1
199 182 m 1
 228 182 l 1
 228 210 l 1
 199 210 l 1
 199 182 l 1
57 97 m 1
 85 97 l 1
 85 125 l 1
 57 125 l 1
 57 97 l 1
85 97 m 1
 114 97 l 1
 114 125 l 1
 85 125 l 1
 85 97 l 1
114 97 m 1
 142 97 l 1
 142 125 l 1
 114 125 l 1
 114 97 l 1
142 97 m 1
 171 97 l 1
 171 125 l 1
 142 125 l 1
 142 97 l 1
171 97 m 1
 199 97 l 1
 199 125 l 1
 171 125 l 1
 171 97 l 1
199 97 m 1
 228 97 l 1
 228 125 l 1
 199 125 l 1
 199 97 l 1
EndSplineSet
Validated: 5
EndChar

StartChar: greater
Encoding: 62 62 70
Width: 262
Flags: HW
LayerCount: 2
Fore
SplineSet
57 239 m 1
 85 239 l 1
 85 267 l 1
 57 267 l 1
 57 239 l 1
85 239 m 1
 114 239 l 1
 114 267 l 1
 85 267 l 1
 85 239 l 1
57 210 m 1
 85 210 l 1
 85 239 l 1
 57 239 l 1
 57 210 l 1
85 210 m 1
 114 210 l 1
 114 239 l 1
 85 239 l 1
 85 210 l 1
114 210 m 1
 142 210 l 1
 142 239 l 1
 114 239 l 1
 114 210 l 1
142 210 m 1
 171 210 l 1
 171 239 l 1
 142 239 l 1
 142 210 l 1
114 182 m 1
 142 182 l 1
 142 210 l 1
 114 210 l 1
 114 182 l 1
142 182 m 1
 171 182 l 1
 171 210 l 1
 142 210 l 1
 142 182 l 1
171 182 m 1
 199 182 l 1
 199 210 l 1
 171 210 l 1
 171 182 l 1
199 182 m 1
 228 182 l 1
 228 210 l 1
 199 210 l 1
 199 182 l 1
171 154 m 1
 199 154 l 1
 199 182 l 1
 171 182 l 1
 171 154 l 1
199 154 m 1
 228 154 l 1
 228 182 l 1
 199 182 l 1
 199 154 l 1
228 154 m 1
 256 154 l 1
 256 182 l 1
 228 182 l 1
 228 154 l 1
171 125 m 1
 199 125 l 1
 199 154 l 1
 171 154 l 1
 171 125 l 1
199 125 m 1
 228 125 l 1
 228 154 l 1
 199 154 l 1
 199 125 l 1
228 125 m 1
 256 125 l 1
 256 154 l 1
 228 154 l 1
 228 125 l 1
114 97 m 1
 142 97 l 1
 142 125 l 1
 114 125 l 1
 114 97 l 1
142 97 m 1
 171 97 l 1
 171 125 l 1
 142 125 l 1
 142 97 l 1
171 97 m 1
 199 97 l 1
 199 125 l 1
 171 125 l 1
 171 97 l 1
199 97 m 1
 228 97 l 1
 228 125 l 1
 199 125 l 1
 199 97 l 1
57 68 m 1
 85 68 l 1
 85 97 l 1
 57 97 l 1
 57 68 l 1
85 68 m 1
 114 68 l 1
 114 97 l 1
 85 97 l 1
 85 68 l 1
114 68 m 1
 142 68 l 1
 142 97 l 1
 114 97 l 1
 114 68 l 1
142 68 m 1
 171 68 l 1
 171 97 l 1
 142 97 l 1
 142 68 l 1
57 40 m 1
 85 40 l 1
 85 68 l 1
 57 68 l 1
 57 40 l 1
85 40 m 1
 114 40 l 1
 114 68 l 1
 85 68 l 1
 85 40 l 1
EndSplineSet
Validated: 5
EndChar

StartChar: question
Encoding: 63 63 71
Width: 262
Flags: HW
LayerCount: 2
Fore
SplineSet
85 324 m 1
 114 324 l 1
 114 353 l 1
 85 353 l 1
 85 324 l 1
114 324 m 1
 142 324 l 1
 142 353 l 1
 114 353 l 1
 114 324 l 1
142 324 m 1
 171 324 l 1
 171 353 l 1
 142 353 l 1
 142 324 l 1
171 324 m 1
 199 324 l 1
 199 353 l 1
 171 353 l 1
 171 324 l 1
28 296 m 1
 57 296 l 1
 57 324 l 1
 28 324 l 1
 28 296 l 1
57 296 m 1
 85 296 l 1
 85 324 l 1
 57 324 l 1
 57 296 l 1
85 296 m 1
 114 296 l 1
 114 324 l 1
 85 324 l 1
 85 296 l 1
114 296 m 1
 142 296 l 1
 142 324 l 1
 114 324 l 1
 114 296 l 1
142 296 m 1
 171 296 l 1
 171 324 l 1
 142 324 l 1
 142 296 l 1
171 296 m 1
 199 296 l 1
 199 324 l 1
 171 324 l 1
 171 296 l 1
199 296 m 1
 228 296 l 1
 228 324 l 1
 199 324 l 1
 199 296 l 1
28 267 m 1
 57 267 l 1
 57 296 l 1
 28 296 l 1
 28 267 l 1
57 267 m 1
 85 267 l 1
 85 296 l 1
 57 296 l 1
 57 267 l 1
85 267 m 1
 114 267 l 1
 114 296 l 1
 85 296 l 1
 85 267 l 1
199 267 m 1
 228 267 l 1
 228 296 l 1
 199 296 l 1
 199 267 l 1
228 267 m 1
 256 267 l 1
 256 296 l 1
 228 296 l 1
 228 267 l 1
57 239 m 1
 85 239 l 1
 85 267 l 1
 57 267 l 1
 57 239 l 1
199 239 m 1
 228 239 l 1
 228 267 l 1
 199 267 l 1
 199 239 l 1
228 239 m 1
 256 239 l 1
 256 267 l 1
 228 267 l 1
 228 239 l 1
171 210 m 1
 199 210 l 1
 199 239 l 1
 171 239 l 1
 171 210 l 1
199 210 m 1
 228 210 l 1
 228 239 l 1
 199 239 l 1
 199 210 l 1
228 210 m 1
 256 210 l 1
 256 239 l 1
 228 239 l 1
 228 210 l 1
171 182 m 1
 199 182 l 1
 199 210 l 1
 171 210 l 1
 171 182 l 1
199 182 m 1
 228 182 l 1
 228 210 l 1
 199 210 l 1
 199 182 l 1
228 182 m 1
 256 182 l 1
 256 210 l 1
 228 210 l 1
 228 182 l 1
142 154 m 1
 171 154 l 1
 171 182 l 1
 142 182 l 1
 142 154 l 1
171 154 m 1
 199 154 l 1
 199 182 l 1
 171 182 l 1
 171 154 l 1
199 154 m 1
 228 154 l 1
 228 182 l 1
 199 182 l 1
 199 154 l 1
114 125 m 1
 142 125 l 1
 142 154 l 1
 114 154 l 1
 114 125 l 1
142 125 m 1
 171 125 l 1
 171 154 l 1
 142 154 l 1
 142 125 l 1
171 125 m 1
 199 125 l 1
 199 154 l 1
 171 154 l 1
 171 125 l 1
114 97 m 1
 142 97 l 1
 142 125 l 1
 114 125 l 1
 114 97 l 1
142 97 m 1
 171 97 l 1
 171 125 l 1
 142 125 l 1
 142 97 l 1
114 40 m 1
 142 40 l 1
 142 68 l 1
 114 68 l 1
 114 40 l 1
142 40 m 1
 171 40 l 1
 171 68 l 1
 142 68 l 1
 142 40 l 1
114 11 m 1
 142 11 l 1
 142 40 l 1
 114 40 l 1
 114 11 l 1
142 11 m 1
 171 11 l 1
 171 40 l 1
 142 40 l 1
 142 11 l 1
EndSplineSet
Validated: 5
EndChar

StartChar: at
Encoding: 64 64 72
Width: 262
Flags: HW
LayerCount: 2
Fore
SplineSet
85 267 m 1
 114 267 l 1
 114 296 l 1
 85 296 l 1
 85 267 l 1
114 267 m 1
 142 267 l 1
 142 296 l 1
 114 296 l 1
 114 267 l 1
142 267 m 1
 171 267 l 1
 171 296 l 1
 142 296 l 1
 142 267 l 1
171 267 m 1
 199 267 l 1
 199 296 l 1
 171 296 l 1
 171 267 l 1
57 239 m 1
 85 239 l 1
 85 267 l 1
 57 267 l 1
 57 239 l 1
85 239 m 1
 114 239 l 1
 114 267 l 1
 85 267 l 1
 85 239 l 1
171 239 m 1
 199 239 l 1
 199 267 l 1
 171 267 l 1
 171 239 l 1
199 239 m 1
 228 239 l 1
 228 267 l 1
 199 267 l 1
 199 239 l 1
28 210 m 1
 57 210 l 1
 57 239 l 1
 28 239 l 1
 28 210 l 1
57 210 m 1
 85 210 l 1
 85 239 l 1
 57 239 l 1
 57 210 l 1
199 210 m 1
 228 210 l 1
 228 239 l 1
 199 239 l 1
 199 210 l 1
228 210 m 1
 256 210 l 1
 256 239 l 1
 228 239 l 1
 228 210 l 1
28 182 m 1
 57 182 l 1
 57 210 l 1
 28 210 l 1
 28 182 l 1
57 182 m 1
 85 182 l 1
 85 210 l 1
 57 210 l 1
 57 182 l 1
114 182 m 1
 142 182 l 1
 142 210 l 1
 114 210 l 1
 114 182 l 1
142 182 m 1
 171 182 l 1
 171 210 l 1
 142 210 l 1
 142 182 l 1
199 182 m 1
 228 182 l 1
 228 210 l 1
 199 210 l 1
 199 182 l 1
228 182 m 1
 256 182 l 1
 256 210 l 1
 228 210 l 1
 228 182 l 1
28 154 m 1
 57 154 l 1
 57 182 l 1
 28 182 l 1
 28 154 l 1
57 154 m 1
 85 154 l 1
 85 182 l 1
 57 182 l 1
 57 154 l 1
142 154 m 1
 171 154 l 1
 171 182 l 1
 142 182 l 1
 142 154 l 1
199 154 m 1
 228 154 l 1
 228 182 l 1
 199 182 l 1
 199 154 l 1
228 154 m 1
 256 154 l 1
 256 182 l 1
 228 182 l 1
 228 154 l 1
28 125 m 1
 57 125 l 1
 57 154 l 1
 28 154 l 1
 28 125 l 1
57 125 m 1
 85 125 l 1
 85 154 l 1
 57 154 l 1
 57 125 l 1
114 125 m 1
 142 125 l 1
 142 154 l 1
 114 154 l 1
 114 125 l 1
171 125 m 1
 199 125 l 1
 199 154 l 1
 171 154 l 1
 171 125 l 1
199 125 m 1
 228 125 l 1
 228 154 l 1
 199 154 l 1
 199 125 l 1
228 125 m 1
 256 125 l 1
 256 154 l 1
 228 154 l 1
 228 125 l 1
28 97 m 1
 57 97 l 1
 57 125 l 1
 28 125 l 1
 28 97 l 1
57 97 m 1
 85 97 l 1
 85 125 l 1
 57 125 l 1
 57 97 l 1
114 97 m 1
 142 97 l 1
 142 125 l 1
 114 125 l 1
 114 97 l 1
142 97 m 1
 171 97 l 1
 171 125 l 1
 142 125 l 1
 142 97 l 1
171 97 m 1
 199 97 l 1
 199 125 l 1
 171 125 l 1
 171 97 l 1
199 97 m 1
 228 97 l 1
 228 125 l 1
 199 125 l 1
 199 97 l 1
28 68 m 1
 57 68 l 1
 57 97 l 1
 28 97 l 1
 28 68 l 1
57 68 m 1
 85 68 l 1
 85 97 l 1
 57 97 l 1
 57 68 l 1
85 68 m 1
 114 68 l 1
 114 97 l 1
 85 97 l 1
 85 68 l 1
171 68 m 1
 199 68 l 1
 199 97 l 1
 171 97 l 1
 171 68 l 1
57 40 m 1
 85 40 l 1
 85 68 l 1
 57 68 l 1
 57 40 l 1
85 40 m 1
 114 40 l 1
 114 68 l 1
 85 68 l 1
 85 40 l 1
114 40 m 1
 142 40 l 1
 142 68 l 1
 114 68 l 1
 114 40 l 1
199 40 m 1
 228 40 l 1
 228 68 l 1
 199 68 l 1
 199 40 l 1
85 11 m 1
 114 11 l 1
 114 40 l 1
 85 40 l 1
 85 11 l 1
114 11 m 1
 142 11 l 1
 142 40 l 1
 114 40 l 1
 114 11 l 1
142 11 m 1
 171 11 l 1
 171 40 l 1
 142 40 l 1
 142 11 l 1
171 11 m 1
 199 11 l 1
 199 40 l 1
 171 40 l 1
 171 11 l 1
EndSplineSet
Validated: 5
EndChar

StartChar: bracketleft
Encoding: 91 91 73
Width: 262
Flags: HW
LayerCount: 2
Fore
SplineSet
85 296 m 1
 114 296 l 1
 114 324 l 1
 85 324 l 1
 85 296 l 1
114 296 m 1
 142 296 l 1
 142 324 l 1
 114 324 l 1
 114 296 l 1
142 296 m 1
 171 296 l 1
 171 324 l 1
 142 324 l 1
 142 296 l 1
171 296 m 1
 199 296 l 1
 199 324 l 1
 171 324 l 1
 171 296 l 1
199 296 m 1
 228 296 l 1
 228 324 l 1
 199 324 l 1
 199 296 l 1
85 267 m 1
 114 267 l 1
 114 296 l 1
 85 296 l 1
 85 267 l 1
114 267 m 1
 142 267 l 1
 142 296 l 1
 114 296 l 1
 114 267 l 1
85 239 m 1
 114 239 l 1
 114 267 l 1
 85 267 l 1
 85 239 l 1
114 239 m 1
 142 239 l 1
 142 267 l 1
 114 267 l 1
 114 239 l 1
85 210 m 1
 114 210 l 1
 114 239 l 1
 85 239 l 1
 85 210 l 1
114 210 m 1
 142 210 l 1
 142 239 l 1
 114 239 l 1
 114 210 l 1
85 182 m 1
 114 182 l 1
 114 210 l 1
 85 210 l 1
 85 182 l 1
114 182 m 1
 142 182 l 1
 142 210 l 1
 114 210 l 1
 114 182 l 1
85 154 m 1
 114 154 l 1
 114 182 l 1
 85 182 l 1
 85 154 l 1
114 154 m 1
 142 154 l 1
 142 182 l 1
 114 182 l 1
 114 154 l 1
85 125 m 1
 114 125 l 1
 114 154 l 1
 85 154 l 1
 85 125 l 1
114 125 m 1
 142 125 l 1
 142 154 l 1
 114 154 l 1
 114 125 l 1
85 97 m 1
 114 97 l 1
 114 125 l 1
 85 125 l 1
 85 97 l 1
114 97 m 1
 142 97 l 1
 142 125 l 1
 114 125 l 1
 114 97 l 1
85 68 m 1
 114 68 l 1
 114 97 l 1
 85 97 l 1
 85 68 l 1
114 68 m 1
 142 68 l 1
 142 97 l 1
 114 97 l 1
 114 68 l 1
85 40 m 1
 114 40 l 1
 114 68 l 1
 85 68 l 1
 85 40 l 1
114 40 m 1
 142 40 l 1
 142 68 l 1
 114 68 l 1
 114 40 l 1
85 11 m 1
 114 11 l 1
 114 40 l 1
 85 40 l 1
 85 11 l 1
114 11 m 1
 142 11 l 1
 142 40 l 1
 114 40 l 1
 114 11 l 1
85 -17 m 1
 114 -17 l 1
 114 11 l 1
 85 11 l 1
 85 -17 l 1
114 -17 m 1
 142 -17 l 1
 142 11 l 1
 114 11 l 1
 114 -17 l 1
142 -17 m 1
 171 -17 l 1
 171 11 l 1
 142 11 l 1
 142 -17 l 1
171 -17 m 1
 199 -17 l 1
 199 11 l 1
 171 11 l 1
 171 -17 l 1
199 -17 m 1
 228 -17 l 1
 228 11 l 1
 199 11 l 1
 199 -17 l 1
EndSplineSet
Validated: 5
EndChar

StartChar: bracketright
Encoding: 93 93 74
Width: 262
Flags: HW
LayerCount: 2
Fore
SplineSet
57 296 m 1
 85 296 l 1
 85 324 l 1
 57 324 l 1
 57 296 l 1
85 296 m 1
 114 296 l 1
 114 324 l 1
 85 324 l 1
 85 296 l 1
114 296 m 1
 142 296 l 1
 142 324 l 1
 114 324 l 1
 114 296 l 1
142 296 m 1
 171 296 l 1
 171 324 l 1
 142 324 l 1
 142 296 l 1
171 296 m 1
 199 296 l 1
 199 324 l 1
 171 324 l 1
 171 296 l 1
142 267 m 1
 171 267 l 1
 171 296 l 1
 142 296 l 1
 142 267 l 1
171 267 m 1
 199 267 l 1
 199 296 l 1
 171 296 l 1
 171 267 l 1
142 239 m 1
 171 239 l 1
 171 267 l 1
 142 267 l 1
 142 239 l 1
171 239 m 1
 199 239 l 1
 199 267 l 1
 171 267 l 1
 171 239 l 1
142 210 m 1
 171 210 l 1
 171 239 l 1
 142 239 l 1
 142 210 l 1
171 210 m 1
 199 210 l 1
 199 239 l 1
 171 239 l 1
 171 210 l 1
142 182 m 1
 171 182 l 1
 171 210 l 1
 142 210 l 1
 142 182 l 1
171 182 m 1
 199 182 l 1
 199 210 l 1
 171 210 l 1
 171 182 l 1
142 154 m 1
 171 154 l 1
 171 182 l 1
 142 182 l 1
 142 154 l 1
171 154 m 1
 199 154 l 1
 199 182 l 1
 171 182 l 1
 171 154 l 1
142 125 m 1
 171 125 l 1
 171 154 l 1
 142 154 l 1
 142 125 l 1
171 125 m 1
 199 125 l 1
 199 154 l 1
 171 154 l 1
 171 125 l 1
142 97 m 1
 171 97 l 1
 171 125 l 1
 142 125 l 1
 142 97 l 1
171 97 m 1
 199 97 l 1
 199 125 l 1
 171 125 l 1
 171 97 l 1
142 68 m 1
 171 68 l 1
 171 97 l 1
 142 97 l 1
 142 68 l 1
171 68 m 1
 199 68 l 1
 199 97 l 1
 171 97 l 1
 171 68 l 1
142 40 m 1
 171 40 l 1
 171 68 l 1
 142 68 l 1
 142 40 l 1
171 40 m 1
 199 40 l 1
 199 68 l 1
 171 68 l 1
 171 40 l 1
142 11 m 1
 171 11 l 1
 171 40 l 1
 142 40 l 1
 142 11 l 1
171 11 m 1
 199 11 l 1
 199 40 l 1
 171 40 l 1
 171 11 l 1
57 -17 m 1
 85 -17 l 1
 85 11 l 1
 57 11 l 1
 57 -17 l 1
85 -17 m 1
 114 -17 l 1
 114 11 l 1
 85 11 l 1
 85 -17 l 1
114 -17 m 1
 142 -17 l 1
 142 11 l 1
 114 11 l 1
 114 -17 l 1
142 -17 m 1
 171 -17 l 1
 171 11 l 1
 142 11 l 1
 142 -17 l 1
171 -17 m 1
 199 -17 l 1
 199 11 l 1
 171 11 l 1
 171 -17 l 1
EndSplineSet
Validated: 5
EndChar

StartChar: asciicircum
Encoding: 94 94 75
Width: 262
Flags: HW
LayerCount: 2
Fore
SplineSet
114 324 m 1
 142 324 l 1
 142 353 l 1
 114 353 l 1
 114 324 l 1
142 324 m 1
 171 324 l 1
 171 353 l 1
 142 353 l 1
 142 324 l 1
85 296 m 1
 114 296 l 1
 114 324 l 1
 85 324 l 1
 85 296 l 1
114 296 m 1
 142 296 l 1
 142 324 l 1
 114 324 l 1
 114 296 l 1
142 296 m 1
 171 296 l 1
 171 324 l 1
 142 324 l 1
 142 296 l 1
171 296 m 1
 199 296 l 1
 199 324 l 1
 171 324 l 1
 171 296 l 1
85 267 m 1
 114 267 l 1
 114 296 l 1
 85 296 l 1
 85 267 l 1
114 267 m 1
 142 267 l 1
 142 296 l 1
 114 296 l 1
 114 267 l 1
142 267 m 1
 171 267 l 1
 171 296 l 1
 142 296 l 1
 142 267 l 1
171 267 m 1
 199 267 l 1
 199 296 l 1
 171 296 l 1
 171 267 l 1
57 239 m 1
 85 239 l 1
 85 267 l 1
 57 267 l 1
 57 239 l 1
85 239 m 1
 114 239 l 1
 114 267 l 1
 85 267 l 1
 85 239 l 1
114 239 m 1
 142 239 l 1
 142 267 l 1
 114 267 l 1
 114 239 l 1
142 239 m 1
 171 239 l 1
 171 267 l 1
 142 267 l 1
 142 239 l 1
171 239 m 1
 199 239 l 1
 199 267 l 1
 171 267 l 1
 171 239 l 1
199 239 m 1
 228 239 l 1
 228 267 l 1
 199 267 l 1
 199 239 l 1
57 210 m 1
 85 210 l 1
 85 239 l 1
 57 239 l 1
 57 210 l 1
85 210 m 1
 114 210 l 1
 114 239 l 1
 85 239 l 1
 85 210 l 1
171 210 m 1
 199 210 l 1
 199 239 l 1
 171 239 l 1
 171 210 l 1
199 210 m 1
 228 210 l 1
 228 239 l 1
 199 239 l 1
 199 210 l 1
28 182 m 1
 57 182 l 1
 57 210 l 1
 28 210 l 1
 28 182 l 1
57 182 m 1
 85 182 l 1
 85 210 l 1
 57 210 l 1
 57 182 l 1
85 182 m 1
 114 182 l 1
 114 210 l 1
 85 210 l 1
 85 182 l 1
171 182 m 1
 199 182 l 1
 199 210 l 1
 171 210 l 1
 171 182 l 1
199 182 m 1
 228 182 l 1
 228 210 l 1
 199 210 l 1
 199 182 l 1
228 182 m 1
 256 182 l 1
 256 210 l 1
 228 210 l 1
 228 182 l 1
28 154 m 1
 57 154 l 1
 57 182 l 1
 28 182 l 1
 28 154 l 1
57 154 m 1
 85 154 l 1
 85 182 l 1
 57 182 l 1
 57 154 l 1
199 154 m 1
 228 154 l 1
 228 182 l 1
 199 182 l 1
 199 154 l 1
228 154 m 1
 256 154 l 1
 256 182 l 1
 228 182 l 1
 228 154 l 1
28 125 m 1
 57 125 l 1
 57 154 l 1
 28 154 l 1
 28 125 l 1
57 125 m 1
 85 125 l 1
 85 154 l 1
 57 154 l 1
 57 125 l 1
199 125 m 1
 228 125 l 1
 228 154 l 1
 199 154 l 1
 199 125 l 1
228 125 m 1
 256 125 l 1
 256 154 l 1
 228 154 l 1
 228 125 l 1
EndSplineSet
Validated: 5
EndChar

StartChar: underscore
Encoding: 95 95 76
Width: 262
Flags: HW
LayerCount: 2
Fore
SplineSet
28 11 m 1
 57 11 l 1
 57 40 l 1
 28 40 l 1
 28 11 l 1
57 11 m 1
 85 11 l 1
 85 40 l 1
 57 40 l 1
 57 11 l 1
85 11 m 1
 114 11 l 1
 114 40 l 1
 85 40 l 1
 85 11 l 1
114 11 m 1
 142 11 l 1
 142 40 l 1
 114 40 l 1
 114 11 l 1
142 11 m 1
 171 11 l 1
 171 40 l 1
 142 40 l 1
 142 11 l 1
171 11 m 1
 199 11 l 1
 199 40 l 1
 171 40 l 1
 171 11 l 1
199 11 m 1
 228 11 l 1
 228 40 l 1
 199 40 l 1
 199 11 l 1
228 11 m 1
 256 11 l 1
 256 40 l 1
 228 40 l 1
 228 11 l 1
28 -17 m 1
 57 -17 l 1
 57 11 l 1
 28 11 l 1
 28 -17 l 1
57 -17 m 1
 85 -17 l 1
 85 11 l 1
 57 11 l 1
 57 -17 l 1
85 -17 m 1
 114 -17 l 1
 114 11 l 1
 85 11 l 1
 85 -17 l 1
114 -17 m 1
 142 -17 l 1
 142 11 l 1
 114 11 l 1
 114 -17 l 1
142 -17 m 1
 171 -17 l 1
 171 11 l 1
 142 11 l 1
 142 -17 l 1
171 -17 m 1
 199 -17 l 1
 199 11 l 1
 171 11 l 1
 171 -17 l 1
199 -17 m 1
 228 -17 l 1
 228 11 l 1
 199 11 l 1
 199 -17 l 1
228 -17 m 1
 256 -17 l 1
 256 11 l 1
 228 11 l 1
 228 -17 l 1
EndSplineSet
Validated: 5
EndChar

StartChar: grave
Encoding: 96 96 77
Width: 262
Flags: HW
LayerCount: 2
Fore
SplineSet
57 324 m 1
 85 324 l 1
 85 353 l 1
 57 353 l 1
 57 324 l 1
85 324 m 1
 114 324 l 1
 114 353 l 1
 85 353 l 1
 85 324 l 1
85 296 m 1
 114 296 l 1
 114 324 l 1
 85 324 l 1
 85 296 l 1
114 296 m 1
 142 296 l 1
 142 324 l 1
 114 324 l 1
 114 296 l 1
114 267 m 1
 142 267 l 1
 142 296 l 1
 114 296 l 1
 114 267 l 1
142 267 m 1
 171 267 l 1
 171 296 l 1
 142 296 l 1
 142 267 l 1
EndSplineSet
Validated: 5
EndChar

StartChar: a
Encoding: 97 97 78
Width: 262
Flags: HW
LayerCount: 2
Fore
SplineSet
57 239 m 1
 85 239 l 1
 85 267 l 1
 57 267 l 1
 57 239 l 1
85 239 m 1
 114 239 l 1
 114 267 l 1
 85 267 l 1
 85 239 l 1
114 239 m 1
 142 239 l 1
 142 267 l 1
 114 267 l 1
 114 239 l 1
142 239 m 1
 171 239 l 1
 171 267 l 1
 142 267 l 1
 142 239 l 1
171 239 m 1
 199 239 l 1
 199 267 l 1
 171 267 l 1
 171 239 l 1
28 210 m 1
 57 210 l 1
 57 239 l 1
 28 239 l 1
 28 210 l 1
57 210 m 1
 85 210 l 1
 85 239 l 1
 57 239 l 1
 57 210 l 1
85 210 m 1
 114 210 l 1
 114 239 l 1
 85 239 l 1
 85 210 l 1
171 210 m 1
 199 210 l 1
 199 239 l 1
 171 239 l 1
 171 210 l 1
199 210 m 1
 228 210 l 1
 228 239 l 1
 199 239 l 1
 199 210 l 1
28 182 m 1
 57 182 l 1
 57 210 l 1
 28 210 l 1
 28 182 l 1
57 182 m 1
 85 182 l 1
 85 210 l 1
 57 210 l 1
 57 182 l 1
171 182 m 1
 199 182 l 1
 199 210 l 1
 171 210 l 1
 171 182 l 1
199 182 m 1
 228 182 l 1
 228 210 l 1
 199 210 l 1
 199 182 l 1
85 154 m 1
 114 154 l 1
 114 182 l 1
 85 182 l 1
 85 154 l 1
114 154 m 1
 142 154 l 1
 142 182 l 1
 114 182 l 1
 114 154 l 1
142 154 m 1
 171 154 l 1
 171 182 l 1
 142 182 l 1
 142 154 l 1
171 154 m 1
 199 154 l 1
 199 182 l 1
 171 182 l 1
 171 154 l 1
199 154 m 1
 228 154 l 1
 228 182 l 1
 199 182 l 1
 199 154 l 1
57 125 m 1
 85 125 l 1
 85 154 l 1
 57 154 l 1
 57 125 l 1
85 125 m 1
 114 125 l 1
 114 154 l 1
 85 154 l 1
 85 125 l 1
171 125 m 1
 199 125 l 1
 199 154 l 1
 171 154 l 1
 171 125 l 1
199 125 m 1
 228 125 l 1
 228 154 l 1
 199 154 l 1
 199 125 l 1
28 97 m 1
 57 97 l 1
 57 125 l 1
 28 125 l 1
 28 97 l 1
57 97 m 1
 85 97 l 1
 85 125 l 1
 57 125 l 1
 57 97 l 1
171 97 m 1
 199 97 l 1
 199 125 l 1
 171 125 l 1
 171 97 l 1
199 97 m 1
 228 97 l 1
 228 125 l 1
 199 125 l 1
 199 97 l 1
28 68 m 1
 57 68 l 1
 57 97 l 1
 28 97 l 1
 28 68 l 1
57 68 m 1
 85 68 l 1
 85 97 l 1
 57 97 l 1
 57 68 l 1
171 68 m 1
 199 68 l 1
 199 97 l 1
 171 97 l 1
 171 68 l 1
199 68 m 1
 228 68 l 1
 228 97 l 1
 199 97 l 1
 199 68 l 1
28 40 m 1
 57 40 l 1
 57 68 l 1
 28 68 l 1
 28 40 l 1
57 40 m 1
 85 40 l 1
 85 68 l 1
 57 68 l 1
 57 40 l 1
85 40 m 1
 114 40 l 1
 114 68 l 1
 85 68 l 1
 85 40 l 1
142 40 m 1
 171 40 l 1
 171 68 l 1
 142 68 l 1
 142 40 l 1
171 40 m 1
 199 40 l 1
 199 68 l 1
 171 68 l 1
 171 40 l 1
199 40 m 1
 228 40 l 1
 228 68 l 1
 199 68 l 1
 199 40 l 1
57 11 m 1
 85 11 l 1
 85 40 l 1
 57 40 l 1
 57 11 l 1
85 11 m 1
 114 11 l 1
 114 40 l 1
 85 40 l 1
 85 11 l 1
114 11 m 1
 142 11 l 1
 142 40 l 1
 114 40 l 1
 114 11 l 1
228 11 m 1
 256 11 l 1
 256 40 l 1
 228 40 l 1
 228 11 l 1
EndSplineSet
Validated: 5
EndChar

StartChar: d
Encoding: 100 100 79
Width: 262
Flags: HW
LayerCount: 2
Fore
SplineSet
142 324 m 1
 171 324 l 1
 171 353 l 1
 142 353 l 1
 142 324 l 1
171 324 m 1
 199 324 l 1
 199 353 l 1
 171 353 l 1
 171 324 l 1
199 324 m 1
 228 324 l 1
 228 353 l 1
 199 353 l 1
 199 324 l 1
171 296 m 1
 199 296 l 1
 199 324 l 1
 171 324 l 1
 171 296 l 1
199 296 m 1
 228 296 l 1
 228 324 l 1
 199 324 l 1
 199 296 l 1
171 267 m 1
 199 267 l 1
 199 296 l 1
 171 296 l 1
 171 267 l 1
199 267 m 1
 228 267 l 1
 228 296 l 1
 199 296 l 1
 199 267 l 1
171 239 m 1
 199 239 l 1
 199 267 l 1
 171 267 l 1
 171 239 l 1
199 239 m 1
 228 239 l 1
 228 267 l 1
 199 267 l 1
 199 239 l 1
85 210 m 1
 114 210 l 1
 114 239 l 1
 85 239 l 1
 85 210 l 1
114 210 m 1
 142 210 l 1
 142 239 l 1
 114 239 l 1
 114 210 l 1
142 210 m 1
 171 210 l 1
 171 239 l 1
 142 239 l 1
 142 210 l 1
171 210 m 1
 199 210 l 1
 199 239 l 1
 171 239 l 1
 171 210 l 1
199 210 m 1
 228 210 l 1
 228 239 l 1
 199 239 l 1
 199 210 l 1
57 182 m 1
 85 182 l 1
 85 210 l 1
 57 210 l 1
 57 182 l 1
85 182 m 1
 114 182 l 1
 114 210 l 1
 85 210 l 1
 85 182 l 1
171 182 m 1
 199 182 l 1
 199 210 l 1
 171 210 l 1
 171 182 l 1
199 182 m 1
 228 182 l 1
 228 210 l 1
 199 210 l 1
 199 182 l 1
28 154 m 1
 57 154 l 1
 57 182 l 1
 28 182 l 1
 28 154 l 1
57 154 m 1
 85 154 l 1
 85 182 l 1
 57 182 l 1
 57 154 l 1
171 154 m 1
 199 154 l 1
 199 182 l 1
 171 182 l 1
 171 154 l 1
199 154 m 1
 228 154 l 1
 228 182 l 1
 199 182 l 1
 199 154 l 1
28 125 m 1
 57 125 l 1
 57 154 l 1
 28 154 l 1
 28 125 l 1
57 125 m 1
 85 125 l 1
 85 154 l 1
 57 154 l 1
 57 125 l 1
171 125 m 1
 199 125 l 1
 199 154 l 1
 171 154 l 1
 171 125 l 1
199 125 m 1
 228 125 l 1
 228 154 l 1
 199 154 l 1
 199 125 l 1
28 97 m 1
 57 97 l 1
 57 125 l 1
 28 125 l 1
 28 97 l 1
57 97 m 1
 85 97 l 1
 85 125 l 1
 57 125 l 1
 57 97 l 1
171 97 m 1
 199 97 l 1
 199 125 l 1
 171 125 l 1
 171 97 l 1
199 97 m 1
 228 97 l 1
 228 125 l 1
 199 125 l 1
 199 97 l 1
28 68 m 1
 57 68 l 1
 57 97 l 1
 28 97 l 1
 28 68 l 1
57 68 m 1
 85 68 l 1
 85 97 l 1
 57 97 l 1
 57 68 l 1
171 68 m 1
 199 68 l 1
 199 97 l 1
 171 97 l 1
 171 68 l 1
199 68 m 1
 228 68 l 1
 228 97 l 1
 199 97 l 1
 199 68 l 1
28 40 m 1
 57 40 l 1
 57 68 l 1
 28 68 l 1
 28 40 l 1
57 40 m 1
 85 40 l 1
 85 68 l 1
 57 68 l 1
 57 40 l 1
85 40 m 1
 114 40 l 1
 114 68 l 1
 85 68 l 1
 85 40 l 1
142 40 m 1
 171 40 l 1
 171 68 l 1
 142 68 l 1
 142 40 l 1
171 40 m 1
 199 40 l 1
 199 68 l 1
 171 68 l 1
 171 40 l 1
199 40 m 1
 228 40 l 1
 228 68 l 1
 199 68 l 1
 199 40 l 1
57 11 m 1
 85 11 l 1
 85 40 l 1
 57 40 l 1
 57 11 l 1
85 11 m 1
 114 11 l 1
 114 40 l 1
 85 40 l 1
 85 11 l 1
114 11 m 1
 142 11 l 1
 142 40 l 1
 114 40 l 1
 114 11 l 1
142 11 m 1
 171 11 l 1
 171 40 l 1
 142 40 l 1
 142 11 l 1
199 11 m 1
 228 11 l 1
 228 40 l 1
 199 40 l 1
 199 11 l 1
228 11 m 1
 256 11 l 1
 256 40 l 1
 228 40 l 1
 228 11 l 1
EndSplineSet
Validated: 5
EndChar

StartChar: g
Encoding: 103 103 80
Width: 262
Flags: HW
LayerCount: 2
Fore
SplineSet
57 267 m 1
 85 267 l 1
 85 296 l 1
 57 296 l 1
 57 267 l 1
85 267 m 1
 114 267 l 1
 114 296 l 1
 85 296 l 1
 85 267 l 1
114 267 m 1
 142 267 l 1
 142 296 l 1
 114 296 l 1
 114 267 l 1
142 267 m 1
 171 267 l 1
 171 296 l 1
 142 296 l 1
 142 267 l 1
171 267 m 1
 199 267 l 1
 199 296 l 1
 171 296 l 1
 171 267 l 1
28 239 m 1
 57 239 l 1
 57 267 l 1
 28 267 l 1
 28 239 l 1
57 239 m 1
 85 239 l 1
 85 267 l 1
 57 267 l 1
 57 239 l 1
85 239 m 1
 114 239 l 1
 114 267 l 1
 85 267 l 1
 85 239 l 1
142 239 m 1
 171 239 l 1
 171 267 l 1
 142 267 l 1
 142 239 l 1
171 239 m 1
 199 239 l 1
 199 267 l 1
 171 267 l 1
 171 239 l 1
199 239 m 1
 228 239 l 1
 228 267 l 1
 199 267 l 1
 199 239 l 1
228 239 m 1
 256 239 l 1
 256 267 l 1
 228 267 l 1
 228 239 l 1
28 210 m 1
 57 210 l 1
 57 239 l 1
 28 239 l 1
 28 210 l 1
57 210 m 1
 85 210 l 1
 85 239 l 1
 57 239 l 1
 57 210 l 1
171 210 m 1
 199 210 l 1
 199 239 l 1
 171 239 l 1
 171 210 l 1
199 210 m 1
 228 210 l 1
 228 239 l 1
 199 239 l 1
 199 210 l 1
28 182 m 1
 57 182 l 1
 57 210 l 1
 28 210 l 1
 28 182 l 1
57 182 m 1
 85 182 l 1
 85 210 l 1
 57 210 l 1
 57 182 l 1
171 182 m 1
 199 182 l 1
 199 210 l 1
 171 210 l 1
 171 182 l 1
199 182 m 1
 228 182 l 1
 228 210 l 1
 199 210 l 1
 199 182 l 1
28 154 m 1
 57 154 l 1
 57 182 l 1
 28 182 l 1
 28 154 l 1
57 154 m 1
 85 154 l 1
 85 182 l 1
 57 182 l 1
 57 154 l 1
85 154 m 1
 114 154 l 1
 114 182 l 1
 85 182 l 1
 85 154 l 1
171 154 m 1
 199 154 l 1
 199 182 l 1
 171 182 l 1
 171 154 l 1
57 125 m 1
 85 125 l 1
 85 154 l 1
 57 154 l 1
 57 125 l 1
85 125 m 1
 114 125 l 1
 114 154 l 1
 85 154 l 1
 85 125 l 1
114 125 m 1
 142 125 l 1
 142 154 l 1
 114 154 l 1
 114 125 l 1
142 125 m 1
 171 125 l 1
 171 154 l 1
 142 154 l 1
 142 125 l 1
28 97 m 1
 57 97 l 1
 57 125 l 1
 28 125 l 1
 28 97 l 1
28 68 m 1
 57 68 l 1
 57 97 l 1
 28 97 l 1
 28 68 l 1
57 68 m 1
 85 68 l 1
 85 97 l 1
 57 97 l 1
 57 68 l 1
85 68 m 1
 114 68 l 1
 114 97 l 1
 85 97 l 1
 85 68 l 1
114 68 m 1
 142 68 l 1
 142 97 l 1
 114 97 l 1
 114 68 l 1
142 68 m 1
 171 68 l 1
 171 97 l 1
 142 97 l 1
 142 68 l 1
57 40 m 1
 85 40 l 1
 85 68 l 1
 57 68 l 1
 57 40 l 1
85 40 m 1
 114 40 l 1
 114 68 l 1
 85 68 l 1
 85 40 l 1
114 40 m 1
 142 40 l 1
 142 68 l 1
 114 68 l 1
 114 40 l 1
142 40 m 1
 171 40 l 1
 171 68 l 1
 142 68 l 1
 142 40 l 1
171 40 m 1
 199 40 l 1
 199 68 l 1
 171 68 l 1
 171 40 l 1
199 40 m 1
 228 40 l 1
 228 68 l 1
 199 68 l 1
 199 40 l 1
28 11 m 1
 57 11 l 1
 57 40 l 1
 28 40 l 1
 28 11 l 1
57 11 m 1
 85 11 l 1
 85 40 l 1
 57 40 l 1
 57 11 l 1
199 11 m 1
 228 11 l 1
 228 40 l 1
 199 40 l 1
 199 11 l 1
228 11 m 1
 256 11 l 1
 256 40 l 1
 228 40 l 1
 228 11 l 1
28 -17 m 1
 57 -17 l 1
 57 11 l 1
 28 11 l 1
 28 -17 l 1
57 -17 m 1
 85 -17 l 1
 85 11 l 1
 57 11 l 1
 57 -17 l 1
228 -17 m 1
 256 -17 l 1
 256 11 l 1
 228 11 l 1
 228 -17 l 1
28 -46 m 1
 57 -46 l 1
 57 -17 l 1
 28 -17 l 1
 28 -46 l 1
57 -46 m 1
 85 -46 l 1
 85 -17 l 1
 57 -17 l 1
 57 -46 l 1
85 -46 m 1
 114 -46 l 1
 114 -17 l 1
 85 -17 l 1
 85 -46 l 1
199 -46 m 1
 228 -46 l 1
 228 -17 l 1
 199 -17 l 1
 199 -46 l 1
57 -74 m 1
 85 -74 l 1
 85 -46 l 1
 57 -46 l 1
 57 -74 l 1
85 -74 m 1
 114 -74 l 1
 114 -46 l 1
 85 -46 l 1
 85 -74 l 1
114 -74 m 1
 142 -74 l 1
 142 -46 l 1
 114 -46 l 1
 114 -74 l 1
142 -74 m 1
 171 -74 l 1
 171 -46 l 1
 142 -46 l 1
 142 -74 l 1
171 -74 m 1
 199 -74 l 1
 199 -46 l 1
 171 -46 l 1
 171 -74 l 1
EndSplineSet
Validated: 5
EndChar

StartChar: j
Encoding: 106 106 81
Width: 262
Flags: HW
LayerCount: 2
Fore
SplineSet
114 296 m 1
 142 296 l 1
 142 324 l 1
 114 324 l 1
 114 296 l 1
142 296 m 1
 171 296 l 1
 171 324 l 1
 142 324 l 1
 142 296 l 1
114 267 m 1
 142 267 l 1
 142 296 l 1
 114 296 l 1
 114 267 l 1
142 267 m 1
 171 267 l 1
 171 296 l 1
 142 296 l 1
 142 267 l 1
142 210 m 1
 171 210 l 1
 171 239 l 1
 142 239 l 1
 142 210 l 1
85 182 m 1
 114 182 l 1
 114 210 l 1
 85 210 l 1
 85 182 l 1
114 182 m 1
 142 182 l 1
 142 210 l 1
 114 210 l 1
 114 182 l 1
142 182 m 1
 171 182 l 1
 171 210 l 1
 142 210 l 1
 142 182 l 1
114 154 m 1
 142 154 l 1
 142 182 l 1
 114 182 l 1
 114 154 l 1
142 154 m 1
 171 154 l 1
 171 182 l 1
 142 182 l 1
 142 154 l 1
114 125 m 1
 142 125 l 1
 142 154 l 1
 114 154 l 1
 114 125 l 1
142 125 m 1
 171 125 l 1
 171 154 l 1
 142 154 l 1
 142 125 l 1
114 97 m 1
 142 97 l 1
 142 125 l 1
 114 125 l 1
 114 97 l 1
142 97 m 1
 171 97 l 1
 171 125 l 1
 142 125 l 1
 142 97 l 1
114 68 m 1
 142 68 l 1
 142 97 l 1
 114 97 l 1
 114 68 l 1
142 68 m 1
 171 68 l 1
 171 97 l 1
 142 97 l 1
 142 68 l 1
85 40 m 1
 114 40 l 1
 114 68 l 1
 85 68 l 1
 85 40 l 1
114 40 m 1
 142 40 l 1
 142 68 l 1
 114 68 l 1
 114 40 l 1
142 40 m 1
 171 40 l 1
 171 68 l 1
 142 68 l 1
 142 40 l 1
85 11 m 1
 114 11 l 1
 114 40 l 1
 85 40 l 1
 85 11 l 1
114 11 m 1
 142 11 l 1
 142 40 l 1
 114 40 l 1
 114 11 l 1
85 -17 m 1
 114 -17 l 1
 114 11 l 1
 85 11 l 1
 85 -17 l 1
57 -46 m 1
 85 -46 l 1
 85 -17 l 1
 57 -17 l 1
 57 -46 l 1
EndSplineSet
Validated: 5
EndChar

StartChar: l
Encoding: 108 108 82
Width: 262
Flags: HW
LayerCount: 2
Fore
SplineSet
142 324 m 1
 171 324 l 1
 171 353 l 1
 142 353 l 1
 142 324 l 1
85 296 m 1
 114 296 l 1
 114 324 l 1
 85 324 l 1
 85 296 l 1
114 296 m 1
 142 296 l 1
 142 324 l 1
 114 324 l 1
 114 296 l 1
142 296 m 1
 171 296 l 1
 171 324 l 1
 142 324 l 1
 142 296 l 1
114 267 m 1
 142 267 l 1
 142 296 l 1
 114 296 l 1
 114 267 l 1
142 267 m 1
 171 267 l 1
 171 296 l 1
 142 296 l 1
 142 267 l 1
114 239 m 1
 142 239 l 1
 142 267 l 1
 114 267 l 1
 114 239 l 1
142 239 m 1
 171 239 l 1
 171 267 l 1
 142 267 l 1
 142 239 l 1
114 210 m 1
 142 210 l 1
 142 239 l 1
 114 239 l 1
 114 210 l 1
142 210 m 1
 171 210 l 1
 171 239 l 1
 142 239 l 1
 142 210 l 1
114 182 m 1
 142 182 l 1
 142 210 l 1
 114 210 l 1
 114 182 l 1
142 182 m 1
 171 182 l 1
 171 210 l 1
 142 210 l 1
 142 182 l 1
114 154 m 1
 142 154 l 1
 142 182 l 1
 114 182 l 1
 114 154 l 1
142 154 m 1
 171 154 l 1
 171 182 l 1
 142 182 l 1
 142 154 l 1
114 125 m 1
 142 125 l 1
 142 154 l 1
 114 154 l 1
 114 125 l 1
142 125 m 1
 171 125 l 1
 171 154 l 1
 142 154 l 1
 142 125 l 1
114 97 m 1
 142 97 l 1
 142 125 l 1
 114 125 l 1
 114 97 l 1
142 97 m 1
 171 97 l 1
 171 125 l 1
 142 125 l 1
 142 97 l 1
114 68 m 1
 142 68 l 1
 142 97 l 1
 114 97 l 1
 114 68 l 1
142 68 m 1
 171 68 l 1
 171 97 l 1
 142 97 l 1
 142 68 l 1
114 40 m 1
 142 40 l 1
 142 68 l 1
 114 68 l 1
 114 40 l 1
142 40 m 1
 171 40 l 1
 171 68 l 1
 142 68 l 1
 142 40 l 1
171 40 m 1
 199 40 l 1
 199 68 l 1
 171 68 l 1
 171 40 l 1
85 11 m 1
 114 11 l 1
 114 40 l 1
 85 40 l 1
 85 11 l 1
114 11 m 1
 142 11 l 1
 142 40 l 1
 114 40 l 1
 114 11 l 1
142 11 m 1
 171 11 l 1
 171 40 l 1
 142 40 l 1
 142 11 l 1
171 11 m 1
 199 11 l 1
 199 40 l 1
 171 40 l 1
 171 11 l 1
199 11 m 1
 228 11 l 1
 228 40 l 1
 199 40 l 1
 199 11 l 1
EndSplineSet
Validated: 5
EndChar

